<?xml version="1.0" standalone="no"?>
<!DOCTYPE svg PUBLIC "-//W3C//DTD SVG 1.1//EN" "http://www.w3.org/Graphics/SVG/1.1/DTD/svg11.dtd" >
<svg>
<metadata>
Created by FontForge 20090914 at Sat Aug 13 19:39:36 2016
 By www-data
Copyright (c) 1992 Adobe Systems Incorporated.  All Rights Reserved.Myriad is a trademark of Adobe Systems Incorporated.
</metadata>
<defs>
<font id="MyriadSetPro-Ultralight" horiz-adv-x="300" >
  <font-face 
    font-family="Myriad Set Pro"
    font-weight="100"
    font-stretch="normal"
    units-per-em="1000"
    panose-1="2 11 2 3 3 4 3 2 2 4"
    ascent="800"
    descent="-200"
    x-height="483"
    cap-height="674"
    bbox="-575 -250 1058 958.001"
    underline-thickness="50"
    underline-position="-50"
    unicode-range="U+0009-U+FE48"
  />
<missing-glyph horiz-adv-x="500" 
d="M62 750h376v-750h-376v750zM375 62v626h-250v-626h250z" />
    <glyph glyph-name="f_f" unicode="ff" horiz-adv-x="443" 
d="M78 466h-66v17h66v24c0 70 12.5 122.167 37.5 156.5s65.5 51.5 121.5 51.5c38.667 0 75.667 -10.333 111 -31c22.667 24 54 36 94 36c22.667 0 42 -4.33301 58 -13l-7 -17c-16 8 -33 12 -51 12c-42.667 0 -73 -16 -91 -48s-27 -81 -27 -147v-24h112v-17h-112v-466h-21
v466h-204v-466h-21v466zM303 483l-0.00195312 24c0 74 11.333 128 34 162c-12.667 7.33301 -28.167 13.833 -46.5 19.5s-36.166 8.5 -53.499 8.5c-49.333 0 -84.666 -15.333 -105.999 -46s-32 -78.667 -32 -144v-24h204z" />
    <glyph glyph-name="fi" unicode="fi" horiz-adv-x="404" 
d="M78 466l-66.001 -0.00195312v17h66v24c0 70.667 12 123.834 36 159.501s62 53.5 114 53.5c32 0 61.667 -7.33301 89 -22l-7 -18c-24.667 14.667 -52 22 -82 22c-45.333 0 -78.166 -16.167 -98.499 -48.5s-30.5 -81.166 -30.5 -146.499v-24h225v-483h-21v466h-204v-466
h-21v466z" />
    <glyph glyph-name="fl" unicode="fl" horiz-adv-x="404" 
d="M78 466l-66.001 -0.00195312v17h66v24c0 70.667 12 123.834 36 159.501s62 53.5 114 53.5c35.333 0 67.333 -8.66699 96 -26v-694h-21v684c-24 12 -49 18 -75 18c-45.333 0 -78.166 -16.167 -98.499 -48.5s-30.5 -81.166 -30.5 -146.499v-24h110v-17h-110v-466h-21v466z
" />
    <glyph glyph-name="f_f_i" unicode="ffi" horiz-adv-x="629" 
d="M78 466h-66.001v17h66v24c0 70 12.5 122.167 37.5 156.5s65.5 51.5 121.5 51.5c39.333 0 76.333 -10.333 111 -31c23.333 24 58.333 36 105 36c32 0 61.667 -7.33301 89 -22l-7 -18c-24.667 14.667 -52 22 -82 22c-49.333 0 -83.166 -15.5 -101.499 -46.5
s-27.5 -80.5 -27.5 -148.5v-24h225v-483h-21v466h-204v-466h-21v466h-204v-466h-21v466zM302.999 483l-0.00195312 24c0 75.333 11.333 129.333 34 162c-12.667 7.33301 -28.167 13.833 -46.5 19.5s-36.166 8.5 -53.499 8.5c-49.333 0 -84.666 -15.333 -105.999 -46
s-32 -78.667 -32 -144v-24h204z" />
    <glyph glyph-name="f_f_l" unicode="ffl" horiz-adv-x="629" 
d="M78 466l-66.001 -0.000976562v17h66v24c0 70 12.5 122.167 37.5 156.5s65.5 51.5 121.5 51.5c38.667 0 76 -10.667 112 -32c23.333 24.667 58 37 104 37c35.333 0 67.333 -8.66699 96 -26v-694h-21v684c-24 12 -49 18 -75 18c-49.333 0 -83.166 -15.667 -101.499 -47
s-27.5 -80.666 -27.5 -147.999v-24h110v-17h-110v-466h-21v466h-204v-466h-21v466zM302.999 482.999l-0.00195312 24c0 75.333 11.333 129.333 34 162c-12.667 7.33301 -28.167 13.833 -46.5 19.5s-36.166 8.5 -53.499 8.5c-49.333 0 -84.666 -15.333 -105.999 -46
s-32 -78.667 -32 -144v-24h204z" />
    <glyph glyph-name=".notdef" horiz-adv-x="500" 
d="M62 750h376v-750h-376v750zM375 62v626h-250v-626h250z" />
    <glyph glyph-name="HT" unicode="&#x9;" horiz-adv-x="217" 
 />
    <glyph glyph-name="LF" unicode="&#xa;" horiz-adv-x="217" 
 />
    <glyph glyph-name="nonmarkingreturn" unicode="&#xd;" horiz-adv-x="217" 
 />
    <glyph glyph-name="space" unicode=" " horiz-adv-x="217" 
 />
    <glyph glyph-name="exclam" unicode="!" horiz-adv-x="174" 
d="M72 674h29l-7 -497h-15zM69.5 1c-4.33301 4.66699 -6.50195 10.667 -6.50195 18s2.33301 13.5 7 18.5s10.334 7.5 17.001 7.5c7.33301 0 13.166 -2.5 17.499 -7.5s6.5 -11.167 6.5 -18.5s-2.16699 -13.333 -6.5 -18s-10.166 -7 -17.499 -7s-13.166 2.33301 -17.499 7z
" />
    <glyph glyph-name="quotedbl" unicode="&#x22;" horiz-adv-x="255" 
d="M55 685h27l-7 -222h-13zM173 685h27l-7 -222h-13z" />
    <glyph glyph-name="numbersign" unicode="#" horiz-adv-x="447" 
d="M120 217h-84v18h86l26 186h-89v18h91l28 211h20l-28 -211h138l28 211h20l-28 -211h83v-18h-85l-25 -186h88v-18h-90l-29 -217h-20l29 217h-139l-29 -217h-20zM281 235l25 186h-138l-26 -186h139z" />
    <glyph glyph-name="dollar" unicode="$" horiz-adv-x="444" 
d="M206 15c-29.333 0 -55.998 3.50293 -79.998 10.5029s-44.333 15.833 -61 26.5l7 18c13.333 -10 32 -18.667 56 -26s47.333 -11 70 -11c46 0 82.167 13.833 108.5 41.5s39.5 61.834 39.5 102.501c0 26 -5.83301 48 -17.5 66s-26.334 32.833 -44.001 44.5
s-41.167 24.5 -70.5 38.5c-30 14 -54.5 27.333 -73.5 40s-34.667 28.5 -47 47.5s-18.5 41.833 -18.5 68.5c0 41.333 13 76.5 39 105.5s60 45.833 102 50.5v97h19v-96c22.667 0 43.5 -2.66699 62.5 -8s33.833 -12 44.5 -20l-7 -17c-10 7.33301 -23.5 13.666 -40.5 18.999
s-36.5 8 -58.5 8c-24 0 -46.5 -5.33301 -67.5 -16s-38.167 -26.334 -51.5 -47.001s-20 -45.334 -20 -74.001c0 -24 5.66699 -44.5 17 -61.5s25.833 -31.167 43.5 -42.5s41.5 -24 71.5 -38c44.667 -21.333 79 -43.833 103 -67.5s36 -55.834 36 -96.501
s-12.833 -76.5 -38.5 -107.5s-60.834 -49.167 -105.501 -54.5v-101h-18v100z" />
    <glyph glyph-name="percent" unicode="%" horiz-adv-x="711" 
d="M96 284c-19.333 14.667 -34.834 36.8311 -46.501 66.498s-17.5 65.5 -17.5 107.5c0 42.667 5.83301 79.334 17.5 110.001s27.5 53.834 47.5 69.501s41.667 23.5 65 23.5c38.667 0 69.334 -16.833 92.001 -50.5s34 -81.5 34 -143.5c0 -44 -5.83301 -81.5 -17.5 -112.5
s-27.167 -54.167 -46.5 -69.5s-41 -23 -65 -23c-22.667 0 -43.667 7.33301 -63 22zM534.999 660.997h19l-379 -672h-19zM237.499 326.497c20.333 33 30.5 79.499 30.5 139.499c0 56.667 -9.5 100.834 -28.5 132.501s-44.833 47.5 -77.5 47.5
c-31.333 0 -57.5 -16.833 -78.5 -50.5s-31.5 -79.5 -31.5 -137.5c0 -57.333 10.167 -101.833 30.5 -133.5s45.833 -47.5 76.5 -47.5c32 0 58.167 16.5 78.5 49.5zM486.999 14.9961c-19.333 14.667 -34.834 36.8311 -46.501 66.498s-17.5 65.5 -17.5 107.5
c0 42.667 5.83301 79.334 17.5 110.001s27.5 53.834 47.5 69.501s41.667 23.5 65 23.5c38.667 0 69.334 -16.833 92.001 -50.5s34 -81.5 34 -143.5c0 -44 -5.83301 -81.5 -17.5 -112.5s-27.167 -54.167 -46.5 -69.5s-41 -23 -65 -23c-22.667 0 -43.667 7.33301 -63 22z
M628.498 57.4932c20.333 33 30.5 79.499 30.5 139.499c0 56.667 -9.5 100.834 -28.5 132.501s-44.833 47.5 -77.5 47.5c-31.333 0 -57.5 -16.833 -78.5 -50.5s-31.5 -79.5 -31.5 -137.5c0 -57.333 10.167 -101.833 30.5 -133.5s45.833 -47.5 76.5 -47.5
c32 0 58.167 16.5 78.5 49.5z" />
    <glyph glyph-name="ampersand" unicode="&#x26;" horiz-adv-x="527" 
d="M80.5 36c-33.667 31.333 -50.501 73.9941 -50.501 127.994c0 49.333 12.333 89.833 37 121.5s58.334 59.834 101.001 84.501c-21.333 27.333 -37.333 53.833 -48 79.5s-16 51.834 -16 78.501c0 44.667 13.667 82 41 112s62 45 104 45c34.667 0 62.334 -11.5 83.001 -34.5
s31 -52.167 31 -87.5c0 -30 -7.66699 -56.667 -23 -80s-34.166 -43.166 -56.499 -59.499s-51.833 -35.166 -88.5 -56.499l219 -251c20.667 31.333 37 67.833 49 109.5s21.333 87.834 28 138.501h21c-16.667 -115.333 -45.334 -202.666 -86.001 -261.999l89 -102h-26l-76 86
c-51.333 -64.667 -119 -97 -203 -97c-52.667 0 -95.834 15.667 -129.501 47zM301.499 463.994c27 26.667 40.502 59.667 40.502 99c0 30 -8.33301 55 -25 75s-39.334 30 -68.001 30c-36.667 0 -66.334 -13.167 -89.001 -39.5s-34 -59.5 -34 -99.5
c0 -25.333 4.83301 -50 14.5 -74s24.5 -49 44.5 -75c50.667 29.333 89.5 57.333 116.5 84zM401.001 99.9941l-223.001 257.001c-39.333 -23.333 -70.166 -49.833 -92.499 -79.5s-33.5 -66.834 -33.5 -111.501c0 -50 15.333 -89.167 46 -117.5s68.667 -42.5 114 -42.5
c79.333 0 142.333 31.333 189 94z" />
    <glyph glyph-name="quotesingle" unicode="'" horiz-adv-x="137" 
d="M55 685h27l-7 -222h-13z" />
    <glyph glyph-name="parenleft" unicode="(" horiz-adv-x="229" 
d="M58 285c0 90 12.167 168.001 36.5 234.001s55.833 124.667 94.5 176h22c-88 -116.667 -132 -253.334 -132 -410.001c0 -155.333 44 -290.666 132 -405.999h-22c-87.333 111.333 -131 246.666 -131 405.999z" />
    <glyph glyph-name="parenright" unicode=")" horiz-adv-x="229" 
d="M150 289c0 155.333 -44 290.665 -132 405.998h22c87.333 -111.333 131 -246.666 131 -405.999c0 -90 -12.167 -168 -36.5 -234s-55.833 -124.667 -94.5 -176h-22c88 116.667 132 253.334 132 410.001z" />
    <glyph glyph-name="asterisk" unicode="*" horiz-adv-x="373" 
d="M88 409l89 125v2l-147 -9v26l147 -8v2l-89 125l23 13l74 -135h2l67 135l23 -13l-82 -125v-2l148 8v-26l-148 9v-2l82 -125l-23 -13l-67 133h-2l-74 -133z" />
    <glyph glyph-name="plus" unicode="+" horiz-adv-x="555" 
d="M267 261h-222v18h222v253h20v-253h223v-18h-223v-261h-20v261z" />
    <glyph glyph-name="comma" unicode="," horiz-adv-x="137" 
d="M70 68l34.001 10c-26.667 -101.333 -50.334 -170 -71.001 -206l-15 -5c24 66 41.333 133 52 201z" />
    <glyph glyph-name="hyphen" unicode="-" horiz-adv-x="251" 
d="M30 285h191v-19h-191v19z" />
    <glyph glyph-name="period" unicode="." horiz-adv-x="137" 
d="M58.5 1c-4.33301 4.66699 -6.50195 10.667 -6.50195 18s2.33301 13.5 7 18.5s10.334 7.5 17.001 7.5c7.33301 0 13.166 -2.5 17.499 -7.5s6.5 -11.167 6.5 -18.5s-2.16699 -13.333 -6.5 -18s-10.166 -7 -17.499 -7s-13.166 2.33301 -17.499 7z" />
    <glyph glyph-name="slash" unicode="/" horiz-adv-x="296" 
d="M280 685h21l-285 -725h-21z" />
    <glyph glyph-name="zero" unicode="0" horiz-adv-x="444" 
d="M124.5 27.5c-27 25.667 -48.335 63.5 -64.002 113.5s-23.5 110.667 -23.5 182c0 72 8.16699 133.5 24.5 184.5s38.833 89.333 67.5 115s61.334 38.5 98.001 38.5c56.667 0 100.834 -28.5 132.501 -85.5s47.5 -138.167 47.5 -243.5c0 -111.333 -16.667 -196.333 -50 -255
s-80 -88 -140 -88c-34.667 0 -65.5 12.833 -92.5 38.5zM340.998 90.5c29.333 55.667 43.999 135.834 43.999 240.501c0 99.333 -14 176.166 -42 230.499s-67 81.5 -117 81.5c-32.667 0 -61.5 -12.167 -86.5 -36.5s-44.667 -60.5 -59 -108.5s-21.5 -106.333 -21.5 -175
c0 -67.333 6.83301 -124.833 20.5 -172.5s32.334 -83.5 56.001 -107.5s51.167 -36 82.5 -36c52.667 0 93.667 27.833 123 83.5z" />
    <glyph glyph-name="one" unicode="1" horiz-adv-x="444" 
d="M231 629h-2l-120 -67l-4 17l128 71h19v-650h-21v629z" />
    <glyph glyph-name="two" unicode="2" horiz-adv-x="444" 
d="M44 14l77.0029 90l30 35c51.333 59.333 90.166 106.333 116.499 141s47.5 69.5 63.5 104.5s24 70.5 24 106.5c0 44 -11.667 80.333 -35 109s-59.333 43 -108 43c-26.667 0 -51.834 -5.83301 -75.501 -17.5s-44.167 -26.5 -61.5 -44.5l-8 15
c19.333 19.333 41.666 35 66.999 47s52 18 80 18c54 0 94.667 -16.333 122 -49s41 -72.667 41 -120c0 -37.333 -8.83301 -75 -26.5 -113s-40.667 -75.5 -69 -112.5s-69.5 -87.167 -123.5 -150.5l-15 -17l-70 -80v-2h315v-17h-344v14z" />
    <glyph glyph-name="three" unicode="3" horiz-adv-x="444" 
d="M99 1c-23.333 8 -42.332 17.6689 -56.999 29.002l8 18c13.333 -11.333 31.333 -21 54 -29s46 -12 70 -12c57.333 0 101.5 16.5 132.5 49.5s46.5 75.5 46.5 127.5c0 30 -7.83301 57.333 -23.5 82s-37.5 44.167 -65.5 58.5s-59.333 21.5 -94 21.5h-29v17h29
c26 0 51.333 6.83301 76 20.5s44.667 32.167 60 55.5s23 49 23 77c0 35.333 -11.167 65.333 -33.5 90s-54.166 37 -95.499 37c-24 0 -47.5 -4.66699 -70.5 -14s-41.833 -20.333 -56.5 -33l-6 18c16.667 12.667 37 23.667 61 33s48.667 14 74 14
c32 0 59.167 -6.83301 81.5 -20.5s39.166 -31.334 50.499 -53.001s17 -44.834 17 -69.501c0 -36 -11.833 -69 -35.5 -99s-53.834 -50.667 -90.501 -62v-2c25.333 -4 49.5 -13.667 72.5 -29s41.667 -35.333 56 -60s21.5 -52 21.5 -82c0 -36 -7.83301 -68.833 -23.5 -98.5
s-38.667 -53.167 -69 -70.5s-66.5 -26 -108.5 -26c-26.667 0 -51.667 4 -75 12z" />
    <glyph glyph-name="four" unicode="4" horiz-adv-x="444" 
d="M318 202h-299v14l291 434h29v-431h87v-17h-87v-202h-21v202zM318 219v319v92h-2l-25 -41l-40 -62l-206 -306v-2h273z" />
    <glyph glyph-name="five" unicode="5" horiz-adv-x="444" 
d="M44 25l5.99902 17.001c38.667 -24 80.334 -36 125.001 -36c35.333 0 67.166 7.5 95.499 22.5s50.666 37 66.999 66s24.5 63.5 24.5 103.5c0 54 -18.333 97.167 -55 129.5s-84.667 48.5 -144 48.5c-28.667 0 -56.334 -2 -83.001 -6l41 280h244v-17h-227l-36 -243
c22 2 44 3 66 3c40.667 0 77.334 -7.83301 110.001 -23.5s58.334 -38.167 77.001 -67.5s28 -63.333 28 -102c0 -44 -9.16699 -81.833 -27.5 -113.5s-43.166 -55.834 -74.499 -72.501s-66.666 -25 -105.999 -25c-46.667 0 -90.334 12 -131.001 36z" />
    <glyph glyph-name="six" unicode="6" horiz-adv-x="444" 
d="M124.5 22c-28.333 22 -50.5 53.833 -66.5 95.5s-24 90.5 -24 146.5c0 74.667 12 141.667 36 201s59.167 106.333 105.5 141s101.833 53 166.5 55l1 -19c-81.333 -2 -147 -31.667 -197 -89s-79.667 -137 -89 -239h2c16 30 39.833 54.5 71.5 73.5s65.834 28.5 102.501 28.5
c54 0 97 -18 129 -54s48 -84.333 48 -145c0 -40.667 -7.5 -78.5 -22.5 -113.5s-36.833 -62.833 -65.5 -83.5s-62.334 -31 -101.001 -31c-36 0 -68.167 11 -96.5 33zM310 35.5c25.333 19 44.667 44.332 58 75.999s20 66.5 20 104.5c0 56 -14.333 100.333 -43 133
s-67 49 -115 49c-28 0 -55.5 -7.16699 -82.5 -21.5s-49 -33.166 -66 -56.499s-25.5 -48.333 -25.5 -75c0 -44.667 7.16699 -85.167 21.5 -121.5s34 -64.833 59 -85.5s53.167 -31 84.5 -31c34 0 63.667 9.5 89 28.5z" />
    <glyph glyph-name="seven" unicode="7" horiz-adv-x="444" 
d="M380 633h-330v17h354v-14l-297 -636h-23z" />
    <glyph glyph-name="eight" unicode="8" horiz-adv-x="444" 
d="M125.5 11.5c-27.667 15 -48.998 35.333 -63.998 61s-22.5 53.5 -22.5 83.5c0 43.333 13.667 81.166 41 113.499s65.666 57.166 114.999 74.499v3c-39.333 12 -70.833 32.167 -94.5 60.5s-35.5 60.5 -35.5 96.5c0 46 15.5 83.667 46.5 113s70.5 44 118.5 44
c49.333 0 87.166 -13.667 113.499 -41s39.5 -60.666 39.5 -99.999c0 -76.667 -43 -133.667 -129 -171v-3c43.333 -13.333 79.333 -36.5 108 -69.5s43 -69.167 43 -108.5c0 -35.333 -8 -66.666 -24 -93.999s-38 -48.333 -66 -63s-59.333 -22 -94 -22
c-36 0 -67.833 7.5 -95.5 22.5zM328.002 421.5c22 27.667 32.999 59.832 32.999 96.499c0 34 -11.167 63.333 -33.5 88s-55.166 37 -98.499 37c-42 0 -76.167 -12.833 -102.5 -38.5s-39.5 -58.5 -39.5 -98.5c0 -36.667 12.333 -68.5 37 -95.5s60 -45.5 106 -55.5
c43.333 16.667 76 38.834 98 66.501zM337.501 50.998c30.333 29.333 45.5 67.999 45.5 115.999c0 40 -15.333 75.833 -46 107.5s-69.667 52.834 -117 63.501c-55.333 -20 -95.666 -45.167 -120.999 -75.5s-38 -65.5 -38 -105.5c0 -27.333 6.66699 -52.5 20 -75.5
s32 -41.167 56 -54.5s52 -20 84 -20c47.333 0 86.166 14.667 116.499 44z" />
    <glyph glyph-name="nine" unicode="9" horiz-adv-x="444" 
d="M98 -10l-0.999023 18.999h4c50.667 0 96.167 13 136.5 39s73.333 63.833 99 113.5s41.5 109.5 47.5 179.5h-2c-14.667 -30 -37.667 -54.5 -69 -73.5s-64.333 -28.5 -99 -28.5c-54.667 0 -97.834 17.167 -129.501 51.5s-47.5 81.833 -47.5 142.5
c0 41.333 7.33301 79.333 22 114s36 62.334 64 83.001s61 31 99 31c34.667 0 66 -10.667 94 -32s50 -52.333 66 -93s24 -89 24 -145c0 -76.667 -12.5 -145.5 -37.5 -206.5s-60.667 -108.667 -107 -143s-99.833 -51.5 -160.5 -51.5h-3zM295.001 278.499
c26 14.333 47.333 33.167 64 56.5s25 48.333 25 75c0 44 -7.16699 83.833 -21.5 119.5s-33.833 63.5 -58.5 83.5s-52 30 -82 30c-33.333 0 -62.333 -9.5 -87 -28.5s-43.5 -44.333 -56.5 -76s-19.5 -66.5 -19.5 -104.5c0 -56 14.167 -99.5 42.5 -130.5
s66.833 -46.5 115.5 -46.5c26 0 52 7.16699 78 21.5z" />
    <glyph glyph-name="colon" unicode=":" horiz-adv-x="137" 
d="M59 389c-4.66699 4.66699 -7 10.667 -7 18s2.33301 13.5 7 18.5s10.334 7.5 17.001 7.5c7.33301 0 13.166 -2.5 17.499 -7.5s6.5 -11.167 6.5 -18.5s-2.16699 -13.333 -6.5 -18s-10.166 -7 -17.499 -7c-6.66699 0 -12.334 2.33301 -17.001 7zM59 1
c-4.66699 4.66699 -7 10.667 -7 18s2.33301 13.5 7 18.5s10.334 7.5 17.001 7.5c7.33301 0 13.166 -2.5 17.499 -7.5s6.5 -11.167 6.5 -18.5s-2.16699 -13.333 -6.5 -18s-10.166 -7 -17.499 -7c-6.66699 0 -12.334 2.33301 -17.001 7z" />
    <glyph glyph-name="semicolon" unicode=";" horiz-adv-x="137" 
d="M65 389c-4.66699 4.66699 -7 10.667 -7 18s2.33301 13.5 7 18.5s10.334 7.5 17.001 7.5c7.33301 0 13.166 -2.5 17.499 -7.5s6.5 -11.167 6.5 -18.5s-2.16699 -13.333 -6.5 -18s-10.166 -7 -17.499 -7c-6.66699 0 -12.334 2.33301 -17.001 7zM70 68l34.001 10
c-26.667 -101.333 -50.334 -170 -71.001 -206l-15 -5c24 66 41.333 133 52 201z" />
    <glyph glyph-name="less" unicode="&#x3c;" horiz-adv-x="555" 
d="M72 255v20l411 221v-21l-391 -209v-2l391 -209v-21z" />
    <glyph glyph-name="equal" unicode="=" horiz-adv-x="555" 
d="M45 376h465v-18h-465v18zM45 181h465v-18h-465v18z" />
    <glyph glyph-name="greater" unicode="&#x3e;" horiz-adv-x="555" 
d="M72 55l391 209v2l-391 209v21l411 -221v-20l-411 -221v21z" />
    <glyph glyph-name="question" unicode="?" horiz-adv-x="335" 
d="M127 229c0 28 4.66797 53 14.001 75s24.333 45.667 45 71c24.667 30.667 44.334 60.334 59.001 89.001s22 57.334 22 86.001c0 34 -9.83301 62.167 -29.5 84.5s-47.5 33.5 -83.5 33.5c-16.667 0 -33.334 -2.83301 -50.001 -8.5s-31 -13.834 -43 -24.501l-10 14
c12.667 11.333 28.667 20.333 48 27s38.666 10 57.999 10c42.667 0 75.5 -12.833 98.5 -38.5s34.5 -57.834 34.5 -96.501c0 -30.667 -7.66699 -61 -23 -91s-36 -61.333 -62 -94c-20.667 -25.333 -35.167 -48.166 -43.5 -68.499s-12.5 -44.833 -12.5 -73.5
c0 -20 1.66699 -36.667 5 -50h-22c-3.33301 13.333 -5 31.666 -5 54.999zM125.501 1c-4.33301 4.66699 -6.50195 10.667 -6.50195 18s2.33301 13.5 7 18.5s10.334 7.5 17.001 7.5c7.33301 0 13.166 -2.5 17.499 -7.5s6.5 -11.167 6.5 -18.5s-2.16699 -13.333 -6.5 -18
s-10.166 -7 -17.499 -7s-13.166 2.33301 -17.499 7z" />
    <glyph glyph-name="at" unicode="@" horiz-adv-x="691" 
d="M180 -66.5c-42.667 25 -76.668 60.832 -102.001 107.499s-38 101.667 -38 165c0 70 14.167 134.5 42.5 193.5s68.333 105.833 120 140.5s111.167 52 178.5 52c52.667 0 99.334 -12.167 140.001 -36.5s72.5 -58 95.5 -101s34.5 -92.167 34.5 -147.5
c0 -50 -7.33301 -93.333 -22 -130s-34 -64.5 -58 -83.5s-49.667 -28.5 -77 -28.5c-24.667 0 -42.667 6.66699 -54 20s-17 32 -17 56c0 4.66699 0.666992 13 2 25h-3c-14 -30.667 -32.667 -55.167 -56 -73.5s-48.333 -27.5 -75 -27.5c-30.667 0 -54.834 10.667 -72.501 32
s-26.5 52 -26.5 92c0 42 9.33301 81.333 28 118s44.5 66 77.5 88s69.833 33 110.5 33c36.667 0 64.667 -6 84 -18l-46 -214c-4.66699 -21.333 -7 -40.666 -7 -57.999c0.666992 -21.333 5.83398 -36.5 15.501 -45.5s23.5 -13.5 41.5 -13.5c24 0 46.333 9 67 27
s37.334 44.167 50.001 78.5s19 74.833 19 121.5c0 52.667 -10.667 99.334 -32 140.001s-51 72.5 -89 95.5s-81.667 34.5 -131 34.5c-62.667 0 -118.334 -16.333 -167.001 -49s-86.5 -77.167 -113.5 -133.5s-40.5 -118.5 -40.5 -186.5c0 -60 11.667 -112.333 35 -157
s55 -78.834 95 -102.501s84.333 -35.5 133 -35.5c28.667 0 55.334 2.83301 80.001 8.5s48 15.167 70 28.5l4 -15c-23.333 -14 -47.333 -23.833 -72 -29.5s-52.334 -8.5 -83.001 -8.5c-51.333 0 -98.333 12.5 -141 37.5zM381.499 127.999
c26.333 31.333 47.1709 81.333 62.5039 150l27 123c-14.667 7.33301 -36.334 11 -65.001 11c-36.667 0 -69.834 -10.333 -99.501 -31s-53 -48 -70 -82s-25.5 -70.667 -25.5 -110c0 -32 6.66699 -58 20 -78s33.666 -30 60.999 -30c33.333 0 63.166 15.667 89.499 47z" />
    <glyph glyph-name="A" unicode="A" horiz-adv-x="551" 
d="M264 674h26l231 -674h-23l-81 239h-281l-81 -239h-22zM410 257l-75.001 223c-4 10.667 -6.66699 18.667 -8 24l-49 146h-2c-7.33301 -24 -14.166 -45 -20.499 -63l-15.5 -45l-21 -62l-76 -223h267z" />
    <glyph glyph-name="B" unicode="B" horiz-adv-x="480" 
d="M84 2l-0.000976562 663c40 9.33301 82 14 126 14c63.333 0 112.833 -12.167 148.5 -36.5s53.5 -64.833 53.5 -121.5c0 -41.333 -14.167 -76 -42.5 -104s-66.166 -47 -113.499 -57v-2c120 -20 180 -76.667 180 -170c0 -66.667 -25.167 -115.667 -75.5 -147
s-113.833 -47 -190.5 -47c-34 0 -62.667 2.66699 -86 8zM181.999 366c60.667 0 110.499 14 149.499 42s58.5 65.667 58.5 113c0 50 -15.667 85.833 -47 107.5s-75.666 32.5 -132.999 32.5c-39.333 0 -74.333 -3.66699 -105 -11v-284h77zM344.998 55
c45.333 28.667 68.001 73 68.001 133c0 57.333 -22 98.5 -66 123.5s-102.333 37.5 -175 37.5h-67v-331c24 -4 46.667 -6 68 -6c69.333 0 126.666 14.333 171.999 43z" />
    <glyph glyph-name="C" unicode="C" horiz-adv-x="521" 
d="M181 29c-45.333 26 -80.501 64.6699 -105.501 116.003s-37.5 113.333 -37.5 186c0 69.333 13 130.666 39 183.999s62.833 94.833 110.5 124.5s103.5 44.5 167.5 44.5c46 0 89.667 -9 131 -27l-6 -18c-39.333 18 -81 27 -125 27
c-59.333 0 -111.166 -13.833 -155.499 -41.5s-78.5 -66.834 -102.5 -117.501s-36 -109.334 -36 -176.001c0 -103.333 25.167 -183 75.5 -239s119.166 -84 206.499 -84c26.667 0 52.5 2.66699 77.5 8s45.5 11.333 61.5 18l4 -18c-16.667 -7.33301 -37.5 -13.5 -62.5 -18.5
s-52.5 -7.5 -82.5 -7.5c-61.333 0 -114.666 13 -159.999 39z" />
    <glyph glyph-name="D" unicode="D" horiz-adv-x="601" 
d="M84 2v661.999c62.667 10 112.334 15 149.001 15c101.333 0 181.5 -27.167 240.5 -81.5s88.5 -135.5 88.5 -243.5c0 -117.333 -30.833 -206.666 -92.5 -267.999s-148.834 -92 -261.501 -92c-50 0 -91.333 2.66699 -124 8zM453.5 98.999c57 58 85.501 142.667 85.501 254
c0 101.333 -27.333 178 -82 230s-129.334 78 -224.001 78c-43.333 0 -86 -4 -128 -12v-632c24 -3.33301 59 -5 105 -5c105.333 0 186.5 29 243.5 87z" />
    <glyph glyph-name="E" unicode="E" horiz-adv-x="427" 
d="M84 674h293v-18h-272v-291h257v-18h-257v-329h287v-18h-308v674z" />
    <glyph glyph-name="F" unicode="F" horiz-adv-x="409" 
d="M84 674h288v-18h-267v-303h246v-18h-246v-335h-21v674z" />
    <glyph glyph-name="G" unicode="G" horiz-adv-x="574" 
d="M181 34.5c-46 27.667 -81.332 67.167 -105.999 118.5s-37 111.333 -37 180c0 66 13.333 125.333 40 178s64.667 94.167 114 124.5s106.666 45.5 171.999 45.5c28 0 54.667 -2.83301 80 -8.5s45.333 -12.5 60 -20.5l-7 -17c-13.333 7.33301 -32.5 13.833 -57.5 19.5
s-50.167 8.5 -75.5 8.5c-61.333 0 -114.833 -14.167 -160.5 -42.5s-80.834 -67.333 -105.501 -117s-37 -106.167 -37 -169.5c0 -66 11.5 -123.333 34.5 -172s55.833 -86 98.5 -112s93.334 -39 152.001 -39c29.333 0 57 3.16699 83 9.5s48.333 13.833 67 22.5v256h-147v17
h167v-286c-54.667 -24.667 -111.667 -37 -171 -37c-63.333 0 -118 13.833 -164 41.5z" />
    <glyph glyph-name="H" unicode="H" horiz-adv-x="595" 
d="M84 674h21v-309h385v309h21v-674h-21v347h-385v-347h-21v674z" />
    <glyph glyph-name="I" unicode="I" horiz-adv-x="189" 
d="M84 674h21v-674h-21v674z" />
    <glyph glyph-name="J" unicode="J" horiz-adv-x="311" 
d="M48 -5.5c-15.333 3.66699 -28 8.16699 -38 13.5l6 17c24 -12 50 -18 78 -18c36.667 0 65.667 16 87 48s32 86.333 32 163v456h21v-457c0 -152 -46.333 -228 -139 -228c-16 0 -31.667 1.83301 -47 5.5z" />
    <glyph glyph-name="K" unicode="K" horiz-adv-x="473" 
d="M84 674h21v-350h2l68 77l247 273h28l-259 -285l282 -389h-27l-270 374l-71 -77v-297h-21v674z" />
    <glyph glyph-name="L" unicode="L" horiz-adv-x="403" 
d="M84 674h21v-656h280v-18h-301v674z" />
    <glyph glyph-name="M" unicode="M" horiz-adv-x="744" 
d="M112 674h33l119 -341l101 -305h2l111 304l125 342h34l43 -674h-22l-22 327l-12 206l-6 119h-2l-57 -157l-56 -155l-125 -340h-25l-112 333l-109 317h-2l-6 -98c-6.66699 -117.333 -12 -203 -16 -257l-21 -295h-22z" />
    <glyph glyph-name="N" unicode="N" horiz-adv-x="605" 
d="M84 674l25 -0.000976562l221 -360l170 -280h2c-1.33301 42.667 -2 106.334 -2 191.001v128v321h21v-674h-23l-219 355l-74 121l-52 86l-48 80h-2c1.33301 -70.667 2 -177.667 2 -321v-321h-21v674z" />
    <glyph glyph-name="O" unicode="O" horiz-adv-x="623" 
d="M170 32c-40.667 28.667 -72.833 69.001 -96.5 121.001s-35.5 111.333 -35.5 178c0 69.333 12.333 131 37 185s58.167 95.667 100.5 125s89.166 44 140.499 44c52.667 0 99.334 -14.5 140.001 -43.5s72.334 -69.333 95.001 -121s34 -110.5 34 -176.5
c0 -74.667 -12.5 -138.834 -37.5 -192.501s-58.667 -94.167 -101 -121.5s-88.833 -41 -139.5 -41s-96.334 14.333 -137.001 43zM437.001 47.001c38.667 26.667 69.166 65.334 91.499 116.001s33.5 110.667 33.5 180c0 61.333 -10.333 116.666 -31 165.999
s-49.667 88 -87 116s-80 42 -128 42s-91.333 -14.167 -130 -42.5s-69.167 -68 -91.5 -119s-33.5 -109.167 -33.5 -174.5c0 -62 10.667 -117.667 32 -167s50.833 -87.833 88.5 -115.5s79.834 -41.5 126.501 -41.5c47.333 0 90.333 13.333 129 40z" />
    <glyph glyph-name="P" unicode="P" horiz-adv-x="470" 
d="M84 665c2.66699 0.666992 16 3.16699 40 7.5s54.333 6.5 91 6.5c142 0 213 -62.333 213 -187c0 -61.333 -20.5 -110.333 -61.5 -147s-97.167 -55 -168.5 -55c-34.667 0 -65.667 2.33301 -93 7v-297h-21v665zM352 357.5c36.667 33 54.999 77.5 54.999 133.5
c0 113.333 -64 170 -192 170c-22.667 0 -41.5 -1 -56.5 -3s-32.833 -4.66699 -53.5 -8v-335c27.333 -4.66699 58 -7 92 -7c66.667 0 118.334 16.5 155.001 49.5z" />
    <glyph glyph-name="Q" unicode="Q" horiz-adv-x="623" 
d="M439 -53.5c-42.667 12.333 -69.334 20.168 -80.001 23.501l-23 7c-16 5.33301 -32 9 -48 11c-4 0.666992 -10.167 2 -18.5 4l-24.5 6c-39.333 10.667 -74.666 31 -105.999 61s-56 68.333 -74 115s-27 99 -27 157c0 70 12.333 131.833 37 185.5s58.167 95.167 100.5 124.5
s89.166 44 140.499 44c52.667 0 99.334 -14.5 140.001 -43.5s72.334 -69.333 95.001 -121s34 -110.5 34 -176.5c0 -68 -10.667 -127.5 -32 -178.5s-50.166 -91 -86.499 -120s-76.833 -46.167 -121.5 -51.5v-3c25.333 -8 60.166 -17.833 104.499 -29.5
s84.833 -21.834 121.5 -30.501l-7 -18c-40.667 10 -82.334 21.167 -125.001 33.5zM437 47.002c38.667 26.667 69.166 65.334 91.499 116.001s33.5 110.667 33.5 180c0 61.333 -10.333 116.666 -31 165.999s-49.667 88 -87 116s-80 42 -128 42s-91.333 -14.167 -130 -42.5
s-69.167 -68 -91.5 -119s-33.5 -109.167 -33.5 -174.5c0 -62 10.667 -117.667 32 -167s50.833 -87.833 88.5 -115.5s79.834 -41.5 126.501 -41.5c47.333 0 90.333 13.333 129 40z" />
    <glyph glyph-name="R" unicode="R" horiz-adv-x="476" 
d="M84 664c40 10 83.665 15 130.998 15c68 0 119.833 -14.667 155.5 -44s53.5 -71.666 53.5 -126.999c0 -42.667 -12.5 -79.5 -37.5 -110.5s-60.167 -52.833 -105.5 -65.5v-2c32.667 -7.33301 58.334 -23.5 77.001 -48.5s33.667 -61.167 45 -108.5l14 -56
c6.66699 -28.667 12.834 -53.834 18.501 -75.501s10.167 -35.5 13.5 -41.5h-23c-3.33301 8 -12 39.333 -26 94l-18 74c-10.667 42 -23 73.833 -37 95.5s-31.833 36.667 -53.5 45s-51.167 12.5 -88.5 12.5h-98v-321h-21v664zM198.998 338c64 0 114 15.667 150 47
s54 72 54 122c0 50.667 -16.167 89 -48.5 115s-78.5 39 -138.5 39c-44.667 0 -81.667 -3.66699 -111 -11v-312h94z" />
    <glyph glyph-name="S" unicode="S" horiz-adv-x="425" 
d="M103.5 1.5c-25 7.66699 -45.5 17.1689 -61.5 28.502l7 20c13.333 -12 32.166 -21.833 56.499 -29.5s48.5 -11.5 72.5 -11.5c56 0 99.333 15.5 130 46.5s46 70.5 46 118.5c0 40 -12.667 72.333 -38 97s-61.333 48 -108 70c-49.333 23.333 -87.166 47.5 -113.499 72.5
s-39.5 58.833 -39.5 101.5c0 50.667 16.667 91.5 50 122.5s77 46.5 131 46.5c24 0 45.833 -2.83301 65.5 -8.5s35.5 -12.834 47.5 -21.501l-8 -18c-10.667 8 -25.5 15 -44.5 21s-39.167 9 -60.5 9c-48 0 -86.667 -13.833 -116 -41.5s-44 -63.5 -44 -107.5
c0 -26.667 6.5 -49.667 19.5 -69s29.5 -35.5 49.5 -48.5s46 -27.167 78 -42.5c48 -22.667 85.5 -47.834 112.5 -75.501s40.5 -63.167 40.5 -106.5c0 -34.667 -7.66699 -66 -23 -94s-38 -50.167 -68 -66.5s-66 -24.5 -108 -24.5c-24 0 -48.5 3.83301 -73.5 11.5z" />
    <glyph glyph-name="T" unicode="T" horiz-adv-x="419" 
d="M198 656h-203v18h429v-18h-205v-656h-21v656z" />
    <glyph glyph-name="U" unicode="U" horiz-adv-x="587" 
d="M139 57.5c-38 45.667 -57 116.5 -57 212.5v404h21v-403c0 -90 17 -156.333 51 -199s78.333 -64 133 -64c58.667 0 106.167 22 142.5 66s54.5 111 54.5 201v399h21v-399c0 -96 -20.167 -167.667 -60.5 -215s-92.833 -71 -157.5 -71c-60.667 0 -110 22.833 -148 68.5z" />
    <glyph glyph-name="V" unicode="V" horiz-adv-x="496" 
d="M11 674h24l105 -330l50 -158l51 -158h2l107 307l119 339h24l-240 -674h-24z" />
    <glyph glyph-name="W" unicode="W" horiz-adv-x="771" 
d="M15 674l22.998 -0.000976562l86 -350l10 -40c30 -121.333 50.333 -206.666 61 -255.999h2c18.667 74 44.667 168 78 282l105 364h24l91 -364c2.66699 -9.33301 4.33398 -16.333 5.00098 -21c29.333 -113.333 50.333 -200.333 63 -261h2c16.667 70 39.334 156 68.001 258
l11 39l96 349h23l-188 -674h-24l-90 363l-69 283h-2c-14 -56 -40.333 -150.333 -79 -283l-104 -363h-24z" />
    <glyph glyph-name="X" unicode="X" horiz-adv-x="507" 
d="M239 346l-196.999 328h26l97 -164l87 -147h2c11.333 17.333 27.666 44 48.999 80c14 24.667 27.333 47 40 67l100 164h26l-201 -327l205 -347h-26l-110 186l-83 142h-2l-83 -142l-109 -186h-26z" />
    <glyph glyph-name="Y" unicode="Y" horiz-adv-x="466" 
d="M223 305l-210 369h25l107 -189l88 -161h2c12.667 24.667 33 61.667 61 111l16 27.5l13 22.5l108 189h25l-214 -369v-305h-21v305z" />
    <glyph glyph-name="Z" unicode="Z" horiz-adv-x="491" 
d="M36 13l386 641v2h-354v18h384v-13l-386 -641v-2h391v-18h-421v13z" />
    <glyph glyph-name="bracketleft" unicode="[" horiz-adv-x="229" 
d="M83 685h130v-16h-111v-765h111v-16h-130v797z" />
    <glyph glyph-name="backslash" unicode="\" horiz-adv-x="296" 
d="M-2 685h21l279 -725h-21z" />
    <glyph glyph-name="bracketright" unicode="]" horiz-adv-x="229" 
d="M16 -96h111v765h-111v16h130v-797h-130v16z" />
    <glyph glyph-name="asciicircum" unicode="^" horiz-adv-x="555" 
d="M267 650h22l205 -459h-21l-194 439h-2l-195 -439h-21z" />
    <glyph glyph-name="underscore" unicode="_" horiz-adv-x="500" 
d="M0 -75h500v-50h-500v50z" />
    <glyph glyph-name="grave" unicode="`" 
d="M53 686h36l93 -136h-16z" />
    <glyph glyph-name="a" unicode="a" horiz-adv-x="423" 
d="M71.5 24.5c-25 24.333 -37.5 54.835 -37.5 91.502c0 53.333 25.5 94.666 76.5 123.999s122.5 44 214.5 44v13c0 118.667 -42.333 178 -127 178c-20 0 -40.5 -3.33301 -61.5 -10s-38.833 -15.667 -53.5 -27l-7 17c15.333 11.333 34.333 20.333 57 27s44.667 10 66 10
c55.333 0 93.5 -18.333 114.5 -55s31.5 -84 31.5 -142v-137c0 -30 0.666992 -61.833 2 -95.5s3 -54.834 5 -63.501h-20c-2.66699 19.333 -4 47.333 -4 84h-3c-38 -63.333 -89.333 -95 -154 -95c-41.333 0 -74.5 12.167 -99.5 36.5zM306 83.002
c8 11.333 13.167 23.833 15.5 37.5s3.5 32.167 3.5 55.5v91c-84.667 0 -150.667 -12.833 -198 -38.5s-71 -62.5 -71 -110.5c0 -34.667 11 -62.167 33 -82.5s50 -30.5 84 -30.5c52.667 0 97 26 133 78z" />
    <glyph glyph-name="b" unicode="b" horiz-adv-x="507" 
d="M166.5 13.5c-29.667 16.333 -51.499 40.832 -65.499 73.499h-2l-4 -87h-19c2.66699 48 4 94.333 4 139v570h21v-324h2c15.333 30.667 38 56.334 68 77.001s62.667 31 98 31c38 0 72 -10.167 102 -30.5s53.333 -49 70 -86s25 -79.833 25 -128.5
c0 -54 -8.66699 -100.5 -26 -139.5s-41.5 -68.667 -72.5 -89s-66.833 -30.5 -107.5 -30.5c-32.667 0 -63.834 8.16699 -93.501 24.5zM393.001 69.999c34 42.667 51 101.999 51 177.999c0 44.667 -7.33301 84.334 -22 119.001s-35.5 61.5 -62.5 80.5s-58.167 28.5 -93.5 28.5
c-31.333 0 -59.5 -8.5 -84.5 -25.5s-44.667 -37.833 -59 -62.5s-21.5 -47.667 -21.5 -69v-164c0 -27.333 7.16699 -52.333 21.5 -75s33.333 -40.667 57 -54s49.167 -20 76.5 -20c57.333 0 103 21.333 137 64z" />
    <glyph glyph-name="c" unicode="c" horiz-adv-x="394" 
d="M143.5 20c-32.333 20 -57.502 48.502 -75.502 85.502s-27 80.5 -27 130.5s9.5 94.5 28.5 133.5s45.833 69.333 80.5 91s74.334 32.5 119.001 32.5c20.667 0 39.167 -2.5 55.5 -7.5s29.5 -10.833 39.5 -17.5l-8 -17c-9.33301 6.66699 -21.5 12.5 -36.5 17.5
s-31.833 7.5 -50.5 7.5c-40.667 0 -76.667 -10.167 -108 -30.5s-55.5 -48.5 -72.5 -84.5s-25.5 -77.333 -25.5 -124s8.16699 -87.334 24.5 -122.001s39.333 -61.334 69 -80.001s63.834 -28 102.501 -28c19.333 0 37.833 2.83301 55.5 8.5s31.5 12.167 41.5 19.5l5 -17
c-10.667 -7.33301 -25.334 -13.833 -44.001 -19.5s-38.667 -8.5 -60 -8.5c-43.333 0 -81.166 10 -113.499 30z" />
    <glyph glyph-name="d" unicode="d" horiz-adv-x="501" 
d="M94.5 57c-35.667 45.333 -53.499 109 -53.499 191c0 48.667 8.33301 91.5 25 128.5s40 65.667 70 86s64 30.5 102 30.5c35.333 0 67 -8.33301 95 -25s49.667 -37.667 65 -63h2v304h21v-570c0 -44.667 1.33301 -91 4 -139h-19l-4 94h-2c-16 -36 -38.5 -62.5 -67.5 -79.5
s-60.167 -25.5 -93.5 -25.5c-60.667 0 -108.834 22.667 -144.501 68zM321.001 27.5c24 14.333 43.167 33.834 57.5 58.501s21.5 51.667 21.5 81v175c0 18.667 -6.83301 38.5 -20.5 59.5s-32.667 38.667 -57 53s-51.5 21.5 -81.5 21.5c-35.333 0 -66.5 -9.5 -93.5 -28.5
s-47.833 -45.833 -62.5 -80.5s-22 -74.334 -22 -119.001c0 -76.667 16 -136.167 48 -178.5s76 -63.5 132 -63.5c28 0 54 7.16699 78 21.5z" />
    <glyph glyph-name="e" unicode="e" horiz-adv-x="455" 
d="M97 58c-37.333 45.333 -56.001 109.333 -56.001 192c0 42.667 8.5 82.667 25.5 120s40.667 67.166 71 89.499s64.833 33.5 103.5 33.5c42.667 0 77 -10.667 103 -32s44.333 -47.166 55 -77.499s16 -60.5 16 -90.5c0 -19.333 -0.666992 -33.333 -2 -42h-350
c0 -74 16.167 -133.167 48.5 -177.5s78.833 -66.5 139.5 -66.5c50.667 0 95.334 9.66699 134.001 29l4 -16c-40 -20 -86.333 -30 -139 -30c-64.667 0 -115.667 22.667 -153 68zM393.999 268c0.666992 5.33301 1.00098 15.668 1.00098 31.001
c-0.666992 26.667 -5.83398 53.5 -15.501 80.5s-26 49.833 -49 68.5s-53.167 28 -90.5 28c-32 0 -61 -9.16699 -87 -27.5s-46.833 -43.333 -62.5 -75s-24.5 -66.834 -26.5 -105.501h330z" />
    <glyph glyph-name="f" unicode="f" horiz-adv-x="218" 
d="M78 466l-66 -0.000976562v17h66v24c0 70 10 123 30 159s51.333 54 94 54c22.667 0 42 -4.33301 58 -13l-7 -17c-16 8 -33 12 -51 12c-36 0 -62.167 -16.167 -78.5 -48.5s-24.5 -81.166 -24.5 -146.499v-24h112v-17h-112v-466h-21v466z" />
    <glyph glyph-name="g" unicode="g" horiz-adv-x="500" 
d="M142 -198c-23.333 6.66699 -42.668 16.665 -58.001 29.998l10 15c14 -12 32 -21.333 54 -28s44.333 -10 67 -10c64 0 110.667 21.833 140 65.5s44 106.834 44 189.501v26h-2c-18 -30.667 -41.333 -53.167 -70 -67.5s-60 -21.5 -94 -21.5
c-36.667 0 -69.5 9.83301 -98.5 29.5s-51.833 48.167 -68.5 85.5s-25 82 -25 134c0 48.667 8.33301 91.334 25 128.001s40 65 70 85s64 30 102 30c34 0 65.833 -10.333 95.5 -31s51.5 -46 65.5 -76h2l4 97h19c-2.66699 -48 -4 -94.333 -4 -139v-274
c0 -89.333 -16 -158 -48 -206s-84.333 -72 -157 -72c-25.333 0 -49.666 3.33301 -72.999 10zM316.998 36.498c24.667 12.333 44.499 29.6689 59.499 52.002s22.5 47.833 22.5 76.5v157c0 21.333 -7 44.166 -21 68.499s-33.167 44.666 -57.5 60.999s-50.833 24.5 -79.5 24.5
c-35.333 0 -66.5 -9.33301 -93.5 -28s-47.833 -45.167 -62.5 -79.5s-22 -73.833 -22 -118.5c0 -48 7.33301 -89.5 22 -124.5s35.167 -61.667 61.5 -80s56.5 -27.5 90.5 -27.5c28.667 0 55.334 6.16699 80.001 18.5z" />
    <glyph glyph-name="h" unicode="h" horiz-adv-x="496" 
d="M80 709l20.9971 0.000976562v-327h2c35.333 74 88 111 158 111c54.667 0 94.834 -18.833 120.501 -56.5s38.5 -90.834 38.5 -159.501v-277h-21v276c0 70.667 -12.833 121.667 -38.5 153s-59.5 47 -101.5 47c-37.333 0 -69.166 -12.5 -95.499 -37.5
s-44.166 -53.167 -53.499 -84.5c-4 -13.333 -6.5 -25.5 -7.5 -36.5s-1.5 -27.833 -1.5 -50.5v-267h-21v709z" />
    <glyph glyph-name="i" unicode="i" horiz-adv-x="181" 
d="M73.5 590c-4.33301 4.66699 -6.5 10.332 -6.5 16.999s2.16699 12.334 6.5 17.001s9.83301 7 16.5 7c7.33301 0 13 -2.16699 17 -6.5s6 -10.166 6 -17.499c0 -6.66699 -2.16699 -12.334 -6.5 -17.001s-9.83301 -7 -16.5 -7s-12.167 2.33301 -16.5 7zM80 482.998h21v-483
h-21v483z" />
    <glyph glyph-name="j" unicode="j" horiz-adv-x="190" 
d="M82.5 590c-4.33301 4.66699 -6.5 10.332 -6.5 16.999s2.16699 12.334 6.5 17.001s9.83301 7 16.5 7c7.33301 0 13 -2.16699 17 -6.5s6 -10.166 6 -17.499c0 -6.66699 -2.16699 -12.334 -6.5 -17.001s-9.83301 -7 -16.5 -7s-12.167 2.33301 -16.5 7zM-36 -190.002
c19.333 2 36.833 6.99902 52.5 14.999s28.167 18 37.5 30c12 14.667 20.833 36 26.5 64s8.5 69.667 8.5 125v439h21v-444c0 -54.667 -3.33301 -97 -10 -127s-16.667 -53 -30 -69c-12 -14 -27 -25.667 -45 -35s-36.667 -14.666 -56 -15.999z" />
    <glyph glyph-name="k" unicode="k" horiz-adv-x="398" 
d="M80 709h21v-501h2c13.333 14.667 23 25.667 29 33l65 73l150 169h28l-181 -201l212 -282h-27l-199 269l-79 -86v-183h-21v709z" />
    <glyph glyph-name="l" unicode="l" horiz-adv-x="181" 
d="M80 709h21v-709h-21v709z" />
    <glyph glyph-name="m" unicode="m" horiz-adv-x="773" 
d="M80 312c0 60.667 -1.33105 117.667 -3.99805 171h19l4 -103h2c18 37.333 38.833 65.5 62.5 84.5s53.167 28.5 88.5 28.5c33.333 0 62.666 -11.167 87.999 -33.5s42.666 -51.5 51.999 -87.5h2c32 80.667 84 121 156 121c42.667 0 77.834 -15.333 105.501 -46
s41.5 -71.667 41.5 -123v-324h-21v313c0 48 -11.833 87.167 -35.5 117.5s-55.834 45.5 -96.501 45.5c-34.667 0 -63.834 -12.167 -87.501 -36.5s-40.5 -52.833 -50.5 -85.5c-2.66699 -9.33301 -4.5 -20.333 -5.5 -33s-1.5 -30.667 -1.5 -54v-267h-21v323
c0 24 -5.33301 47.833 -16 71.5s-25.667 43.167 -45 58.5s-41.666 23 -66.999 23c-36 0 -65.833 -12 -89.5 -36s-40.5 -52.667 -50.5 -86c-4 -12.667 -6.5 -24.5 -7.5 -35.5s-1.5 -28.167 -1.5 -51.5v-267h-21v312z" />
    <glyph glyph-name="n" unicode="n" horiz-adv-x="496" 
d="M80 312c0 60.667 -1.33594 117.668 -4.00293 171.001h19l4 -103h2c36 75.333 89.333 113 160 113c54.667 0 94.834 -18.833 120.501 -56.5s38.5 -90.834 38.5 -159.501v-277h-21v276c0 70.667 -12.833 121.667 -38.5 153s-59.5 47 -101.5 47
c-37.333 0 -69.166 -12.5 -95.499 -37.5s-44.166 -53.167 -53.499 -84.5c-4 -13.333 -6.5 -25.5 -7.5 -36.5s-1.5 -27.833 -1.5 -50.5v-267h-21v312z" />
    <glyph glyph-name="o" unicode="o" horiz-adv-x="487" 
d="M139 19.5c-30 20.333 -53.8311 49.334 -71.498 87.001s-26.5 81.5 -26.5 131.5c0 52.667 9.16699 98.167 27.5 136.5s43.166 67.666 74.499 87.999s65.666 30.5 102.999 30.5c38.667 0 73.167 -10.333 103.5 -31s54 -49.667 71 -87s25.5 -80.333 25.5 -129
c0 -57.333 -10 -105.333 -30 -144s-45.667 -67.167 -77 -85.5s-64.333 -27.5 -99 -27.5c-37.333 0 -71 10.167 -101 30.5zM330.002 32.501c27.333 17.667 49.833 44.667 67.5 81s26.5 80.5 26.5 132.5c0 44 -7.33301 83.5 -22 118.5s-35.5 62.333 -62.5 82
s-58.167 29.5 -93.5 29.5c-34.667 0 -65.834 -9.66699 -93.501 -29s-49.5 -47 -65.5 -83s-24 -78 -24 -126c0 -46 7.83301 -86.667 23.5 -122s37.334 -62.5 65.001 -81.5s58.5 -28.5 92.5 -28.5c30 0 58.667 8.83301 86 26.5z" />
    <glyph glyph-name="p" unicode="p" horiz-adv-x="507" 
d="M80 344c0 44.667 -1.33105 91 -3.99805 139h19l4 -100h2c15.333 30.667 38.333 56.667 69 78s63.667 32 99 32c38 0 72 -10.167 102 -30.5s53.333 -49 70 -86s25 -79.833 25 -128.5c0 -54 -8.66699 -100.5 -26 -139.5s-41.5 -68.667 -72.5 -89
s-66.833 -30.5 -107.5 -30.5c-32.667 0 -63.334 7.16699 -92.001 21.5s-50.334 36.5 -65.001 66.5h-2v-275h-21v542zM393.002 70c34 42.667 51 101.999 51 177.999c0 44.667 -7.33301 84.334 -22 119.001s-35.5 61.5 -62.5 80.5s-58.167 28.5 -93.5 28.5
c-30 0 -57.5 -8.33301 -82.5 -25s-45 -37 -60 -61s-22.5 -45.667 -22.5 -65v-173c0 -28.667 7.16699 -54.167 21.5 -76.5s33.333 -39.5 57 -51.5s49.167 -18 76.5 -18c57.333 0 103 21.333 137 64z" />
    <glyph glyph-name="q" unicode="q" horiz-adv-x="510" 
d="M409 80h-2.00098c-18 -30.667 -42.167 -53.5 -72.5 -68.5s-62.5 -22.5 -96.5 -22.5c-36.667 0 -70 10.167 -100 30.5s-53.667 50 -71 89s-26 85.5 -26 139.5c0 48.667 8.83301 91.5 26.5 128.5s41.834 65.667 72.501 86s65 30.5 103 30.5c35.333 0 68.333 -10.333 99 -31
s53 -46 67 -76h2l4 97h19c-2.66699 -48 -4 -94.333 -4 -139v-542h-21v278zM328.499 28c27 14.667 47.833 34.334 62.5 59.001c12 22 18 44.667 18 68v167c0 21.333 -7.5 44 -22.5 68s-35 44.333 -60 61s-51.833 25 -80.5 25c-35.333 0 -67 -9.5 -95 -28.5
s-49.667 -45.833 -65 -80.5s-23 -74.334 -23 -119.001c0 -50 7.83301 -93.333 23.5 -130s37 -64.5 64 -83.5s57.5 -28.5 91.5 -28.5c30.667 0 59.5 7.33301 86.5 22z" />
    <glyph glyph-name="r" unicode="r" horiz-adv-x="257" 
d="M80 345c0 20 -0.666992 48.667 -2 86c-1.33301 24 -2 41.333 -2 52h19l4 -113h2c12 34.667 30 63.834 54 87.501s49.333 35.5 76 35.5c5.33301 0 12 -0.666992 20 -2v-20c-8 1.33301 -15 2 -21 2c-23.333 0 -45.833 -10.5 -67.5 -31.5s-38.5 -50.167 -50.5 -87.5
c-4 -13.333 -6.83301 -26.833 -8.5 -40.5s-2.5 -30.834 -2.5 -51.501v-262h-21v345z" />
    <glyph glyph-name="s" unicode="s" horiz-adv-x="331" 
d="M88 -2.5c-18 5 -33.334 12.498 -46.001 22.498l8 16c10.667 -8.66699 24.834 -15.667 42.501 -21s34.834 -8 51.501 -8c38 0 68.333 10.667 91 32s34 49.333 34 84c0 30 -7.5 53.5 -22.5 70.5s-41.167 34.167 -78.5 51.5c-38 17.333 -66.333 35.833 -85 55.5
s-28 44.5 -28 74.5c0 37.333 11.5 66.333 34.5 87s54.833 31 95.5 31c35.333 0 64.333 -8 87 -24l-7 -16c-20 15.333 -47.333 23 -82 23c-31.333 0 -57 -8.16699 -77 -24.5s-30 -41.166 -30 -74.499c0 -26.667 8.16699 -48.167 24.5 -64.5s42.166 -33.166 77.499 -50.499
c40.667 -19.333 69.5 -38.5 86.5 -57.5s25.5 -45.833 25.5 -80.5c0 -40 -13.167 -72.333 -39.5 -97s-61.833 -37 -106.5 -37c-19.333 0 -38 2.5 -56 7.5z" />
    <glyph glyph-name="t" unicode="t" horiz-adv-x="254" 
d="M108 27.5c-12.667 25 -19.002 64.832 -19.002 119.499v319h-70v17h70v117l21 7v-124h119v-17h-119v-319c0 -47.333 4.83301 -82.333 14.5 -105s28.167 -34 55.5 -34c16 0 30 3.66699 42 11l5 -17c-5.33301 -3.33301 -12.666 -6.16602 -21.999 -8.49902
s-18.666 -3.5 -27.999 -3.5c-33.333 0 -56.333 12.5 -69 37.5z" />
    <glyph glyph-name="u" unicode="u" horiz-adv-x="494" 
d="M114 46.5c-25.333 37.667 -38 90.833 -38 159.5v277h21v-276c0 -70.667 12.667 -121.667 38 -153s59 -47 101 -47c37.333 0 69 12.333 95 37s43.667 53 53 85c4 13.333 6.5 25.5 7.5 36.5s1.5 27.833 1.5 50.5v267h21v-312c0 -60.667 1.33301 -117.667 4 -171h-19l-4 103
h-2c-36 -75.333 -89 -113 -159 -113c-54.667 0 -94.667 18.833 -120 56.5z" />
    <glyph glyph-name="v" unicode="v" horiz-adv-x="410" 
d="M13 483l23 -0.000976562l110 -297c24.667 -65.333 43.667 -117.666 57 -156.999h2l61 161l112 293h22l-187 -483h-19z" />
    <glyph glyph-name="w" unicode="w" horiz-adv-x="671" 
d="M22 483l22.001 -0.000976562l83 -288c20 -70 35 -125.333 45 -166h2c10 38 29.667 98.667 59 182l7 20l86 252h22l79 -252c22.667 -72 42.667 -140 60 -204h2c17.333 64 37.666 132 60.999 204l80 252h22l-155 -483h-20l-81 258l-59 197h-2l-4.5 -14l-5.5 -17
c-18.667 -59.333 -39 -120.666 -61 -183.999l-83 -240h-20z" />
    <glyph glyph-name="x" unicode="x" horiz-adv-x="388" 
d="M180 246l-161 236.999h25l86 -127l63 -95c6.66699 8.66699 22.667 31.334 48 68.001c6 10 12 19 18 27l86 127h25l-163 -237l167 -246h-25l-89 131l-66 100c-10 -12 -27.333 -36.333 -52 -73l-18 -27l-90 -131h-25z" />
    <glyph glyph-name="y" unicode="y" horiz-adv-x="405" 
d="M22 -202c41.333 13.333 75.666 37.168 102.999 71.501s51.333 77.833 72 130.5c2 5.33301 3 9.66602 3 12.999c0 2.66699 -1 6.33398 -3 11.001l-184 459h24l134 -337l41 -109h1l38 109l118 337h24l-124 -347c-31.333 -88.667 -57 -154.334 -77 -197.001
s-43 -76.667 -69 -102c-18.667 -17.333 -36.167 -30.5 -52.5 -39.5s-30.166 -14.833 -41.499 -17.5z" />
    <glyph glyph-name="z" unicode="z" horiz-adv-x="342" 
d="M15 11l203 325l80 128v2h-263v17h291v-12l-204 -327l-78 -125v-2h285v-17h-314v11z" />
    <glyph glyph-name="braceleft" unicode="{" horiz-adv-x="229" 
d="M118 -80c-17.333 21.333 -25.998 55.999 -25.998 103.999c0 22.667 3 50.334 9 83.001c5.33301 34.667 8 62 8 82c0 24 -5.33301 45.167 -16 63.5s-30.334 27.166 -59.001 26.499v17c29.333 0 49.166 8.33301 59.499 25s15.5 38.334 15.5 65.001c0 18 -2.66699 45 -8 81
c-6 33.333 -9 62.666 -9 87.999c0 44.667 8.66699 77.5 26 98.5s40.333 31.5 69 31.5h18v-16h-18c-24 0 -42.667 -9.16699 -56 -27.5s-20 -47.5 -20 -87.5c0 -17.333 2.66699 -44 8 -80c6 -33.333 9 -62.333 9 -87c0 -53.333 -18.333 -86.333 -55 -99v-2
c36.667 -12 55 -44.667 55 -98c0 -18 -2.66699 -44.333 -8 -79c-6 -33.333 -9 -61.666 -9 -84.999c0 -80 25.333 -120 76 -120h18v-16h-18c-28.667 0 -51.667 10.667 -69 32z" />
    <glyph glyph-name="bar" unicode="|" horiz-adv-x="190" 
d="M85 750h20v-1000h-20v1000z" />
    <glyph glyph-name="braceright" unicode="}" horiz-adv-x="229" 
d="M24 -96l17.998 -0.000976562c24 0 42.667 9.16699 56 27.5s20 47.5 20 87.5c0 17.333 -2.66699 44 -8 80c-6 33.333 -9 62.333 -9 87c0 53.333 18.333 86.333 55 99v2c-36.667 12 -55 44.667 -55 98c0 18 2.66699 44.333 8 79c6 33.333 9 61.666 9 84.999
c0 80 -25.333 120 -76 120h-18v16h18c28.667 0 51.667 -10.667 69 -32s26 -56 26 -104c0 -20 -2.66699 -47.333 -8 -82c-6 -32.667 -9 -60.334 -9 -83.001c0 -24 5.33301 -45.167 16 -63.5s30.334 -27.166 59.001 -26.499v-17c-29.333 0 -49.166 -8.16699 -59.499 -24.5
s-15.5 -38.166 -15.5 -65.499c0 -18 2.66699 -45 8 -81c6 -33.333 9 -62.666 9 -87.999c0 -44.667 -8.66699 -77.5 -26 -98.5s-40.333 -31.5 -69 -31.5h-18v16z" />
    <glyph glyph-name="asciitilde" unicode="~" horiz-adv-x="555" 
d="M74.5 310c19.667 18 44.832 27 75.499 27c22 0 43.333 -3.83301 64 -11.5s46.334 -18.834 77.001 -33.501c26.667 -13.333 49 -23.333 67 -30s35.333 -10 52 -10c25.333 0 45.333 7.5 60 22.5s21.667 39.167 21 72.5h18c0.666992 -39.333 -8.33301 -68.166 -27 -86.499
s-42.667 -27.5 -72 -27.5c-18 0 -36.833 3.5 -56.5 10.5s-43.5 17.5 -71.5 31.5c-32.667 15.333 -58.167 26.333 -76.5 33s-36.833 10 -55.5 10c-26 0 -47 -7.33301 -63 -22s-23.667 -36.667 -23 -66h-18c-0.666992 35.333 8.83301 62 28.5 80z" />
    <glyph glyph-name="nbspace" unicode="&#xa0;" horiz-adv-x="217" 
 />
    <glyph glyph-name="exclamdown" unicode="&#xa1;" horiz-adv-x="174" 
d="M69.5 446.5c-4.33301 5 -6.49805 11.167 -6.49805 18.5s2.16699 13.333 6.5 18s10.166 7 17.499 7s13.166 -2.33301 17.499 -7s6.5 -10.667 6.5 -18s-2.33301 -13.5 -7 -18.5s-10.334 -7.5 -17.001 -7.5c-7.33301 0 -13.166 2.5 -17.499 7.5zM80.002 307h15l7 -497h-29z
" />
    <glyph glyph-name="cent" unicode="&#xa2;" horiz-adv-x="444" 
d="M257 90c-60.667 2.66699 -107.169 26.001 -139.502 70.001s-48.5 99.333 -48.5 166c0 44.667 7.83301 85.167 23.5 121.5s37.834 65.5 66.501 87.5s61.334 34.667 98.001 38v99h18v-99c20 0 38.5 -2.5 55.5 -7.5s30.167 -10.5 39.5 -16.5l-8 -17
c-8.66699 6 -21.167 11.333 -37.5 16s-34.5 7 -54.5 7c-34 0 -64.667 -9.83301 -92 -29.5s-48.666 -46.834 -63.999 -81.501s-23 -74 -23 -118s7.5 -82.5 22.5 -115.5s36 -58.333 63 -76s57.833 -26.5 92.5 -26.5c19.333 0 37.5 2.66699 54.5 8s30.167 11.333 39.5 18l5 -17
c-8.66699 -6.66699 -21.334 -12.667 -38.001 -18s-35 -8.33301 -55 -9v-104h-18v104z" />
    <glyph glyph-name="sterling" unicode="&#xa3;" horiz-adv-x="444" 
d="M57 13c32.667 19.333 59.1689 49.001 79.502 89.001s30.5 80.667 30.5 122c0 26.667 -3 59.667 -9 99h-83v15h81c-4 21.333 -7.5 43.5 -10.5 66.5s-4.5 44.167 -4.5 63.5c0 59.333 14.833 106.333 44.5 141s68.167 52 115.5 52c30.667 0 56.667 -5 78 -15l-6 -17
c-20 9.33301 -43 14 -69 14c-42.667 0 -76.834 -15.667 -102.501 -47s-38.5 -74 -38.5 -128c0 -24.667 4 -60.334 12 -107.001l4 -23h148v-15h-146c6 -41.333 8.66699 -76 8 -104c-0.666992 -38 -9.83398 -75.5 -27.501 -112.5s-41.167 -66.167 -70.5 -87.5v-2h311v-17h-345
v13z" />
    <glyph glyph-name="currency" unicode="&#xa4;" horiz-adv-x="444" 
d="M16 126l77 77.001c-22.667 36 -34 78.333 -34 127c0 49.333 11.333 92 34 128l-77 77l13 14l74 -76c30 38.667 69.333 58 118 58c48 0 87 -19.333 117 -58l75 76l14 -14l-78 -77c22 -34 33 -75.333 33 -124c0 -52 -11 -95.667 -33 -131l78 -77l-14 -14l-75 75
c-15.333 -18.667 -33.166 -32.834 -53.499 -42.501s-41.833 -14.5 -64.5 -14.5c-20.667 0 -41.334 5 -62.001 15s-38.667 24.333 -54 43l-75 -76zM288.5 166.001c21.667 13.333 39.334 34.168 53.001 62.501s20.5 63.5 20.5 105.5c0 49.333 -12.333 91.833 -37 127.5
s-59.334 53.5 -104.001 53.5c-43.333 0 -77.833 -17.833 -103.5 -53.5s-38.5 -79.5 -38.5 -131.5c0 -40 7.16699 -73.833 21.5 -101.5s32.333 -48.334 54 -62.001s43.5 -20.5 65.5 -20.5c24 0 46.833 6.66699 68.5 20z" />
    <glyph glyph-name="yen" unicode="&#xa5;" horiz-adv-x="444" 
d="M205 201h-146v15h146v98h-146v15h140l-184 321h24l120 -212l57 -103h2c9.33301 18 29 52.333 59 103l127 212h24l-195 -321h140v-15h-146v-98h146v-15h-146v-201h-22v201z" />
    <glyph glyph-name="brokenbar" unicode="&#xa6;" horiz-adv-x="190" 
d="M85 675h20v-350h-20v350zM85 175h20v-350h-20v350z" />
    <glyph glyph-name="section" unicode="&#xa7;" horiz-adv-x="456" 
d="M142.5 -47c-23 8 -42.501 18 -58.501 30l7 17c14.667 -12 33.167 -22 55.5 -30s45.166 -12 68.499 -12c38 0 70.167 9.83301 96.5 29.5s39.5 47.5 39.5 83.5c0 24 -6.16699 44 -18.5 60s-27.666 29 -45.999 39s-43.166 21.333 -74.499 34c-5.33301 2 -19 7.66699 -41 17
c-35.333 16 -62.833 34.167 -82.5 54.5s-29.5 47.5 -29.5 81.5c0 20 5.83301 40.167 17.5 60.5s30.167 39.5 55.5 57.5c-26.667 23.333 -40 53 -40 89c0 35.333 14.167 64 42.5 86s64.166 33 107.499 33c22.667 0 44 -2.5 64 -7.5s36 -12.167 48 -21.5l-6 -16
c-12 8.66699 -27.5 15.5 -46.5 20.5s-39.167 7.5 -60.5 7.5c-38 0 -68.833 -9.16699 -92.5 -27.5s-35.5 -42.833 -35.5 -73.5c0 -24 6.16699 -44 18.5 -60s27.5 -28.667 45.5 -38s42.333 -20 73 -32l21 -8c40.667 -16 72 -34.333 94 -55s33 -50 33 -88
c0 -46.667 -21.667 -87.334 -65 -122.001c12.667 -10.667 22.334 -23.667 29.001 -39s10 -31.666 10 -48.999c0 -42 -15.167 -74.667 -45.5 -98s-67.833 -35 -112.5 -35c-24.667 0 -48.5 4 -71.5 12zM376.999 283c0 33.333 -9.66699 59.002 -29 77.002s-47 34.333 -83 49
c-6 2.66699 -15 6 -27 10c-23.333 9.33301 -41.833 17.166 -55.5 23.499s-26.167 13.833 -37.5 22.5c-22.667 -15.333 -39.167 -32.333 -49.5 -51s-15.5 -37.334 -15.5 -56.001c0 -28.667 8.83301 -52.167 26.5 -70.5s42.5 -34.833 74.5 -49.5
c9.33301 -4.66699 24 -11 44 -19c22 -8.66699 40.333 -16.5 55 -23.5s27.667 -14.833 39 -23.5c38.667 30 58 67 58 111z" />
    <glyph glyph-name="dieresis" unicode="&#xa8;" 
d="M57.5 591c-4.33301 4.66699 -6.5 10 -6.5 16c0 6.66699 2.16699 12.167 6.5 16.5s9.5 6.5 15.5 6.5c6.66699 0 12 -2.16699 16 -6.5s6 -9.83301 6 -16.5c0 -6 -2.16699 -11.333 -6.5 -16s-9.5 -7 -15.5 -7s-11.167 2.33301 -15.5 7zM210.5 591
c-4.33301 4.66699 -6.5 10 -6.5 16c0 6.66699 2.16699 12.167 6.5 16.5s9.5 6.5 15.5 6.5c6.66699 0 12 -2.16699 16 -6.5s6 -9.83301 6 -16.5c0 -6 -2.16699 -11.333 -6.5 -16s-9.5 -7 -15.5 -7s-11.167 2.33301 -15.5 7z" />
    <glyph glyph-name="copyright" unicode="&#xa9;" horiz-adv-x="677" 
d="M186.5 71.5c-46.333 27.667 -83.001 65.3311 -110.001 112.998s-40.5 99.5 -40.5 155.5s13.5 107.667 40.5 155s63.833 84.666 110.5 111.999s98 41 154 41c55.333 0 105.833 -13.833 151.5 -41.5s81.834 -65.167 108.501 -112.5s40 -98.666 40 -153.999
s-13.167 -106.666 -39.5 -153.999s-62.5 -85.166 -108.5 -113.499s-97 -42.5 -153 -42.5s-107.167 13.833 -153.5 41.5zM482.999 84.9971c43.333 26 77.5 61.5 102.5 106.5s37.5 94.5 37.5 148.5c0 53.333 -12.5 102.333 -37.5 147s-59.167 80 -102.5 106s-91 39 -143 39
c-52.667 0 -100.834 -13 -144.501 -39s-78.167 -61.333 -103.5 -106s-38 -93.667 -38 -147c0 -54 12.667 -103.5 38 -148.5s59.833 -80.5 103.5 -106.5s91.834 -39 144.501 -39c52 0 99.667 13 143 39zM231.999 203.497c-30 33.667 -45.001 77.167 -45.001 130.5
c0 38 8 71 24 99s37.5 49.5 64.5 64.5s56.5 22.5 88.5 22.5c20.667 0 39 -2.66699 55 -8s27.667 -11.333 35 -18l-5 -16c-6.66699 6.66699 -17.667 12.5 -33 17.5s-32.666 7.5 -51.999 7.5c-46 0 -83.5 -15.167 -112.5 -45.5s-43.5 -71.5 -43.5 -123.5
c0 -49.333 13 -89 39 -119s62.667 -45 110 -45c40 0 72.333 9.66699 97 29l5 -15c-26.667 -20.667 -61 -31 -103 -31c-52.667 0 -94 16.833 -124 50.5z" />
    <glyph glyph-name="ordfeminine" unicode="&#xaa;" horiz-adv-x="308" 
d="M63.5 283.5c-18.333 16.333 -27.499 36.5 -27.499 60.5c0 33.333 17.5 59.833 52.5 79.5s83.167 29.5 144.5 29.5h7v11c0 32.667 -6.16699 59.5 -18.5 80.5s-35.5 31.5 -69.5 31.5c-14 0 -28.5 -2 -43.5 -6s-27.5 -10.333 -37.5 -19l-5 13
c11.333 8 25.166 14.5 41.499 19.5s31.833 7.5 46.5 7.5c69.333 0 104 -43.667 104 -131v-119c0 -22 2 -47 6 -75h-18l-4 51h-2c-11.333 -16.667 -25.833 -30.5 -43.5 -41.5s-38.5 -16.5 -62.5 -16.5c-28.667 0 -52.167 8.16699 -70.5 24.5zM188.001 287
c16 8.66699 28.668 19.5 38.001 32.5s14 25.167 14 36.5v82h-3c-58.667 0 -103.834 -8 -135.501 -24s-47.5 -39.333 -47.5 -70c0 -20.667 7.5 -37.5 22.5 -50.5s34.833 -19.5 59.5 -19.5c18.667 0 36 4.33301 52 13z" />
    <glyph glyph-name="guillemetleft" unicode="&#xab;" horiz-adv-x="357" 
d="M29 252l133 182h23l-135 -182l135 -182h-23zM178 252l133 182h23l-135 -182l135 -182h-23z" />
    <glyph glyph-name="logicalnot" unicode="&#xac;" horiz-adv-x="555" 
d="M490 358h-445v18h465v-250h-20v232z" />
    <glyph glyph-name="softhyphen" unicode="&#xad;" horiz-adv-x="251" 
d="M30 285h191v-19h-191v19z" />
    <glyph glyph-name="registered" unicode="&#xae;" horiz-adv-x="510" 
d="M148 266c-33.333 20 -59.667 47 -79 81s-29 71 -29 111s9.83301 76.833 29.5 110.5s46 60.5 79 80.5s69.167 30 108.5 30c38.667 0 74.5 -10 107.5 -30s59 -47 78 -81s28.5 -70.667 28.5 -110c0 -40 -9.5 -77 -28.5 -111s-45 -61 -78 -81s-69.167 -30 -108.5 -30
c-38.667 0 -74.667 10 -108 30zM355.499 279c30.333 18.667 54.332 43.832 71.999 75.499s26.5 66.167 26.5 103.5c0 36.667 -8.66699 70.834 -26 102.501s-41.166 56.834 -71.499 75.501s-63.5 28 -99.5 28c-36.667 0 -70.167 -9.16699 -100.5 -27.5
s-54.5 -43.333 -72.5 -75s-27 -66.167 -27 -103.5s8.83301 -71.833 26.5 -103.5s41.667 -56.834 72 -75.501s63.833 -28 100.5 -28c36 0 69.167 9.33301 99.5 28zM185.998 576.998c24 4.66699 44.002 7 60.002 7c58.667 0 88 -22.333 88 -67c0 -32 -17.333 -53.333 -52 -64
v-2c16 -2 27.833 -11.833 35.5 -29.5s14.167 -39.834 19.5 -66.501c2 -14.667 4.33301 -24 7 -28h-19c-3.33301 10.667 -6 21.334 -8 32.001l-3.5 18c-1.66699 8.66699 -3.83398 16 -6.50098 22c-4.66699 14.667 -11.834 26 -21.501 34s-25.167 12 -46.5 12h-36v-118h-17
v250zM239 457.998c22.667 0 41.333 4.83301 56 14.5s22 24.5 22 44.5c0 36 -24 54 -72 54c-14.667 0 -28.667 -1.33301 -42 -4v-109h36z" />
    <glyph glyph-name="macron" unicode="&#xaf;" 
d="M58 611h185v-17h-185v17z" />
    <glyph glyph-name="degree" unicode="&#xb0;" horiz-adv-x="275" 
d="M59.5 487c-20.333 22 -30.501 48.666 -30.501 79.999c0 33.333 10.667 61.333 32 84s48.333 34 81 34c34 0 61 -11.167 81 -33.5s30 -49.166 30 -80.499c0 -34 -11.167 -62 -33.5 -84s-48.833 -33 -79.5 -33c-33.333 0 -60.166 11 -80.499 33zM207.499 496.999
c19 19.333 28.5 43.999 28.5 73.999c0 26.667 -8.5 50 -25.5 70s-39.833 30 -68.5 30c-28 0 -51 -10 -69 -30s-27 -44.667 -27 -74c0 -27.333 8.66699 -50.666 26 -69.999s40 -29 68 -29c26 0 48.5 9.66699 67.5 29z" />
    <glyph glyph-name="plusminus" unicode="&#xb1;" horiz-adv-x="555" 
d="M268 336h-222v18h222v213h20v-213h222v-18h-222v-221h-20v221zM45 18h465v-18h-465v18z" />
    <glyph glyph-name="twosuperior" unicode="&#xb2;" horiz-adv-x="286" 
d="M31 445l62.002 67.001c84.667 89.333 127 160.666 127 213.999c0 26 -6.83301 47 -20.5 63s-35.5 24 -65.5 24c-14.667 0 -29.334 -3 -44.001 -9s-27.334 -13.667 -38.001 -23l-7 12c28 24 59.333 36 94 36s60.167 -9.66699 76.5 -29s24.5 -43.333 24.5 -72
c0 -31.333 -11.833 -65.5 -35.5 -102.5s-56.167 -77.5 -97.5 -121.5l-48 -52v-2h183v-16h-211v11z" />
    <glyph glyph-name="threesuperior" unicode="&#xb3;" horiz-adv-x="291" 
d="M28 452l5.99805 15c8.66699 -6.66699 20.334 -12.167 35.001 -16.5s30 -6.5 46 -6.5c34.667 0 62.167 9 82.5 27s30.5 42.333 30.5 73c0 27.333 -10.833 49.833 -32.5 67.5s-49.5 26.5 -83.5 26.5h-19v15h19c25.333 0 48.333 8.66699 69 26s31 38 31 62
c0 20.667 -7 37.834 -21 51.501s-33.333 20.5 -58 20.5c-16.667 0 -32.5 -2.5 -47.5 -7.5s-27.167 -11.167 -36.5 -18.5l-5 14c27.333 18.667 58 28 92 28c30.667 0 54.334 -8.5 71.001 -25.5s25 -37.167 25 -60.5c0 -22 -7.33301 -41.667 -22 -59s-34.667 -29.333 -60 -36
v-2c28 -4 51.333 -15.333 70 -34s28 -41.334 28 -68.001c0 -33.333 -11.5 -61 -34.5 -83s-55.833 -33 -98.5 -33c-32 0 -61 8 -87 24z" />
    <glyph glyph-name="acute" unicode="&#xb4;" 
d="M216 686h36l-113 -136h-16z" />
    <glyph glyph-name="micro" unicode="&#xb5;" horiz-adv-x="496" 
d="M82.5 -119.5c-1.66699 33.667 -2.50488 67.167 -2.50488 100.5v502h21v-343c0 -24 6.5 -46.167 19.5 -66.5s30.167 -36.333 51.5 -48s43.333 -17.5 66 -17.5c27.333 0 53 7 77 21s43.333 30.5 58 49.5s22 34.833 22 47.5v357h21v-338c0 -42.667 1.33301 -73.667 4 -93
s6.83398 -31.666 12.501 -36.999s14.834 -8.33301 27.501 -9l-3 -16c-2 -0.666992 -5.66699 -1 -11 -1c-16.667 0 -28.667 7.66699 -36 23s-11.666 38.666 -12.999 69.999h-2c-15.333 -24.667 -36.666 -46 -63.999 -64s-58.666 -27 -93.999 -27
c-29.333 0 -56.833 8.16699 -82.5 24.5s-43.5 36.166 -53.5 59.499v-93c0 -86 3.33301 -146 10 -180h-20c-4 18.667 -6.83301 44.834 -8.5 78.501z" />
    <glyph glyph-name="paragraph" unicode="&#xb6;" horiz-adv-x="448" 
d="M245 266c-36 0 -70.167 7.50098 -102.5 22.501s-58.5 38.333 -78.5 70s-30 70.5 -30 116.5c0 59.333 19.5 107.666 58.5 144.999s103.5 56 193.5 56c32 0 55.333 -2 70 -6v-720h-20v704h-71v-704h-20v316z" />
    <glyph glyph-name="periodcentered" unicode="&#xb7;" horiz-adv-x="228" 
d="M96.5 315c-4.33301 4.66699 -6.50195 10.667 -6.50195 18s2.33301 13.5 7 18.5s10.334 7.5 17.001 7.5c7.33301 0 13.166 -2.5 17.499 -7.5s6.5 -11.167 6.5 -18.5s-2.16699 -13.333 -6.5 -18s-10.166 -7 -17.499 -7s-13.166 2.33301 -17.499 7z" />
    <glyph glyph-name="cedilla" unicode="&#xb8;" 
d="M110 -187c-10.667 3.33301 -19.334 7.66602 -26.001 12.999l6 16c13.333 -11.333 31 -17 53 -17c14.667 0 27.334 3.66699 38.001 11s16 19 16 35c0 18 -7.5 31.167 -22.5 39.5s-33.833 12.833 -56.5 13.5l45 78h18l-39 -66
c20.667 -1.33301 38.167 -7.66602 52.5 -18.999s21.5 -26.666 21.5 -45.999c0 -20.667 -7.16699 -36.334 -21.5 -47.001s-31.5 -16 -51.5 -16c-11.333 0 -22.333 1.66699 -33 5z" />
    <glyph glyph-name="onesuperior" unicode="&#xb9;" horiz-adv-x="233" 
d="M122 804h-2l-69 -39l-4 16l79 43h15v-390h-19v370z" />
    <glyph glyph-name="ordmasculine" unicode="&#xba;" horiz-adv-x="310" 
d="M58 305.5c-24.667 29.667 -37.001 69.167 -37.001 118.5c0 52 12.833 92.833 38.5 122.5s57.834 44.5 96.501 44.5c40 0 72.167 -14.833 96.5 -44.5s36.5 -68.834 36.5 -117.501c0 -37.333 -6.5 -68.666 -19.5 -93.999s-30 -44 -51 -56s-43.167 -18 -66.5 -18
c-38 0 -69.333 14.833 -94 44.5zM235.999 315c23.333 26 34.999 64 34.999 114c0 44 -10.333 79.5 -31 106.5s-48.667 40.5 -84 40.5s-63.666 -13.5 -84.999 -40.5s-32 -64.167 -32 -111.5c0 -46 10.5 -82.167 31.5 -108.5s48.167 -39.5 81.5 -39.5
c32.667 0 60.667 13 84 39z" />
    <glyph glyph-name="guillemetright" unicode="&#xbb;" horiz-adv-x="357" 
d="M158 252l-135 182h23l133 -182l-133 -182h-23zM307 252l-135 182h23l133 -182l-133 -182h-23z" />
    <glyph glyph-name="onequarter" unicode="&#xbc;" horiz-adv-x="714" 
d="M506 661h19l-379 -672h-19zM129 636h-2l-69 -39l-4 16l79 43h15v-390h-19v370zM574 118h-183v14l178 259h24v-257h50v-16h-50v-118h-19v118zM574 134v143v90h-2l-25 -37l-30 -44l-102 -150l1 -2h158z" />
    <glyph glyph-name="onehalf" unicode="&#xbd;" horiz-adv-x="714" 
d="M486 661h19l-379 -672h-19zM129 636h-2l-69 -39l-4 16l79 43h15v-390h-19v370zM434 11l62.002 67.001c84.667 89.333 127 160.666 127 213.999c0 26 -6.83301 47 -20.5 63s-35.5 24 -65.5 24c-14.667 0 -29.334 -3 -44.001 -9s-27.334 -13.667 -38.001 -23l-7 12
c28 24 59.333 36 94 36s60.167 -9.66699 76.5 -29s24.5 -43.333 24.5 -72c0 -31.333 -11.833 -65.5 -35.5 -102.5s-56.167 -77.5 -97.5 -121.5l-48 -52v-2h183v-16h-211v11z" />
    <glyph glyph-name="threequarters" unicode="&#xbe;" horiz-adv-x="714" 
d="M56 284l5.99805 15c8.66699 -6.66699 20.334 -12.167 35.001 -16.5s30 -6.5 46 -6.5c34 0 61.333 9.5 82 28.5s31 42.833 31 71.5c0 27.333 -10.833 49.833 -32.5 67.5s-49.5 26.5 -83.5 26.5h-19v15h19c25.333 0 48.333 8.66699 69 26s31 38 31 62
c0 20.667 -7 37.834 -21 51.501s-33.333 20.5 -58 20.5c-16.667 0 -32.5 -2.5 -47.5 -7.5s-27.167 -11.167 -36.5 -18.5l-5 14c27.333 18.667 58 28 92 28c30.667 0 54.334 -8.5 71.001 -25.5s25 -37.167 25 -60.5c0 -22 -7.33301 -41.667 -22 -59s-34.667 -29.333 -60 -36
v-2c28 -4 51.333 -15.333 70 -34s28 -41.334 28 -68.001c0 -33.333 -11.5 -61 -34.5 -83s-55.833 -33 -98.5 -33c-32 0 -61 8 -87 24zM550.998 661h19l-379 -672h-19zM588.998 118h-183v14l178 259h24v-257h50v-16h-50v-118h-19v118zM588.998 134v143v90h-2l-25 -37l-30 -44
l-102 -150l1 -2h158z" />
    <glyph glyph-name="questiondown" unicode="&#xbf;" horiz-adv-x="335" 
d="M195.5 446.5c-4.33301 5 -6.49805 11.167 -6.49805 18.5s2.16699 13.333 6.5 18s10.166 7 17.499 7s13.166 -2.33301 17.499 -7s6.5 -10.667 6.5 -18s-2.33301 -13.5 -7 -18.5s-10.334 -7.5 -17.001 -7.5c-7.33301 0 -13.166 2.5 -17.499 7.5zM100.502 -163.5
c-23 25.667 -34.501 57.834 -34.501 96.501c0 30.667 7.66699 61 23 91s36 61.333 62 94c20.667 25.333 35.167 48.166 43.5 68.499s12.5 44.833 12.5 73.5c0 20 -1.66699 36.667 -5 50h22c3.33301 -13.333 5 -31.666 5 -54.999c0 -28 -4.66699 -53 -14 -75
s-24.333 -45.667 -45 -71c-24.667 -30.667 -44.334 -60.334 -59.001 -89.001s-22 -57.334 -22 -86.001c0 -34 9.83301 -62.167 29.5 -84.5s47.5 -33.5 83.5 -33.5c16.667 0 33.334 2.83301 50.001 8.5s31 13.834 43 24.501l10 -14c-12.667 -11.333 -28.667 -20.333 -48 -27
s-38.666 -10 -57.999 -10c-42.667 0 -75.5 12.833 -98.5 38.5z" />
    <glyph glyph-name="Agrave" unicode="&#xc0;" horiz-adv-x="551" 
d="M264 674h26l231 -674h-23l-81 239h-281l-81 -239h-22zM410 257l-75.001 223c-4 10.667 -6.66699 18.667 -8 24l-49 146h-2c-7.33301 -24 -14.166 -45 -20.499 -63l-15.5 -45l-21 -62l-76 -223h267zM167.999 825h41l99 -115h-17z" />
    <glyph glyph-name="Aacute" unicode="&#xc1;" horiz-adv-x="551" 
d="M264 674h26l231 -674h-23l-81 239h-281l-81 -239h-22zM410 257l-75.001 223c-4 10.667 -6.66699 18.667 -8 24l-49 146h-2c-7.33301 -24 -14.166 -45 -20.499 -63l-15.5 -45l-21 -62l-76 -223h267zM351.999 825h41l-122 -115h-18z" />
    <glyph glyph-name="Acircumflex" unicode="&#xc2;" horiz-adv-x="551" 
d="M264 674h26l231 -674h-23l-81 239h-281l-81 -239h-22zM410 257l-75.001 223c-4 10.667 -6.66699 18.667 -8 24l-49 146h-2c-7.33301 -24 -14.166 -45 -20.499 -63l-15.5 -45l-21 -62l-76 -223h267zM261.999 821h30l92 -111h-20l-86 92h-2l-85 -92h-20z" />
    <glyph glyph-name="Atilde" unicode="&#xc3;" horiz-adv-x="551" 
d="M264 674h26l231 -674h-23l-81 239h-281l-81 -239h-22zM410 257l-75.001 223c-4 10.667 -6.66699 18.667 -8 24l-49 146h-2c-7.33301 -24 -14.166 -45 -20.499 -63l-15.5 -45l-21 -62l-76 -223h267zM186.499 775.5c9.66699 14.333 22.834 21.501 39.501 21.501
c12 0 22.667 -2.83301 32 -8.5s20 -13.834 32 -24.501c10 -8.66699 18.167 -15 24.5 -19s13.166 -6 20.499 -6c10 0 17.5 4.16699 22.5 12.5s8.16699 24.5 9.5 48.5h16c-0.666992 -29.333 -5.16699 -49.833 -13.5 -61.5s-19.833 -17.5 -34.5 -17.5
c-10.667 0 -20.167 2.5 -28.5 7.5s-17.833 12.5 -28.5 22.5c-11.333 10 -20.5 17.167 -27.5 21.5s-15.167 6.5 -24.5 6.5c-12 0 -21.333 -5.33301 -28 -16s-9.66699 -25.667 -9 -45h-16c-0.666992 24 3.83301 43.167 13.5 57.5z" />
    <glyph glyph-name="Adieresis" unicode="&#xc4;" horiz-adv-x="551" 
d="M264 674h26l231 -674h-23l-81 239h-281l-81 -239h-22zM410 257l-75.001 223c-4 10.667 -6.66699 18.667 -8 24l-49 146h-2c-7.33301 -24 -14.166 -45 -20.499 -63l-15.5 -45l-21 -62l-76 -223h267zM183.999 736.5c-4 4.33301 -6 9.83301 -6 16.5s2.16699 12 6.5 16
s9.5 6 15.5 6c6.66699 0 12 -2 16 -6s6 -9.33301 6 -16s-2 -12.167 -6 -16.5s-9.33301 -6.5 -16 -6.5s-12 2.16699 -16 6.5zM337.999 736.5c-4 4.33301 -6 9.83301 -6 16.5s2.16699 12 6.5 16s9.5 6 15.5 6c6.66699 0 12 -2 16 -6s6 -9.33301 6 -16s-2 -12.167 -6 -16.5
s-9.33301 -6.5 -16 -6.5s-12 2.16699 -16 6.5z" />
    <glyph glyph-name="Aring" unicode="&#xc5;" horiz-adv-x="551" 
d="M264 674h26l231 -674h-23l-81 239h-281l-81 -239h-22zM410 257l-75.001 223c-4 10.667 -6.66699 18.667 -8 24l-49 146h-2c-7.33301 -24 -14.166 -45 -20.499 -63l-15.5 -45l-21 -62l-76 -223h267zM214.499 719c-17 14.667 -25.501 33.333 -25.501 56
c0 24 8.33301 43.333 25 58s38.334 22 65.001 22c24.667 0 45.167 -7.33301 61.5 -22s24.5 -33.667 24.5 -57s-8.5 -42.333 -25.5 -57s-37.5 -22 -61.5 -22c-25.333 0 -46.5 7.33301 -63.5 22zM326.498 729.999c13 11.333 19.5 26.668 19.5 46.001
s-6.33301 34.666 -19 45.999s-28.667 17 -48 17c-21.333 0 -38.5 -5.66699 -51.5 -17s-19.5 -27 -19.5 -47c0 -18.667 6.66699 -33.667 20 -45s30 -17 50 -17c19.333 0 35.5 5.66699 48.5 17z" />
    <glyph glyph-name="AE" unicode="&#xc6;" horiz-adv-x="707" 
d="M315 674h334v-18h-299l43 -296h247v-18h-245l49 -324h231v-18h-249l-39 266h-242l-123 -266h-22zM384 284l-38 262l-16 112h-2l-54 -116l-120 -258h230z" />
    <glyph glyph-name="Ccedilla" unicode="&#xc7;" horiz-adv-x="521" 
d="M272 -187c-10.667 3.33301 -19.333 7.66699 -26 13l6 16c13.333 -11.333 31 -17 53 -17c14.667 0 27.334 3.66699 38.001 11s16 19 16 35c0 18 -7.5 31.167 -22.5 39.5s-33.833 12.833 -56.5 13.5l39 67c-86.667 4.66699 -155.167 36.334 -205.5 95.001
s-75.5 140.334 -75.5 245.001c0 69.333 13 130.666 39 183.999s62.833 94.833 110.5 124.5s103.5 44.5 167.5 44.5c46 0 89.667 -9 131 -27l-6 -18c-39.333 18 -81 27 -125 27c-59.333 0 -111.166 -13.833 -155.499 -41.5s-78.5 -66.834 -102.5 -117.501
s-36 -109.334 -36 -176.001c0 -103.333 25.167 -183 75.5 -239s119.166 -84 206.499 -84c26.667 0 52.5 2.66699 77.5 8s45.5 11.333 61.5 18l4 -18c-16.667 -7.33301 -37.834 -13.5 -63.501 -18.5s-54.5 -7.5 -86.5 -7.5l-32 -54
c20.667 -1.33301 38.167 -7.66602 52.5 -18.999s21.5 -26.666 21.5 -45.999c0 -20.667 -7.16699 -36.334 -21.5 -47.001s-31.5 -16 -51.5 -16c-11.333 0 -22.333 1.66699 -33 5z" />
    <glyph glyph-name="Egrave" unicode="&#xc8;" horiz-adv-x="427" 
d="M84 674h293v-18h-272v-291h257v-18h-257v-329h287v-18h-308v674zM147 825h41l99 -115h-17z" />
    <glyph glyph-name="Eacute" unicode="&#xc9;" horiz-adv-x="427" 
d="M84 674h293v-18h-272v-291h257v-18h-257v-329h287v-18h-308v674zM302 825h41l-122 -115h-18z" />
    <glyph glyph-name="Ecircumflex" unicode="&#xca;" horiz-adv-x="427" 
d="M84 674h293v-18h-272v-291h257v-18h-257v-329h287v-18h-308v674zM224 821h30l92 -111h-20l-86 92h-2l-85 -92h-20z" />
    <glyph glyph-name="Edieresis" unicode="&#xcb;" horiz-adv-x="427" 
d="M84 674h293v-18h-272v-291h257v-18h-257v-329h287v-18h-308v674zM147 736.5c-4 4.33301 -6 9.83301 -6 16.5s2.16699 12 6.5 16s9.5 6 15.5 6c6.66699 0 12 -2 16 -6s6 -9.33301 6 -16s-2 -12.167 -6 -16.5s-9.33301 -6.5 -16 -6.5s-12 2.16699 -16 6.5zM301 736.5
c-4 4.33301 -6 9.83301 -6 16.5s2.16699 12 6.5 16s9.5 6 15.5 6c6.66699 0 12 -2 16 -6s6 -9.33301 6 -16s-2 -12.167 -6 -16.5s-9.33301 -6.5 -16 -6.5s-12 2.16699 -16 6.5z" />
    <glyph glyph-name="Igrave" unicode="&#xcc;" horiz-adv-x="189" 
d="M84 674h21v-674h-21v674zM-21 825h41l99 -115h-17z" />
    <glyph glyph-name="Iacute" unicode="&#xcd;" horiz-adv-x="189" 
d="M84 674h21v-674h-21v674zM169 825h41l-122 -115h-18z" />
    <glyph glyph-name="Icircumflex" unicode="&#xce;" horiz-adv-x="189" 
d="M84 674h21v-674h-21v674zM79 821h30l92 -111h-20l-86 92h-2l-85 -92h-20z" />
    <glyph glyph-name="Idieresis" unicode="&#xcf;" horiz-adv-x="189" 
d="M84 674h21v-674h-21v674zM2 736.5c-4 4.33301 -6 9.83301 -6 16.5s2.16699 12 6.5 16s9.5 6 15.5 6c6.66699 0 12 -2 16 -6s6 -9.33301 6 -16s-2 -12.167 -6 -16.5s-9.33301 -6.5 -16 -6.5s-12 2.16699 -16 6.5zM156 736.5c-4 4.33301 -6 9.83301 -6 16.5
s2.16699 12 6.5 16s9.5 6 15.5 6c6.66699 0 12 -2 16 -6s6 -9.33301 6 -16s-2 -12.167 -6 -16.5s-9.33301 -6.5 -16 -6.5s-12 2.16699 -16 6.5z" />
    <glyph glyph-name="Eth" unicode="&#xd0;" horiz-adv-x="611" 
d="M94 2v345.999h-73v17h73v299c62.667 10 112.334 15 149.001 15c101.333 0 181.5 -27.167 240.5 -81.5s88.5 -135.5 88.5 -243.5c0 -117.333 -30.833 -206.666 -92.5 -267.999s-148.834 -92 -261.501 -92c-50 0 -91.333 2.66699 -124 8zM463.5 98.999
c57 58 85.501 142.667 85.501 254c0 101.333 -27.333 178 -82 230s-129.334 78 -224.001 78c-43.333 0 -86 -4 -128 -12v-284h182v-17h-182v-331c24 -3.33301 59 -5 105 -5c105.333 0 186.5 29 243.5 87z" />
    <glyph glyph-name="Ntilde" unicode="&#xd1;" horiz-adv-x="605" 
d="M84 674l25 -0.000976562l221 -360l170 -280h2c-1.33301 42.667 -2 106.334 -2 191.001v128v321h21v-674h-23l-219 355l-74 121l-52 86l-48 80h-2c1.33301 -70.667 2 -177.667 2 -321v-321h-21v674zM226.5 775.499c9.66699 14.333 22.834 21.501 39.501 21.501
c12 0 22.667 -2.83301 32 -8.5s20 -13.834 32 -24.501c10 -8.66699 18.167 -15 24.5 -19s13.166 -6 20.499 -6c10 0 17.5 4.16699 22.5 12.5s8.16699 24.5 9.5 48.5h16c-0.666992 -29.333 -5.16699 -49.833 -13.5 -61.5s-19.833 -17.5 -34.5 -17.5
c-10.667 0 -20.167 2.5 -28.5 7.5s-17.833 12.5 -28.5 22.5c-11.333 10 -20.5 17.167 -27.5 21.5s-15.167 6.5 -24.5 6.5c-12 0 -21.333 -5.33301 -28 -16s-9.66699 -25.667 -9 -45h-16c-0.666992 24 3.83301 43.167 13.5 57.5z" />
    <glyph glyph-name="Ograve" unicode="&#xd2;" horiz-adv-x="623" 
d="M170 32c-40.667 28.667 -72.833 69.001 -96.5 121.001s-35.5 111.333 -35.5 178c0 69.333 12.333 131 37 185s58.167 95.667 100.5 125s89.166 44 140.499 44c52.667 0 99.334 -14.5 140.001 -43.5s72.334 -69.333 95.001 -121s34 -110.5 34 -176.5
c0 -74.667 -12.5 -138.834 -37.5 -192.501s-58.667 -94.167 -101 -121.5s-88.833 -41 -139.5 -41s-96.334 14.333 -137.001 43zM437.001 47.001c38.667 26.667 69.166 65.334 91.499 116.001s33.5 110.667 33.5 180c0 61.333 -10.333 116.666 -31 165.999
s-49.667 88 -87 116s-80 42 -128 42s-91.333 -14.167 -130 -42.5s-69.167 -68 -91.5 -119s-33.5 -109.167 -33.5 -174.5c0 -62 10.667 -117.667 32 -167s50.833 -87.833 88.5 -115.5s79.834 -41.5 126.501 -41.5c47.333 0 90.333 13.333 129 40zM232 825.001h41l99 -115h-17
z" />
    <glyph glyph-name="Oacute" unicode="&#xd3;" horiz-adv-x="623" 
d="M170 32c-40.667 28.667 -72.833 69.001 -96.5 121.001s-35.5 111.333 -35.5 178c0 69.333 12.333 131 37 185s58.167 95.667 100.5 125s89.166 44 140.499 44c52.667 0 99.334 -14.5 140.001 -43.5s72.334 -69.333 95.001 -121s34 -110.5 34 -176.5
c0 -74.667 -12.5 -138.834 -37.5 -192.501s-58.667 -94.167 -101 -121.5s-88.833 -41 -139.5 -41s-96.334 14.333 -137.001 43zM437.001 47.001c38.667 26.667 69.166 65.334 91.499 116.001s33.5 110.667 33.5 180c0 61.333 -10.333 116.666 -31 165.999
s-49.667 88 -87 116s-80 42 -128 42s-91.333 -14.167 -130 -42.5s-69.167 -68 -91.5 -119s-33.5 -109.167 -33.5 -174.5c0 -62 10.667 -117.667 32 -167s50.833 -87.833 88.5 -115.5s79.834 -41.5 126.501 -41.5c47.333 0 90.333 13.333 129 40zM392 825.001h41l-122 -115
h-18z" />
    <glyph glyph-name="Ocircumflex" unicode="&#xd4;" horiz-adv-x="623" 
d="M170 32c-40.667 28.667 -72.833 69.001 -96.5 121.001s-35.5 111.333 -35.5 178c0 69.333 12.333 131 37 185s58.167 95.667 100.5 125s89.166 44 140.499 44c52.667 0 99.334 -14.5 140.001 -43.5s72.334 -69.333 95.001 -121s34 -110.5 34 -176.5
c0 -74.667 -12.5 -138.834 -37.5 -192.501s-58.667 -94.167 -101 -121.5s-88.833 -41 -139.5 -41s-96.334 14.333 -137.001 43zM437.001 47.001c38.667 26.667 69.166 65.334 91.499 116.001s33.5 110.667 33.5 180c0 61.333 -10.333 116.666 -31 165.999
s-49.667 88 -87 116s-80 42 -128 42s-91.333 -14.167 -130 -42.5s-69.167 -68 -91.5 -119s-33.5 -109.167 -33.5 -174.5c0 -62 10.667 -117.667 32 -167s50.833 -87.833 88.5 -115.5s79.834 -41.5 126.501 -41.5c47.333 0 90.333 13.333 129 40zM309 821.001h30l92 -111h-20
l-86 92h-2l-85 -92h-20z" />
    <glyph glyph-name="Otilde" unicode="&#xd5;" horiz-adv-x="623" 
d="M170 32c-40.667 28.667 -72.833 69.001 -96.5 121.001s-35.5 111.333 -35.5 178c0 69.333 12.333 131 37 185s58.167 95.667 100.5 125s89.166 44 140.499 44c52.667 0 99.334 -14.5 140.001 -43.5s72.334 -69.333 95.001 -121s34 -110.5 34 -176.5
c0 -74.667 -12.5 -138.834 -37.5 -192.501s-58.667 -94.167 -101 -121.5s-88.833 -41 -139.5 -41s-96.334 14.333 -137.001 43zM437.001 47.001c38.667 26.667 69.166 65.334 91.499 116.001s33.5 110.667 33.5 180c0 61.333 -10.333 116.666 -31 165.999
s-49.667 88 -87 116s-80 42 -128 42s-91.333 -14.167 -130 -42.5s-69.167 -68 -91.5 -119s-33.5 -109.167 -33.5 -174.5c0 -62 10.667 -117.667 32 -167s50.833 -87.833 88.5 -115.5s79.834 -41.5 126.501 -41.5c47.333 0 90.333 13.333 129 40zM230.5 775.501
c9.66699 14.333 22.834 21.501 39.501 21.501c12 0 22.667 -2.83301 32 -8.5s20 -13.834 32 -24.501c10 -8.66699 18.167 -15 24.5 -19s13.166 -6 20.499 -6c10 0 17.5 4.16699 22.5 12.5s8.16699 24.5 9.5 48.5h16c-0.666992 -29.333 -5.16699 -49.833 -13.5 -61.5
s-19.833 -17.5 -34.5 -17.5c-10.667 0 -20.167 2.5 -28.5 7.5s-17.833 12.5 -28.5 22.5c-11.333 10 -20.5 17.167 -27.5 21.5s-15.167 6.5 -24.5 6.5c-12 0 -21.333 -5.33301 -28 -16s-9.66699 -25.667 -9 -45h-16c-0.666992 24 3.83301 43.167 13.5 57.5z" />
    <glyph glyph-name="Odieresis" unicode="&#xd6;" horiz-adv-x="623" 
d="M170 32c-40.667 28.667 -72.833 69.001 -96.5 121.001s-35.5 111.333 -35.5 178c0 69.333 12.333 131 37 185s58.167 95.667 100.5 125s89.166 44 140.499 44c52.667 0 99.334 -14.5 140.001 -43.5s72.334 -69.333 95.001 -121s34 -110.5 34 -176.5
c0 -74.667 -12.5 -138.834 -37.5 -192.501s-58.667 -94.167 -101 -121.5s-88.833 -41 -139.5 -41s-96.334 14.333 -137.001 43zM437.001 47.001c38.667 26.667 69.166 65.334 91.499 116.001s33.5 110.667 33.5 180c0 61.333 -10.333 116.666 -31 165.999
s-49.667 88 -87 116s-80 42 -128 42s-91.333 -14.167 -130 -42.5s-69.167 -68 -91.5 -119s-33.5 -109.167 -33.5 -174.5c0 -62 10.667 -117.667 32 -167s50.833 -87.833 88.5 -115.5s79.834 -41.5 126.501 -41.5c47.333 0 90.333 13.333 129 40zM228 736.501
c-4 4.33301 -6 9.83301 -6 16.5s2.16699 12 6.5 16s9.5 6 15.5 6c6.66699 0 12 -2 16 -6s6 -9.33301 6 -16s-2 -12.167 -6 -16.5s-9.33301 -6.5 -16 -6.5s-12 2.16699 -16 6.5zM382 736.501c-4 4.33301 -6 9.83301 -6 16.5s2.16699 12 6.5 16s9.5 6 15.5 6
c6.66699 0 12 -2 16 -6s6 -9.33301 6 -16s-2 -12.167 -6 -16.5s-9.33301 -6.5 -16 -6.5s-12 2.16699 -16 6.5z" />
    <glyph glyph-name="multiply" unicode="&#xd7;" horiz-adv-x="555" 
d="M50 45l214 219l-214 219l14 14l214 -219l214 219l14 -14l-215 -219l215 -219l-14 -13l-214 218l-214 -218z" />
    <glyph glyph-name="Oslash" unicode="&#xd8;" horiz-adv-x="623" 
d="M48 -17l68.999 97.999c-25.333 30.667 -44.833 67.334 -58.5 110.001s-20.5 89.334 -20.5 140.001c0 69.333 12.333 131 37 185s58.167 95.667 100.5 125s89.166 44 140.499 44c34 0 65.833 -6.33301 95.5 -19s55.834 -30.667 78.501 -54l64 89l15 -10l-66 -93
c26 -30 46.167 -66.833 60.5 -110.5s21.5 -91.5 21.5 -143.5c0 -74.667 -12.5 -138.834 -37.5 -192.501s-58.667 -94.167 -101 -121.5s-88.833 -41 -139.5 -41c-34.667 0 -67.167 6.83301 -97.5 20.5s-57.166 33.167 -80.499 58.5l-67 -95zM477.999 593.999
c-21.333 23.333 -45.833 41.332 -73.5 53.999s-57.167 19 -88.5 19c-48 0 -91.333 -14.167 -130 -42.5s-69.167 -68 -91.5 -119s-33.5 -109.167 -33.5 -174.5c0 -46 6 -88.667 18 -128s29 -73.666 51 -102.999zM436.999 46.998c38.667 26.667 69.168 65.334 91.501 116.001
s33.5 110.667 33.5 180c0 47.333 -6.33301 91.333 -19 132s-30.334 75.667 -53.001 105l-349 -495c22 -24.667 47.167 -43.834 75.5 -57.501s58.833 -20.5 91.5 -20.5c47.333 0 90.333 13.333 129 40z" />
    <glyph glyph-name="Ugrave" unicode="&#xd9;" horiz-adv-x="587" 
d="M139 57.5c-38 45.667 -57 116.5 -57 212.5v404h21v-403c0 -90 17 -156.333 51 -199s78.333 -64 133 -64c58.667 0 106.167 22 142.5 66s54.5 111 54.5 201v399h21v-399c0 -96 -20.167 -167.667 -60.5 -215s-92.833 -71 -157.5 -71c-60.667 0 -110 22.833 -148 68.5z
M195 825h41l99 -115h-17z" />
    <glyph glyph-name="Uacute" unicode="&#xda;" horiz-adv-x="587" 
d="M139 57.5c-38 45.667 -57 116.5 -57 212.5v404h21v-403c0 -90 17 -156.333 51 -199s78.333 -64 133 -64c58.667 0 106.167 22 142.5 66s54.5 111 54.5 201v399h21v-399c0 -96 -20.167 -167.667 -60.5 -215s-92.833 -71 -157.5 -71c-60.667 0 -110 22.833 -148 68.5z
M370 825h41l-122 -115h-18z" />
    <glyph glyph-name="Ucircumflex" unicode="&#xdb;" horiz-adv-x="587" 
d="M139 57.5c-38 45.667 -57 116.5 -57 212.5v404h21v-403c0 -90 17 -156.333 51 -199s78.333 -64 133 -64c58.667 0 106.167 22 142.5 66s54.5 111 54.5 201v399h21v-399c0 -96 -20.167 -167.667 -60.5 -215s-92.833 -71 -157.5 -71c-60.667 0 -110 22.833 -148 68.5z
M278 821h30l92 -111h-20l-86 92h-2l-85 -92h-20z" />
    <glyph glyph-name="Udieresis" unicode="&#xdc;" horiz-adv-x="587" 
d="M139 57.5c-38 45.667 -57 116.5 -57 212.5v404h21v-403c0 -90 17 -156.333 51 -199s78.333 -64 133 -64c58.667 0 106.167 22 142.5 66s54.5 111 54.5 201v399h21v-399c0 -96 -20.167 -167.667 -60.5 -215s-92.833 -71 -157.5 -71c-60.667 0 -110 22.833 -148 68.5z
M201 736.5c-4 4.33301 -6 9.83301 -6 16.5s2.16699 12 6.5 16s9.5 6 15.5 6c6.66699 0 12 -2 16 -6s6 -9.33301 6 -16s-2 -12.167 -6 -16.5s-9.33301 -6.5 -16 -6.5s-12 2.16699 -16 6.5zM355 736.5c-4 4.33301 -6 9.83301 -6 16.5s2.16699 12 6.5 16s9.5 6 15.5 6
c6.66699 0 12 -2 16 -6s6 -9.33301 6 -16s-2 -12.167 -6 -16.5s-9.33301 -6.5 -16 -6.5s-12 2.16699 -16 6.5z" />
    <glyph glyph-name="Yacute" unicode="&#xdd;" horiz-adv-x="466" 
d="M223 305l-210 369h25l107 -189l88 -161h2c12.667 24.667 33 61.667 61 111l16 27.5l13 22.5l108 189h25l-214 -369v-305h-21v305zM312 825h41l-122 -115h-18z" />
    <glyph glyph-name="Thorn" unicode="&#xde;" horiz-adv-x="471" 
d="M84 674h21v-155c31.333 4.66699 61.333 7 90 7c67.333 0 122.833 -13.333 166.5 -40s65.5 -67 65.5 -121c0 -60 -23 -106.333 -69 -139s-107 -49 -183 -49c-28.667 0 -52 1.33301 -70 4v-181h-21v674zM343 239c42 29.333 63.001 70.999 63.001 124.999
c0 48.667 -19.833 84.834 -59.5 108.501s-90.5 35.5 -152.5 35.5c-18.667 0 -48.334 -2.33301 -89.001 -7v-302c14 -2.66699 37.333 -4 70 -4c70 0 126 14.667 168 44z" />
    <glyph glyph-name="germandbls" unicode="&#xdf;" horiz-adv-x="471" 
d="M209 9l6 18.001c10 -6.66699 21.5 -12 34.5 -16s25.833 -6 38.5 -6c36 0 65 12.5 87 37.5s33 56.833 33 95.5c0 24 -4.5 45.333 -13.5 64s-22.167 38.667 -39.5 60c-8 10 -16.667 19.667 -26 29c-18 20 -31.5 37 -40.5 51s-13.5 29.333 -13.5 46
c0 20.667 6.5 38.167 19.5 52.5s32.5 27.166 58.5 38.499c12.667 19.333 19 46.666 19 81.999c0 44.667 -11 79.5 -33 104.5s-50.333 37.5 -85 37.5c-56 0 -95.5 -21.833 -118.5 -65.5s-34.5 -104.5 -34.5 -182.5v-455h-21v455c0 176.667 58.333 265 175 265
c39.333 0 72 -13.833 98 -41.5s39 -66.5 39 -116.5c0 -20.667 -2.33301 -39.5 -7 -56.5s-10.334 -29.833 -17.001 -38.5c-23.333 -9.33301 -41 -20 -53 -32s-18 -27.333 -18 -46c0 -14 3.83301 -26.833 11.5 -38.5s20.167 -27.167 37.5 -46.5c14 -15.333 26.333 -30 37 -44
c15.333 -21.333 27 -41 35 -59s12 -38 12 -60c0 -45.333 -13 -82.166 -39 -110.499s-60.333 -42.5 -103 -42.5c-31.333 0 -57.666 7 -78.999 21z" />
    <glyph glyph-name="agrave" unicode="&#xe0;" horiz-adv-x="423" 
d="M71.5 24.5c-25 24.333 -37.5 54.835 -37.5 91.502c0 53.333 25.5 94.666 76.5 123.999s122.5 44 214.5 44v13c0 118.667 -42.333 178 -127 178c-20 0 -40.5 -3.33301 -61.5 -10s-38.833 -15.667 -53.5 -27l-7 17c15.333 11.333 34.333 20.333 57 27s44.667 10 66 10
c55.333 0 93.5 -18.333 114.5 -55s31.5 -84 31.5 -142v-137c0 -30 0.666992 -61.833 2 -95.5s3 -54.834 5 -63.501h-20c-2.66699 19.333 -4 47.333 -4 84h-3c-38 -63.333 -89.333 -95 -154 -95c-41.333 0 -74.5 12.167 -99.5 36.5zM306 83.002
c8 11.333 13.167 23.833 15.5 37.5s3.5 32.167 3.5 55.5v91c-84.667 0 -150.667 -12.833 -198 -38.5s-71 -62.5 -71 -110.5c0 -34.667 11 -62.167 33 -82.5s50 -30.5 84 -30.5c52.667 0 97 26 133 78zM106 686.002h36l93 -136h-16z" />
    <glyph glyph-name="aacute" unicode="&#xe1;" horiz-adv-x="423" 
d="M71.5 24.5c-25 24.333 -37.5 54.835 -37.5 91.502c0 53.333 25.5 94.666 76.5 123.999s122.5 44 214.5 44v13c0 118.667 -42.333 178 -127 178c-20 0 -40.5 -3.33301 -61.5 -10s-38.833 -15.667 -53.5 -27l-7 17c15.333 11.333 34.333 20.333 57 27s44.667 10 66 10
c55.333 0 93.5 -18.333 114.5 -55s31.5 -84 31.5 -142v-137c0 -30 0.666992 -61.833 2 -95.5s3 -54.834 5 -63.501h-20c-2.66699 19.333 -4 47.333 -4 84h-3c-38 -63.333 -89.333 -95 -154 -95c-41.333 0 -74.5 12.167 -99.5 36.5zM306 83.002
c8 11.333 13.167 23.833 15.5 37.5s3.5 32.167 3.5 55.5v91c-84.667 0 -150.667 -12.833 -198 -38.5s-71 -62.5 -71 -110.5c0 -34.667 11 -62.167 33 -82.5s50 -30.5 84 -30.5c52.667 0 97 26 133 78zM286 686.002h36l-113 -136h-16z" />
    <glyph glyph-name="acircumflex" unicode="&#xe2;" horiz-adv-x="423" 
d="M71.5 24.5c-25 24.333 -37.5 54.835 -37.5 91.502c0 53.333 25.5 94.666 76.5 123.999s122.5 44 214.5 44v13c0 118.667 -42.333 178 -127 178c-20 0 -40.5 -3.33301 -61.5 -10s-38.833 -15.667 -53.5 -27l-7 17c15.333 11.333 34.333 20.333 57 27s44.667 10 66 10
c55.333 0 93.5 -18.333 114.5 -55s31.5 -84 31.5 -142v-137c0 -30 0.666992 -61.833 2 -95.5s3 -54.834 5 -63.501h-20c-2.66699 19.333 -4 47.333 -4 84h-3c-38 -63.333 -89.333 -95 -154 -95c-41.333 0 -74.5 12.167 -99.5 36.5zM306 83.002
c8 11.333 13.167 23.833 15.5 37.5s3.5 32.167 3.5 55.5v91c-84.667 0 -150.667 -12.833 -198 -38.5s-71 -62.5 -71 -110.5c0 -34.667 11 -62.167 33 -82.5s50 -30.5 84 -30.5c52.667 0 97 26 133 78zM193 681.002h28l91 -131h-20l-84 112h-2l-85 -112h-19z" />
    <glyph glyph-name="atilde" unicode="&#xe3;" horiz-adv-x="423" 
d="M71.5 24.5c-25 24.333 -37.5 54.835 -37.5 91.502c0 53.333 25.5 94.666 76.5 123.999s122.5 44 214.5 44v13c0 118.667 -42.333 178 -127 178c-20 0 -40.5 -3.33301 -61.5 -10s-38.833 -15.667 -53.5 -27l-7 17c15.333 11.333 34.333 20.333 57 27s44.667 10 66 10
c55.333 0 93.5 -18.333 114.5 -55s31.5 -84 31.5 -142v-137c0 -30 0.666992 -61.833 2 -95.5s3 -54.834 5 -63.501h-20c-2.66699 19.333 -4 47.333 -4 84h-3c-38 -63.333 -89.333 -95 -154 -95c-41.333 0 -74.5 12.167 -99.5 36.5zM306 83.002
c8 11.333 13.167 23.833 15.5 37.5s3.5 32.167 3.5 55.5v91c-84.667 0 -150.667 -12.833 -198 -38.5s-71 -62.5 -71 -110.5c0 -34.667 11 -62.167 33 -82.5s50 -30.5 84 -30.5c52.667 0 97 26 133 78zM116.5 625.502c9.66699 14.333 22.834 21.501 39.501 21.501
c12 0 22.667 -2.83301 32 -8.5s20 -13.834 32 -24.501c10 -8.66699 18.167 -15 24.5 -19s13.166 -6 20.499 -6c10 0 17.5 4.16699 22.5 12.5s8.16699 24.5 9.5 48.5h16c-0.666992 -29.333 -5.16699 -49.833 -13.5 -61.5s-19.833 -17.5 -34.5 -17.5
c-10.667 0 -20.167 2.5 -28.5 7.5s-17.833 12.5 -28.5 22.5c-11.333 10 -20.5 17.167 -27.5 21.5s-15.167 6.5 -24.5 6.5c-12 0 -21.333 -5.33301 -28 -16s-9.66699 -25.667 -9 -45h-16c-0.666992 24 3.83301 43.167 13.5 57.5z" />
    <glyph glyph-name="adieresis" unicode="&#xe4;" horiz-adv-x="423" 
d="M71.5 24.5c-25 24.333 -37.5 54.835 -37.5 91.502c0 53.333 25.5 94.666 76.5 123.999s122.5 44 214.5 44v13c0 118.667 -42.333 178 -127 178c-20 0 -40.5 -3.33301 -61.5 -10s-38.833 -15.667 -53.5 -27l-7 17c15.333 11.333 34.333 20.333 57 27s44.667 10 66 10
c55.333 0 93.5 -18.333 114.5 -55s31.5 -84 31.5 -142v-137c0 -30 0.666992 -61.833 2 -95.5s3 -54.834 5 -63.501h-20c-2.66699 19.333 -4 47.333 -4 84h-3c-38 -63.333 -89.333 -95 -154 -95c-41.333 0 -74.5 12.167 -99.5 36.5zM306 83.002
c8 11.333 13.167 23.833 15.5 37.5s3.5 32.167 3.5 55.5v91c-84.667 0 -150.667 -12.833 -198 -38.5s-71 -62.5 -71 -110.5c0 -34.667 11 -62.167 33 -82.5s50 -30.5 84 -30.5c52.667 0 97 26 133 78zM115.5 591.002c-4.33301 4.66699 -6.5 10 -6.5 16
c0 6.66699 2.16699 12.167 6.5 16.5s9.5 6.5 15.5 6.5c6.66699 0 12 -2.16699 16 -6.5s6 -9.83301 6 -16.5c0 -6 -2.16699 -11.333 -6.5 -16s-9.5 -7 -15.5 -7s-11.167 2.33301 -15.5 7zM268.5 591.002c-4.33301 4.66699 -6.5 10 -6.5 16c0 6.66699 2.16699 12.167 6.5 16.5
s9.5 6.5 15.5 6.5c6.66699 0 12 -2.16699 16 -6.5s6 -9.83301 6 -16.5c0 -6 -2.16699 -11.333 -6.5 -16s-9.5 -7 -15.5 -7s-11.167 2.33301 -15.5 7z" />
    <glyph glyph-name="aring" unicode="&#xe5;" horiz-adv-x="423" 
d="M71.5 24.5c-25 24.333 -37.5 54.835 -37.5 91.502c0 53.333 25.5 94.666 76.5 123.999s122.5 44 214.5 44v13c0 118.667 -42.333 178 -127 178c-20 0 -40.5 -3.33301 -61.5 -10s-38.833 -15.667 -53.5 -27l-7 17c15.333 11.333 34.333 20.333 57 27s44.667 10 66 10
c55.333 0 93.5 -18.333 114.5 -55s31.5 -84 31.5 -142v-137c0 -30 0.666992 -61.833 2 -95.5s3 -54.834 5 -63.501h-20c-2.66699 19.333 -4 47.333 -4 84h-3c-38 -63.333 -89.333 -95 -154 -95c-41.333 0 -74.5 12.167 -99.5 36.5zM306 83.002
c8 11.333 13.167 23.833 15.5 37.5s3.5 32.167 3.5 55.5v91c-84.667 0 -150.667 -12.833 -198 -38.5s-71 -62.5 -71 -110.5c0 -34.667 11 -62.167 33 -82.5s50 -30.5 84 -30.5c52.667 0 97 26 133 78zM146 557.502c-16.667 15 -25 34.501 -25 58.501
c0 25.333 8 45.666 24 60.999s37.667 23 65 23c24.667 0 45 -7.66699 61 -23s24 -35.333 24 -60c0 -24 -8.33301 -43.667 -25 -59s-37 -23 -61 -23c-25.333 0 -46.333 7.5 -63 22.5zM257 569.003c12.667 12 18.999 28 18.999 48s-6.16699 36.167 -18.5 48.5
s-28.166 18.5 -47.499 18.5c-21.333 0 -38.333 -6.16699 -51 -18.5s-19 -28.833 -19 -49.5c0 -19.333 6.5 -35 19.5 -47s29.5 -18 49.5 -18c19.333 0 35.333 6 48 18z" />
    <glyph glyph-name="ae" unicode="&#xe6;" horiz-adv-x="697" 
d="M70.5 23c-24.333 22.667 -36.5 52.666 -36.5 89.999c0 52.667 22.167 93 66.5 121s108.166 42 191.499 42h31v23c0 62.667 -12 108 -36 136s-55 42 -93 42c-21.333 0 -42.5 -3.83301 -63.5 -11.5s-39.5 -18.167 -55.5 -31.5l-7 17c38 28.667 80 43 126 43
c37.333 0 68.5 -10.5 93.5 -31.5s40.833 -53.833 47.5 -98.5h2c10 44 29.333 76.667 58 98s62.667 32 102 32c50.667 0 90 -19.5 118 -58.5s42 -87.833 42 -146.5c0 -7.33301 -0.666992 -17 -2 -29h-312v-41c0 -49.333 8 -90 24 -122s36.5 -55.167 61.5 -69.5
s51.5 -21.5 79.5 -21.5c24 0 46.5 3.16699 67.5 9.5s38.833 13.5 53.5 21.5l5 -17c-15.333 -8.66699 -34.166 -16 -56.499 -22s-45.5 -9 -69.5 -9c-40.667 0 -77.5 12.333 -110.5 37s-53.833 60.334 -62.5 107.001h-2c-11.333 -46 -32.333 -81.5 -63 -106.5
s-65.334 -37.5 -104.001 -37.5c-39.333 0 -71.166 11.333 -95.499 34zM635 275.999c0.666992 4 1 9.00098 1 15.001c0 55.333 -12.333 100.166 -37 134.499s-59.667 51.5 -105 51.5c-48 0 -85.167 -17.667 -111.5 -53s-39.5 -79 -39.5 -131v-17h292zM243.5 28.5
c23.667 15 42.832 37.333 57.499 67s22 64.834 22 105.501v59h-32c-76.667 0 -135 -12.333 -175 -37s-60 -61 -60 -109c0 -32.667 10.667 -58.834 32 -78.501s48 -29.5 80 -29.5c26.667 0 51.834 7.5 75.501 22.5z" />
    <glyph glyph-name="ccedilla" unicode="&#xe7;" horiz-adv-x="394" 
d="M191 -187c-10.667 3.33301 -19.3369 7.66699 -26.0039 13l6 16c13.333 -11.333 31 -17 53 -17c14.667 0 27.334 3.66699 38.001 11s16 19 16 35c0 18 -7.5 31.167 -22.5 39.5s-33.833 12.833 -56.5 13.5l39 67c-60 4.66699 -107.833 28.834 -143.5 72.501
s-53.5 101.167 -53.5 172.5c0 50 9.5 94.5 28.5 133.5s45.833 69.333 80.5 91s74.334 32.5 119.001 32.5c20.667 0 39.167 -2.5 55.5 -7.5s29.5 -10.833 39.5 -17.5l-8 -17c-9.33301 6.66699 -21.5 12.5 -36.5 17.5s-31.833 7.5 -50.5 7.5
c-40.667 0 -76.667 -10.167 -108 -30.5s-55.5 -48.5 -72.5 -84.5s-25.5 -77.333 -25.5 -124s8.16699 -87.334 24.5 -122.001s39.333 -61.334 69 -80.001s63.834 -28 102.501 -28c19.333 0 37.833 2.83301 55.5 8.5s31.5 12.167 41.5 19.5l5 -17
c-11.333 -7.33301 -26.166 -13.833 -44.499 -19.5s-38.833 -8.5 -61.5 -8.5l-32 -54c20.667 -1.33301 38.167 -7.66602 52.5 -18.999s21.5 -26.666 21.5 -45.999c0 -20.667 -7.16699 -36.334 -21.5 -47.001s-31.5 -16 -51.5 -16c-11.333 0 -22.333 1.66699 -33 5z" />
    <glyph glyph-name="egrave" unicode="&#xe8;" horiz-adv-x="455" 
d="M97 58c-37.333 45.333 -56.001 109.333 -56.001 192c0 42.667 8.5 82.667 25.5 120s40.667 67.166 71 89.499s64.833 33.5 103.5 33.5c42.667 0 77 -10.667 103 -32s44.333 -47.166 55 -77.499s16 -60.5 16 -90.5c0 -19.333 -0.666992 -33.333 -2 -42h-350
c0 -74 16.167 -133.167 48.5 -177.5s78.833 -66.5 139.5 -66.5c50.667 0 95.334 9.66699 134.001 29l4 -16c-40 -20 -86.333 -30 -139 -30c-64.667 0 -115.667 22.667 -153 68zM393.999 268c0.666992 5.33301 1.00098 15.668 1.00098 31.001
c-0.666992 26.667 -5.83398 53.5 -15.501 80.5s-26 49.833 -49 68.5s-53.167 28 -90.5 28c-32 0 -61 -9.16699 -87 -27.5s-46.833 -43.333 -62.5 -75s-24.5 -66.834 -26.5 -105.501h330zM158 686.002h36l93 -136h-16z" />
    <glyph glyph-name="eacute" unicode="&#xe9;" horiz-adv-x="455" 
d="M97 58c-37.333 45.333 -56.001 109.333 -56.001 192c0 42.667 8.5 82.667 25.5 120s40.667 67.166 71 89.499s64.833 33.5 103.5 33.5c42.667 0 77 -10.667 103 -32s44.333 -47.166 55 -77.499s16 -60.5 16 -90.5c0 -19.333 -0.666992 -33.333 -2 -42h-350
c0 -74 16.167 -133.167 48.5 -177.5s78.833 -66.5 139.5 -66.5c50.667 0 95.334 9.66699 134.001 29l4 -16c-40 -20 -86.333 -30 -139 -30c-64.667 0 -115.667 22.667 -153 68zM393.999 268c0.666992 5.33301 1.00098 15.668 1.00098 31.001
c-0.666992 26.667 -5.83398 53.5 -15.501 80.5s-26 49.833 -49 68.5s-53.167 28 -90.5 28c-32 0 -61 -9.16699 -87 -27.5s-46.833 -43.333 -62.5 -75s-24.5 -66.834 -26.5 -105.501h330zM318 686.002h36l-113 -136h-16z" />
    <glyph glyph-name="ecircumflex" unicode="&#xea;" horiz-adv-x="455" 
d="M97 58c-37.333 45.333 -56.001 109.333 -56.001 192c0 42.667 8.5 82.667 25.5 120s40.667 67.166 71 89.499s64.833 33.5 103.5 33.5c42.667 0 77 -10.667 103 -32s44.333 -47.166 55 -77.499s16 -60.5 16 -90.5c0 -19.333 -0.666992 -33.333 -2 -42h-350
c0 -74 16.167 -133.167 48.5 -177.5s78.833 -66.5 139.5 -66.5c50.667 0 95.334 9.66699 134.001 29l4 -16c-40 -20 -86.333 -30 -139 -30c-64.667 0 -115.667 22.667 -153 68zM393.999 268c0.666992 5.33301 1.00098 15.668 1.00098 31.001
c-0.666992 26.667 -5.83398 53.5 -15.501 80.5s-26 49.833 -49 68.5s-53.167 28 -90.5 28c-32 0 -61 -9.16699 -87 -27.5s-46.833 -43.333 -62.5 -75s-24.5 -66.834 -26.5 -105.501h330zM234 681.002h28l91 -131h-20l-84 112h-2l-85 -112h-19z" />
    <glyph glyph-name="edieresis" unicode="&#xeb;" horiz-adv-x="455" 
d="M97 58c-37.333 45.333 -56.001 109.333 -56.001 192c0 42.667 8.5 82.667 25.5 120s40.667 67.166 71 89.499s64.833 33.5 103.5 33.5c42.667 0 77 -10.667 103 -32s44.333 -47.166 55 -77.499s16 -60.5 16 -90.5c0 -19.333 -0.666992 -33.333 -2 -42h-350
c0 -74 16.167 -133.167 48.5 -177.5s78.833 -66.5 139.5 -66.5c50.667 0 95.334 9.66699 134.001 29l4 -16c-40 -20 -86.333 -30 -139 -30c-64.667 0 -115.667 22.667 -153 68zM393.999 268c0.666992 5.33301 1.00098 15.668 1.00098 31.001
c-0.666992 26.667 -5.83398 53.5 -15.501 80.5s-26 49.833 -49 68.5s-53.167 28 -90.5 28c-32 0 -61 -9.16699 -87 -27.5s-46.833 -43.333 -62.5 -75s-24.5 -66.834 -26.5 -105.501h330zM155.5 591.002c-4.33301 4.66699 -6.5 10 -6.5 16c0 6.66699 2.16699 12.167 6.5 16.5
s9.5 6.5 15.5 6.5c6.66699 0 12 -2.16699 16 -6.5s6 -9.83301 6 -16.5c0 -6 -2.16699 -11.333 -6.5 -16s-9.5 -7 -15.5 -7s-11.167 2.33301 -15.5 7zM308.5 591.002c-4.33301 4.66699 -6.5 10 -6.5 16c0 6.66699 2.16699 12.167 6.5 16.5s9.5 6.5 15.5 6.5
c6.66699 0 12 -2.16699 16 -6.5s6 -9.83301 6 -16.5c0 -6 -2.16699 -11.333 -6.5 -16s-9.5 -7 -15.5 -7s-11.167 2.33301 -15.5 7z" />
    <glyph glyph-name="igrave" unicode="&#xec;" horiz-adv-x="181" 
d="M80 483h21v-483h-21v483zM-18 686h36l93 -136h-16z" />
    <glyph glyph-name="iacute" unicode="&#xed;" horiz-adv-x="181" 
d="M80 483h21v-483h-21v483zM164 686h36l-113 -136h-16z" />
    <glyph glyph-name="icircumflex" unicode="&#xee;" horiz-adv-x="181" 
d="M80 483h21v-483h-21v483zM76 681h28l91 -131h-20l-84 112h-2l-85 -112h-19z" />
    <glyph glyph-name="idieresis" unicode="&#xef;" horiz-adv-x="181" 
d="M80 483h21v-483h-21v483zM-1.5 591c-4.33301 4.66699 -6.5 10 -6.5 16c0 6.66699 2.16699 12.167 6.5 16.5s9.5 6.5 15.5 6.5c6.66699 0 12 -2.16699 16 -6.5s6 -9.83301 6 -16.5c0 -6 -2.16699 -11.333 -6.5 -16s-9.5 -7 -15.5 -7s-11.167 2.33301 -15.5 7zM151.5 591
c-4.33301 4.66699 -6.5 10 -6.5 16c0 6.66699 2.16699 12.167 6.5 16.5s9.5 6.5 15.5 6.5c6.66699 0 12 -2.16699 16 -6.5s6 -9.83301 6 -16.5c0 -6 -2.16699 -11.333 -6.5 -16s-9.5 -7 -15.5 -7s-11.167 2.33301 -15.5 7z" />
    <glyph glyph-name="eth" unicode="&#xf0;" horiz-adv-x="476" 
d="M138 19.5c-30 20.333 -53.665 49.335 -70.998 87.002s-26 81.5 -26 131.5s9 94 27 132s42.5 67.167 73.5 87.5s65.167 30.5 102.5 30.5c31.333 0 60.166 -8.16699 86.499 -24.5s47.166 -38.833 62.499 -67.5l2 1c-28 77.333 -76 146 -144 206l-134 -64l-7 14l128 61
c-36.667 31.333 -79.334 60 -128.001 86l10 14c54 -30 99.667 -60.333 137 -91l114 55l7 -14l-109 -52c110.667 -98.667 166 -220.334 166 -365.001c0 -56.667 -9.33301 -104.334 -28 -143.001s-43.167 -67.5 -73.5 -86.5s-62.166 -28.5 -95.499 -28.5
c-36.667 0 -70 10.167 -100 30.5zM323.002 32.502c26.667 17.667 48.332 44.5 64.999 80.5s25 80 25 132c0 44 -7 83 -21 117s-33.667 60.667 -59 80s-55 29 -89 29c-33.333 0 -63.833 -9.5 -91.5 -28.5s-49.5 -46 -65.5 -81s-24 -76.167 -24 -123.5
c0 -46 7.66699 -86.5 23 -121.5s36.333 -62.167 63 -81.5s56.334 -29 89.001 -29c30 0 58.333 8.83301 85 26.5z" />
    <glyph glyph-name="ntilde" unicode="&#xf1;" horiz-adv-x="496" 
d="M80 312c0 60.667 -1.33594 117.668 -4.00293 171.001h19l4 -103h2c36 75.333 89.333 113 160 113c54.667 0 94.834 -18.833 120.501 -56.5s38.5 -90.834 38.5 -159.501v-277h-21v276c0 70.667 -12.833 121.667 -38.5 153s-59.5 47 -101.5 47
c-37.333 0 -69.166 -12.5 -95.499 -37.5s-44.166 -53.167 -53.499 -84.5c-4 -13.333 -6.5 -25.5 -7.5 -36.5s-1.5 -27.833 -1.5 -50.5v-267h-21v312zM161.497 625.501c9.66699 14.333 22.834 21.501 39.501 21.501c12 0 22.667 -2.83301 32 -8.5s20 -13.834 32 -24.501
c10 -8.66699 18.167 -15 24.5 -19s13.166 -6 20.499 -6c10 0 17.5 4.16699 22.5 12.5s8.16699 24.5 9.5 48.5h16c-0.666992 -29.333 -5.16699 -49.833 -13.5 -61.5s-19.833 -17.5 -34.5 -17.5c-10.667 0 -20.167 2.5 -28.5 7.5s-17.833 12.5 -28.5 22.5
c-11.333 10 -20.5 17.167 -27.5 21.5s-15.167 6.5 -24.5 6.5c-12 0 -21.333 -5.33301 -28 -16s-9.66699 -25.667 -9 -45h-16c-0.666992 24 3.83301 43.167 13.5 57.5z" />
    <glyph glyph-name="ograve" unicode="&#xf2;" horiz-adv-x="487" 
d="M139 19.5c-30 20.333 -53.8311 49.334 -71.498 87.001s-26.5 81.5 -26.5 131.5c0 52.667 9.16699 98.167 27.5 136.5s43.166 67.666 74.499 87.999s65.666 30.5 102.999 30.5c38.667 0 73.167 -10.333 103.5 -31s54 -49.667 71 -87s25.5 -80.333 25.5 -129
c0 -57.333 -10 -105.333 -30 -144s-45.667 -67.167 -77 -85.5s-64.333 -27.5 -99 -27.5c-37.333 0 -71 10.167 -101 30.5zM330.002 32.501c27.333 17.667 49.833 44.667 67.5 81s26.5 80.5 26.5 132.5c0 44 -7.33301 83.5 -22 118.5s-35.5 62.333 -62.5 82
s-58.167 29.5 -93.5 29.5c-34.667 0 -65.834 -9.66699 -93.501 -29s-49.5 -47 -65.5 -83s-24 -78 -24 -126c0 -46 7.83301 -86.667 23.5 -122s37.334 -62.5 65.001 -81.5s58.5 -28.5 92.5 -28.5c30 0 58.667 8.83301 86 26.5zM164.002 686.001h36l93 -136h-16z" />
    <glyph glyph-name="oacute" unicode="&#xf3;" horiz-adv-x="487" 
d="M139 19.5c-30 20.333 -53.8311 49.334 -71.498 87.001s-26.5 81.5 -26.5 131.5c0 52.667 9.16699 98.167 27.5 136.5s43.166 67.666 74.499 87.999s65.666 30.5 102.999 30.5c38.667 0 73.167 -10.333 103.5 -31s54 -49.667 71 -87s25.5 -80.333 25.5 -129
c0 -57.333 -10 -105.333 -30 -144s-45.667 -67.167 -77 -85.5s-64.333 -27.5 -99 -27.5c-37.333 0 -71 10.167 -101 30.5zM330.002 32.501c27.333 17.667 49.833 44.667 67.5 81s26.5 80.5 26.5 132.5c0 44 -7.33301 83.5 -22 118.5s-35.5 62.333 -62.5 82
s-58.167 29.5 -93.5 29.5c-34.667 0 -65.834 -9.66699 -93.501 -29s-49.5 -47 -65.5 -83s-24 -78 -24 -126c0 -46 7.83301 -86.667 23.5 -122s37.334 -62.5 65.001 -81.5s58.5 -28.5 92.5 -28.5c30 0 58.667 8.83301 86 26.5zM320.002 686.001h36l-113 -136h-16z" />
    <glyph glyph-name="ocircumflex" unicode="&#xf4;" horiz-adv-x="487" 
d="M139 19.5c-30 20.333 -53.8311 49.334 -71.498 87.001s-26.5 81.5 -26.5 131.5c0 52.667 9.16699 98.167 27.5 136.5s43.166 67.666 74.499 87.999s65.666 30.5 102.999 30.5c38.667 0 73.167 -10.333 103.5 -31s54 -49.667 71 -87s25.5 -80.333 25.5 -129
c0 -57.333 -10 -105.333 -30 -144s-45.667 -67.167 -77 -85.5s-64.333 -27.5 -99 -27.5c-37.333 0 -71 10.167 -101 30.5zM330.002 32.501c27.333 17.667 49.833 44.667 67.5 81s26.5 80.5 26.5 132.5c0 44 -7.33301 83.5 -22 118.5s-35.5 62.333 -62.5 82
s-58.167 29.5 -93.5 29.5c-34.667 0 -65.834 -9.66699 -93.501 -29s-49.5 -47 -65.5 -83s-24 -78 -24 -126c0 -46 7.83301 -86.667 23.5 -122s37.334 -62.5 65.001 -81.5s58.5 -28.5 92.5 -28.5c30 0 58.667 8.83301 86 26.5zM238.002 681.001h28l91 -131h-20l-84 112h-2
l-85 -112h-19z" />
    <glyph glyph-name="otilde" unicode="&#xf5;" horiz-adv-x="487" 
d="M139 19.5c-30 20.333 -53.8311 49.334 -71.498 87.001s-26.5 81.5 -26.5 131.5c0 52.667 9.16699 98.167 27.5 136.5s43.166 67.666 74.499 87.999s65.666 30.5 102.999 30.5c38.667 0 73.167 -10.333 103.5 -31s54 -49.667 71 -87s25.5 -80.333 25.5 -129
c0 -57.333 -10 -105.333 -30 -144s-45.667 -67.167 -77 -85.5s-64.333 -27.5 -99 -27.5c-37.333 0 -71 10.167 -101 30.5zM330.002 32.501c27.333 17.667 49.833 44.667 67.5 81s26.5 80.5 26.5 132.5c0 44 -7.33301 83.5 -22 118.5s-35.5 62.333 -62.5 82
s-58.167 29.5 -93.5 29.5c-34.667 0 -65.834 -9.66699 -93.501 -29s-49.5 -47 -65.5 -83s-24 -78 -24 -126c0 -46 7.83301 -86.667 23.5 -122s37.334 -62.5 65.001 -81.5s58.5 -28.5 92.5 -28.5c30 0 58.667 8.83301 86 26.5zM162.502 625.501
c9.66699 14.333 22.834 21.501 39.501 21.501c12 0 22.667 -2.83301 32 -8.5s20 -13.834 32 -24.501c10 -8.66699 18.167 -15 24.5 -19s13.166 -6 20.499 -6c10 0 17.5 4.16699 22.5 12.5s8.16699 24.5 9.5 48.5h16c-0.666992 -29.333 -5.16699 -49.833 -13.5 -61.5
s-19.833 -17.5 -34.5 -17.5c-10.667 0 -20.167 2.5 -28.5 7.5s-17.833 12.5 -28.5 22.5c-11.333 10 -20.5 17.167 -27.5 21.5s-15.167 6.5 -24.5 6.5c-12 0 -21.333 -5.33301 -28 -16s-9.66699 -25.667 -9 -45h-16c-0.666992 24 3.83301 43.167 13.5 57.5z" />
    <glyph glyph-name="odieresis" unicode="&#xf6;" horiz-adv-x="487" 
d="M139 19.5c-30 20.333 -53.8311 49.334 -71.498 87.001s-26.5 81.5 -26.5 131.5c0 52.667 9.16699 98.167 27.5 136.5s43.166 67.666 74.499 87.999s65.666 30.5 102.999 30.5c38.667 0 73.167 -10.333 103.5 -31s54 -49.667 71 -87s25.5 -80.333 25.5 -129
c0 -57.333 -10 -105.333 -30 -144s-45.667 -67.167 -77 -85.5s-64.333 -27.5 -99 -27.5c-37.333 0 -71 10.167 -101 30.5zM330.002 32.501c27.333 17.667 49.833 44.667 67.5 81s26.5 80.5 26.5 132.5c0 44 -7.33301 83.5 -22 118.5s-35.5 62.333 -62.5 82
s-58.167 29.5 -93.5 29.5c-34.667 0 -65.834 -9.66699 -93.501 -29s-49.5 -47 -65.5 -83s-24 -78 -24 -126c0 -46 7.83301 -86.667 23.5 -122s37.334 -62.5 65.001 -81.5s58.5 -28.5 92.5 -28.5c30 0 58.667 8.83301 86 26.5zM160.502 591.001
c-4.33301 4.66699 -6.5 10 -6.5 16c0 6.66699 2.16699 12.167 6.5 16.5s9.5 6.5 15.5 6.5c6.66699 0 12 -2.16699 16 -6.5s6 -9.83301 6 -16.5c0 -6 -2.16699 -11.333 -6.5 -16s-9.5 -7 -15.5 -7s-11.167 2.33301 -15.5 7zM313.502 591.001
c-4.33301 4.66699 -6.5 10 -6.5 16c0 6.66699 2.16699 12.167 6.5 16.5s9.5 6.5 15.5 6.5c6.66699 0 12 -2.16699 16 -6.5s6 -9.83301 6 -16.5c0 -6 -2.16699 -11.333 -6.5 -16s-9.5 -7 -15.5 -7s-11.167 2.33301 -15.5 7z" />
    <glyph glyph-name="divide" unicode="&#xf7;" horiz-adv-x="555" 
d="M261 408c-4 4.66699 -6 10.3359 -6 17.0029c0 7.33301 2 13.166 6 17.499s9.33301 6.5 16 6.5s12.167 -2.33301 16.5 -7s6.5 -10.334 6.5 -17.001s-2.16699 -12.334 -6.5 -17.001s-9.83301 -7 -16.5 -7s-12 2.33301 -16 7zM45 279.002h465v-18h-465v18zM261 92.002
c-4 4.66699 -6 10.3359 -6 17.0029c0 7.33301 2 13.166 6 17.499s9.33301 6.5 16 6.5s12.167 -2.33301 16.5 -7s6.5 -10.334 6.5 -17.001s-2.16699 -12.334 -6.5 -17.001s-9.83301 -7 -16.5 -7s-12 2.33301 -16 7z" />
    <glyph glyph-name="oslash" unicode="&#xf8;" horiz-adv-x="487" 
d="M56 -15l46.0029 67.001c-40.667 46 -61 108 -61 186c0 52.667 9.16699 98.167 27.5 136.5s43.166 67.666 74.499 87.999s65.666 30.5 102.999 30.5c49.333 0 91.666 -16.667 126.999 -50l45 65l14 -9l-47 -68c19.333 -22 34.333 -48.833 45 -80.5s16 -66.5 16 -104.5
c0 -57.333 -10 -105.333 -30 -144s-45.667 -67.167 -77 -85.5s-64.333 -27.5 -99 -27.5c-48.667 0 -90.667 16.667 -126 50l-45 -65zM361.003 426.001c-32 33.333 -70.332 50 -114.999 50c-34.667 0 -65.834 -9.66699 -93.501 -29s-49.5 -47 -65.5 -83s-24 -78 -24 -126
c0 -70 17 -126.333 51 -169zM330.004 32.501c27.333 17.667 49.833 44.666 67.5 80.999s26.5 80.5 26.5 132.5c0 33.333 -4.5 64.333 -13.5 93s-21.5 53.334 -37.5 74.001l-247 -357c32 -33.333 71.333 -50 118 -50c30 0 58.667 8.83301 86 26.5z" />
    <glyph glyph-name="ugrave" unicode="&#xf9;" horiz-adv-x="494" 
d="M114 46.5c-25.333 37.667 -38 90.833 -38 159.5v277h21v-276c0 -70.667 12.667 -121.667 38 -153s59 -47 101 -47c37.333 0 69 12.333 95 37s43.667 53 53 85c4 13.333 6.5 25.5 7.5 36.5s1.5 27.833 1.5 50.5v267h21v-312c0 -60.667 1.33301 -117.667 4 -171h-19l-4 103
h-2c-36 -75.333 -89 -113 -159 -113c-54.667 0 -94.667 18.833 -120 56.5zM158 685.999h36l93 -136h-16z" />
    <glyph glyph-name="uacute" unicode="&#xfa;" horiz-adv-x="494" 
d="M114 46.5c-25.333 37.667 -38 90.833 -38 159.5v277h21v-276c0 -70.667 12.667 -121.667 38 -153s59 -47 101 -47c37.333 0 69 12.333 95 37s43.667 53 53 85c4 13.333 6.5 25.5 7.5 36.5s1.5 27.833 1.5 50.5v267h21v-312c0 -60.667 1.33301 -117.667 4 -171h-19l-4 103
h-2c-36 -75.333 -89 -113 -159 -113c-54.667 0 -94.667 18.833 -120 56.5zM314 685.999h36l-113 -136h-16z" />
    <glyph glyph-name="ucircumflex" unicode="&#xfb;" horiz-adv-x="494" 
d="M114 46.5c-25.333 37.667 -38 90.833 -38 159.5v277h21v-276c0 -70.667 12.667 -121.667 38 -153s59 -47 101 -47c37.333 0 69 12.333 95 37s43.667 53 53 85c4 13.333 6.5 25.5 7.5 36.5s1.5 27.833 1.5 50.5v267h21v-312c0 -60.667 1.33301 -117.667 4 -171h-19l-4 103
h-2c-36 -75.333 -89 -113 -159 -113c-54.667 0 -94.667 18.833 -120 56.5zM235 680.999h28l91 -131h-20l-84 112h-2l-85 -112h-19z" />
    <glyph glyph-name="udieresis" unicode="&#xfc;" horiz-adv-x="494" 
d="M114 46.5c-25.333 37.667 -38 90.833 -38 159.5v277h21v-276c0 -70.667 12.667 -121.667 38 -153s59 -47 101 -47c37.333 0 69 12.333 95 37s43.667 53 53 85c4 13.333 6.5 25.5 7.5 36.5s1.5 27.833 1.5 50.5v267h21v-312c0 -60.667 1.33301 -117.667 4 -171h-19l-4 103
h-2c-36 -75.333 -89 -113 -159 -113c-54.667 0 -94.667 18.833 -120 56.5zM161.5 590.999c-4.33301 4.66699 -6.5 10 -6.5 16c0 6.66699 2.16699 12.167 6.5 16.5s9.5 6.5 15.5 6.5c6.66699 0 12 -2.16699 16 -6.5s6 -9.83301 6 -16.5c0 -6 -2.16699 -11.333 -6.5 -16
s-9.5 -7 -15.5 -7s-11.167 2.33301 -15.5 7zM314.5 590.999c-4.33301 4.66699 -6.5 10 -6.5 16c0 6.66699 2.16699 12.167 6.5 16.5s9.5 6.5 15.5 6.5c6.66699 0 12 -2.16699 16 -6.5s6 -9.83301 6 -16.5c0 -6 -2.16699 -11.333 -6.5 -16s-9.5 -7 -15.5 -7
s-11.167 2.33301 -15.5 7z" />
    <glyph glyph-name="yacute" unicode="&#xfd;" horiz-adv-x="405" 
d="M22 -202c41.333 13.333 75.666 37.168 102.999 71.501s51.333 77.833 72 130.5c2 5.33301 3 9.66602 3 12.999c0 2.66699 -1 6.33398 -3 11.001l-184 459h24l134 -337l41 -109h1l38 109l118 337h24l-124 -347c-31.333 -88.667 -57 -154.334 -77 -197.001
s-43 -76.667 -69 -102c-18.667 -17.333 -36.167 -30.5 -52.5 -39.5s-30.166 -14.833 -41.499 -17.5zM279 686.002h36l-113 -136h-16z" />
    <glyph glyph-name="thorn" unicode="&#xfe;" horiz-adv-x="507" 
d="M80 668h21.001v-285h1c14.667 30.667 37.334 56.667 68.001 78s63.667 32 99 32c38 0 72 -10.167 102 -30.5s53.333 -49 70 -86s25 -79.833 25 -128.5c0 -54 -8.66699 -100.5 -26 -139.5s-41.5 -68.667 -72.5 -89s-66.833 -30.5 -107.5 -30.5
c-32.667 0 -63.334 7.16699 -92.001 21.5s-50.334 36.5 -65.001 66.5h-2v-275h-21v866zM393.001 70c34 42.667 51 101.999 51 177.999c0 44.667 -7.33301 84.334 -22 119.001s-35.5 61.5 -62.5 80.5s-58.167 28.5 -93.5 28.5c-30 0 -57.5 -8.33301 -82.5 -25
s-45 -37 -60 -61s-22.5 -45.667 -22.5 -65v-173c0 -28.667 7.16699 -54.167 21.5 -76.5s33.333 -39.5 57 -51.5s49.167 -18 76.5 -18c57.333 0 103 21.333 137 64z" />
    <glyph glyph-name="ydieresis" unicode="&#xff;" horiz-adv-x="405" 
d="M22 -202c41.333 13.333 75.666 37.168 102.999 71.501s51.333 77.833 72 130.5c2 5.33301 3 9.66602 3 12.999c0 2.66699 -1 6.33398 -3 11.001l-184 459h24l134 -337l41 -109h1l38 109l118 337h24l-124 -347c-31.333 -88.667 -57 -154.334 -77 -197.001
s-43 -76.667 -69 -102c-18.667 -17.333 -36.167 -30.5 -52.5 -39.5s-30.166 -14.833 -41.499 -17.5zM118.5 591.002c-4.33301 4.66699 -6.5 10 -6.5 16c0 6.66699 2.16699 12.167 6.5 16.5s9.5 6.5 15.5 6.5c6.66699 0 12 -2.16699 16 -6.5s6 -9.83301 6 -16.5
c0 -6 -2.16699 -11.333 -6.5 -16s-9.5 -7 -15.5 -7s-11.167 2.33301 -15.5 7zM271.5 591.002c-4.33301 4.66699 -6.5 10 -6.5 16c0 6.66699 2.16699 12.167 6.5 16.5s9.5 6.5 15.5 6.5c6.66699 0 12 -2.16699 16 -6.5s6 -9.83301 6 -16.5c0 -6 -2.16699 -11.333 -6.5 -16
s-9.5 -7 -15.5 -7s-11.167 2.33301 -15.5 7z" />
    <glyph glyph-name="Amacron" unicode="&#x100;" horiz-adv-x="551" 
d="M264 674h26l231 -674h-23l-81 239h-281l-81 -239h-22zM410 257l-75.001 223c-4 10.667 -6.66699 18.667 -8 24l-49 146h-2c-7.33301 -24 -14.166 -45 -20.499 -63l-15.5 -45l-21 -62l-76 -223h267zM174.999 757h205v-18h-205v18z" />
    <glyph glyph-name="amacron" unicode="&#x101;" horiz-adv-x="423" 
d="M71.5 24.5c-25 24.333 -37.5 54.835 -37.5 91.502c0 53.333 25.5 94.666 76.5 123.999s122.5 44 214.5 44v13c0 118.667 -42.333 178 -127 178c-20 0 -40.5 -3.33301 -61.5 -10s-38.833 -15.667 -53.5 -27l-7 17c15.333 11.333 34.333 20.333 57 27s44.667 10 66 10
c55.333 0 93.5 -18.333 114.5 -55s31.5 -84 31.5 -142v-137c0 -30 0.666992 -61.833 2 -95.5s3 -54.834 5 -63.501h-20c-2.66699 19.333 -4 47.333 -4 84h-3c-38 -63.333 -89.333 -95 -154 -95c-41.333 0 -74.5 12.167 -99.5 36.5zM306 83.002
c8 11.333 13.167 23.833 15.5 37.5s3.5 32.167 3.5 55.5v91c-84.667 0 -150.667 -12.833 -198 -38.5s-71 -62.5 -71 -110.5c0 -34.667 11 -62.167 33 -82.5s50 -30.5 84 -30.5c52.667 0 97 26 133 78zM116 611.002h185v-17h-185v17z" />
    <glyph glyph-name="Abreve" unicode="&#x102;" horiz-adv-x="551" 
d="M264 674h26l231 -674h-23l-81 239h-281l-81 -239h-22zM410 257l-75.001 223c-4 10.667 -6.66699 18.667 -8 24l-49 146h-2c-7.33301 -24 -14.166 -45 -20.499 -63l-15.5 -45l-21 -62l-76 -223h267zM198.499 742c-17 18.667 -25.834 43.667 -26.501 75h16
c0.666992 -26.667 8.16699 -47.5 22.5 -62.5s36.5 -22.5 66.5 -22.5c58.667 0 88.334 28.333 89.001 85h16c-0.666992 -34 -10.167 -59.667 -28.5 -77s-43.833 -26 -76.5 -26c-35.333 0 -61.5 9.33301 -78.5 28z" />
    <glyph glyph-name="abreve" unicode="&#x103;" horiz-adv-x="423" 
d="M71.5 24.5c-25 24.333 -37.5 54.835 -37.5 91.502c0 53.333 25.5 94.666 76.5 123.999s122.5 44 214.5 44v13c0 118.667 -42.333 178 -127 178c-20 0 -40.5 -3.33301 -61.5 -10s-38.833 -15.667 -53.5 -27l-7 17c15.333 11.333 34.333 20.333 57 27s44.667 10 66 10
c55.333 0 93.5 -18.333 114.5 -55s31.5 -84 31.5 -142v-137c0 -30 0.666992 -61.833 2 -95.5s3 -54.834 5 -63.501h-20c-2.66699 19.333 -4 47.333 -4 84h-3c-38 -63.333 -89.333 -95 -154 -95c-41.333 0 -74.5 12.167 -99.5 36.5zM306 83.002
c8 11.333 13.167 23.833 15.5 37.5s3.5 32.167 3.5 55.5v91c-84.667 0 -150.667 -12.833 -198 -38.5s-71 -62.5 -71 -110.5c0 -34.667 11 -62.167 33 -82.5s50 -30.5 84 -30.5c52.667 0 97 26 133 78zM135 585.502c-16.667 21.667 -25.334 48.832 -26.001 81.499h17
c0.666992 -28 7.83398 -50.833 21.501 -68.5s34.167 -26.5 61.5 -26.5c25.333 0 45.333 8.5 60 25.5s22.334 40.167 23.001 69.5h17c-0.666992 -35.333 -10 -63.166 -28 -83.499s-42 -30.5 -72 -30.5c-32.667 0 -57.334 10.833 -74.001 32.5z" />
    <glyph glyph-name="Aogonek" unicode="&#x104;" horiz-adv-x="551" 
d="M440 -176.5c-12.667 12.333 -19 30.166 -19 53.499c0 24 7.33301 46 22 66s32.667 40.333 54 61l-80 235h-281l-81 -239h-22l231 674h26l231 -674h-11c-20 -22 -36.5 -42.667 -49.5 -62s-19.5 -39.666 -19.5 -60.999c0 -16.667 4.66699 -30 14 -40s20.333 -15 33 -15
c14 0 27.667 4.33301 41 13l4 -15c-13.333 -10 -28.666 -15 -45.999 -15c-18.667 0 -34.334 6.16699 -47.001 18.5zM410 257l-75.001 223c-4 10.667 -6.66699 18.667 -8 24l-49 146h-2c-7.33301 -24 -14.166 -45 -20.499 -63l-15.5 -45l-21 -62l-76 -223h267z" />
    <glyph glyph-name="aogonek" unicode="&#x105;" horiz-adv-x="423" 
d="M290 -176.5c-12.667 12.333 -19 30.1689 -19 53.502c0 38.667 20 81 60 127c-2 22 -3 48.667 -3 80h-3c-38 -63.333 -89.333 -95 -154 -95c-41.333 0 -74.5 12.167 -99.5 36.5s-37.5 54.833 -37.5 91.5c0 53.333 25.5 94.666 76.5 123.999s122.5 44 214.5 44v13
c0 118.667 -42.333 178 -127 178c-20 0 -40.5 -3.33301 -61.5 -10s-38.833 -15.667 -53.5 -27l-7 17c15.333 11.333 34.333 20.333 57 27s44.667 10 66 10c55.333 0 93.5 -18.333 114.5 -55s31.5 -84 31.5 -142v-137c0 -30 0.666992 -61.833 2 -95.5s3 -54.834 5 -63.501h-7
c-36 -45.333 -54 -86.333 -54 -123c0 -16.667 4.66699 -30 14 -40s20.333 -15 33 -15c14 0 27.667 4.33301 41 13l4 -15c-13.333 -10 -28.666 -15 -45.999 -15c-18.667 0 -34.334 6.16699 -47.001 18.5zM306 84.0029c8 11.333 13.167 23.833 15.5 37.5s3.5 32.167 3.5 55.5
v91c-84.667 0 -150.667 -12.833 -198 -38.5s-71 -62.5 -71 -110.5c0 -34.667 11 -62.167 33 -82.5s50 -30.5 84 -30.5c52.667 0 97 26 133 78z" />
    <glyph glyph-name="Cacute" unicode="&#x106;" horiz-adv-x="521" 
d="M181 29c-45.333 26 -80.501 64.6699 -105.501 116.003s-37.5 113.333 -37.5 186c0 69.333 13 130.666 39 183.999s62.833 94.833 110.5 124.5s103.5 44.5 167.5 44.5c46 0 89.667 -9 131 -27l-6 -18c-39.333 18 -81 27 -125 27
c-59.333 0 -111.166 -13.833 -155.499 -41.5s-78.5 -66.834 -102.5 -117.501s-36 -109.334 -36 -176.001c0 -103.333 25.167 -183 75.5 -239s119.166 -84 206.499 -84c26.667 0 52.5 2.66699 77.5 8s45.5 11.333 61.5 18l4 -18c-16.667 -7.33301 -37.5 -13.5 -62.5 -18.5
s-52.5 -7.5 -82.5 -7.5c-61.333 0 -114.666 13 -159.999 39zM391.999 825.003h41l-122 -115h-18z" />
    <glyph glyph-name="cacute" unicode="&#x107;" horiz-adv-x="394" 
d="M143.5 20c-32.333 20 -57.502 48.502 -75.502 85.502s-27 80.5 -27 130.5s9.5 94.5 28.5 133.5s45.833 69.333 80.5 91s74.334 32.5 119.001 32.5c20.667 0 39.167 -2.5 55.5 -7.5s29.5 -10.833 39.5 -17.5l-8 -17c-9.33301 6.66699 -21.5 12.5 -36.5 17.5
s-31.833 7.5 -50.5 7.5c-40.667 0 -76.667 -10.167 -108 -30.5s-55.5 -48.5 -72.5 -84.5s-25.5 -77.333 -25.5 -124s8.16699 -87.334 24.5 -122.001s39.333 -61.334 69 -80.001s63.834 -28 102.501 -28c19.333 0 37.833 2.83301 55.5 8.5s31.5 12.167 41.5 19.5l5 -17
c-10.667 -7.33301 -25.334 -13.833 -44.001 -19.5s-38.667 -8.5 -60 -8.5c-43.333 0 -81.166 10 -113.499 30zM327.998 686.002h36l-113 -136h-16z" />
    <glyph glyph-name="Ccircumflex" unicode="&#x108;" horiz-adv-x="521" 
d="M181 29c-45.333 26 -80.501 64.6699 -105.501 116.003s-37.5 113.333 -37.5 186c0 69.333 13 130.666 39 183.999s62.833 94.833 110.5 124.5s103.5 44.5 167.5 44.5c46 0 89.667 -9 131 -27l-6 -18c-39.333 18 -81 27 -125 27
c-59.333 0 -111.166 -13.833 -155.499 -41.5s-78.5 -66.834 -102.5 -117.501s-36 -109.334 -36 -176.001c0 -103.333 25.167 -183 75.5 -239s119.166 -84 206.499 -84c26.667 0 52.5 2.66699 77.5 8s45.5 11.333 61.5 18l4 -18c-16.667 -7.33301 -37.5 -13.5 -62.5 -18.5
s-52.5 -7.5 -82.5 -7.5c-61.333 0 -114.666 13 -159.999 39zM313.999 821.003h30l92 -111h-20l-86 92h-2l-85 -92h-20z" />
    <glyph glyph-name="ccircumflex" unicode="&#x109;" horiz-adv-x="394" 
d="M143.5 20c-32.333 20 -57.502 48.502 -75.502 85.502s-27 80.5 -27 130.5s9.5 94.5 28.5 133.5s45.833 69.333 80.5 91s74.334 32.5 119.001 32.5c20.667 0 39.167 -2.5 55.5 -7.5s29.5 -10.833 39.5 -17.5l-8 -17c-9.33301 6.66699 -21.5 12.5 -36.5 17.5
s-31.833 7.5 -50.5 7.5c-40.667 0 -76.667 -10.167 -108 -30.5s-55.5 -48.5 -72.5 -84.5s-25.5 -77.333 -25.5 -124s8.16699 -87.334 24.5 -122.001s39.333 -61.334 69 -80.001s63.834 -28 102.501 -28c19.333 0 37.833 2.83301 55.5 8.5s31.5 12.167 41.5 19.5l5 -17
c-10.667 -7.33301 -25.334 -13.833 -44.001 -19.5s-38.667 -8.5 -60 -8.5c-43.333 0 -81.166 10 -113.499 30zM241.998 681.002h28l91 -131h-20l-84 112h-2l-85 -112h-19z" />
    <glyph glyph-name="Cdotaccent" unicode="&#x10a;" horiz-adv-x="521" 
d="M181 29c-45.333 26 -80.501 64.6699 -105.501 116.003s-37.5 113.333 -37.5 186c0 69.333 13 130.666 39 183.999s62.833 94.833 110.5 124.5s103.5 44.5 167.5 44.5c46 0 89.667 -9 131 -27l-6 -18c-39.333 18 -81 27 -125 27
c-59.333 0 -111.166 -13.833 -155.499 -41.5s-78.5 -66.834 -102.5 -117.501s-36 -109.334 -36 -176.001c0 -103.333 25.167 -183 75.5 -239s119.166 -84 206.499 -84c26.667 0 52.5 2.66699 77.5 8s45.5 11.333 61.5 18l4 -18c-16.667 -7.33301 -37.5 -13.5 -62.5 -18.5
s-52.5 -7.5 -82.5 -7.5c-61.333 0 -114.666 13 -159.999 39zM308.499 736.003c-4.33301 4.66699 -6.5 10.332 -6.5 16.999s2.16699 12.334 6.5 17.001s9.83301 7 16.5 7c7.33301 0 13 -2.16699 17 -6.5s6 -10.166 6 -17.499c0 -6.66699 -2.16699 -12.334 -6.5 -17.001
s-9.83301 -7 -16.5 -7s-12.167 2.33301 -16.5 7z" />
    <glyph glyph-name="cdotaccent" unicode="&#x10b;" horiz-adv-x="394" 
d="M143.5 20c-32.333 20 -57.502 48.502 -75.502 85.502s-27 80.5 -27 130.5s9.5 94.5 28.5 133.5s45.833 69.333 80.5 91s74.334 32.5 119.001 32.5c20.667 0 39.167 -2.5 55.5 -7.5s29.5 -10.833 39.5 -17.5l-8 -17c-9.33301 6.66699 -21.5 12.5 -36.5 17.5
s-31.833 7.5 -50.5 7.5c-40.667 0 -76.667 -10.167 -108 -30.5s-55.5 -48.5 -72.5 -84.5s-25.5 -77.333 -25.5 -124s8.16699 -87.334 24.5 -122.001s39.333 -61.334 69 -80.001s63.834 -28 102.501 -28c19.333 0 37.833 2.83301 55.5 8.5s31.5 12.167 41.5 19.5l5 -17
c-10.667 -7.33301 -25.334 -13.833 -44.001 -19.5s-38.667 -8.5 -60 -8.5c-43.333 0 -81.166 10 -113.499 30zM240.498 590.002c-4.33301 4.66699 -6.5 10.332 -6.5 16.999s2.16699 12.334 6.5 17.001s9.83301 7 16.5 7c7.33301 0 13 -2.16699 17 -6.5s6 -10.166 6 -17.499
c0 -6.66699 -2.16699 -12.334 -6.5 -17.001s-9.83301 -7 -16.5 -7s-12.167 2.33301 -16.5 7z" />
    <glyph glyph-name="Ccaron" unicode="&#x10c;" horiz-adv-x="521" 
d="M181 29c-45.333 26 -80.501 64.6699 -105.501 116.003s-37.5 113.333 -37.5 186c0 69.333 13 130.666 39 183.999s62.833 94.833 110.5 124.5s103.5 44.5 167.5 44.5c46 0 89.667 -9 131 -27l-6 -18c-39.333 18 -81 27 -125 27
c-59.333 0 -111.166 -13.833 -155.499 -41.5s-78.5 -66.834 -102.5 -117.501s-36 -109.334 -36 -176.001c0 -103.333 25.167 -183 75.5 -239s119.166 -84 206.499 -84c26.667 0 52.5 2.66699 77.5 8s45.5 11.333 61.5 18l4 -18c-16.667 -7.33301 -37.5 -13.5 -62.5 -18.5
s-52.5 -7.5 -82.5 -7.5c-61.333 0 -114.666 13 -159.999 39zM212.999 821.003h20l86 -92h2l85 92h20l-91 -111h-29z" />
    <glyph glyph-name="ccaron" unicode="&#x10d;" horiz-adv-x="394" 
d="M143.5 20c-32.333 20 -57.502 48.502 -75.502 85.502s-27 80.5 -27 130.5s9.5 94.5 28.5 133.5s45.833 69.333 80.5 91s74.334 32.5 119.001 32.5c20.667 0 39.167 -2.5 55.5 -7.5s29.5 -10.833 39.5 -17.5l-8 -17c-9.33301 6.66699 -21.5 12.5 -36.5 17.5
s-31.833 7.5 -50.5 7.5c-40.667 0 -76.667 -10.167 -108 -30.5s-55.5 -48.5 -72.5 -84.5s-25.5 -77.333 -25.5 -124s8.16699 -87.334 24.5 -122.001s39.333 -61.334 69 -80.001s63.834 -28 102.501 -28c19.333 0 37.833 2.83301 55.5 8.5s31.5 12.167 41.5 19.5l5 -17
c-10.667 -7.33301 -25.334 -13.833 -44.001 -19.5s-38.667 -8.5 -60 -8.5c-43.333 0 -81.166 10 -113.499 30zM151.998 681.002h20l84 -112h2l85 112h19l-91 -131h-28z" />
    <glyph glyph-name="Dcaron" unicode="&#x10e;" horiz-adv-x="601" 
d="M84 2v661.999c62.667 10 112.334 15 149.001 15c101.333 0 181.5 -27.167 240.5 -81.5s88.5 -135.5 88.5 -243.5c0 -117.333 -30.833 -206.666 -92.5 -267.999s-148.834 -92 -261.501 -92c-50 0 -91.333 2.66699 -124 8zM453.5 98.999c57 58 85.501 142.667 85.501 254
c0 101.333 -27.333 178 -82 230s-129.334 78 -224.001 78c-43.333 0 -86 -4 -128 -12v-632c24 -3.33301 59 -5 105 -5c105.333 0 186.5 29 243.5 87zM187.001 820.999h20l86 -92h2l85 92h20l-91 -111h-29z" />
    <glyph glyph-name="dcaron" unicode="&#x10f;" horiz-adv-x="511" 
d="M94.5 57c-35.667 45.333 -53.499 109 -53.499 191c0 48.667 8.33301 91.5 25 128.5s40 65.667 70 86s64 30.5 102 30.5c35.333 0 67 -8.33301 95 -25s49.667 -37.667 65 -63h2v304h21v-570c0 -44.667 1.33301 -91 4 -139h-19l-4 94h-2c-16 -36 -38.5 -62.5 -67.5 -79.5
s-60.167 -25.5 -93.5 -25.5c-60.667 0 -108.834 22.667 -144.501 68zM321.001 27.5c24 14.333 43.167 33.834 57.5 58.501s21.5 51.667 21.5 81v175c0 18.667 -6.83301 38.5 -20.5 59.5s-32.667 38.667 -57 53s-51.5 21.5 -81.5 21.5c-35.333 0 -66.5 -9.5 -93.5 -28.5
s-47.833 -45.833 -62.5 -80.5s-22 -74.334 -22 -119.001c0 -76.667 16 -136.167 48 -178.5s76 -63.5 132 -63.5c28 0 54 7.16699 78 21.5zM472.001 543.001c30.667 26.667 46.001 58.667 46.001 96c0 27.333 -11.333 50.333 -34 69l17 4c24 -20 36 -44.333 36 -73
c0 -22 -5.33301 -42 -16 -60s-23.334 -32.667 -38.001 -44z" />
    <glyph glyph-name="Dcroat" unicode="&#x110;" horiz-adv-x="611" 
d="M94 2v345.999h-73v17h73v299c62.667 10 112.334 15 149.001 15c101.333 0 181.5 -27.167 240.5 -81.5s88.5 -135.5 88.5 -243.5c0 -117.333 -30.833 -206.666 -92.5 -267.999s-148.834 -92 -261.501 -92c-50 0 -91.333 2.66699 -124 8zM463.5 98.999
c57 58 85.501 142.667 85.501 254c0 101.333 -27.333 178 -82 230s-129.334 78 -224.001 78c-43.333 0 -86 -4 -128 -12v-284h182v-17h-182v-331c24 -3.33301 59 -5 105 -5c105.333 0 186.5 29 243.5 87z" />
    <glyph glyph-name="dcroat" unicode="&#x111;" horiz-adv-x="501" 
d="M94.5 57c-35.667 45.333 -53.499 109 -53.499 191c0 48.667 8.33301 91.5 25 128.5s40 65.667 70 86s64 30.5 102 30.5c35.333 0 67 -8.33301 95 -25s49.667 -37.667 65 -63h2v187h-182v17h182v100h21v-100h75v-17h-75v-453c0 -44.667 1.33301 -91 4 -139h-19l-4 94h-2
c-16 -36 -38.5 -62.5 -67.5 -79.5s-60.167 -25.5 -93.5 -25.5c-60.667 0 -108.834 22.667 -144.501 68zM321.001 27.5c24 14.333 43.167 33.834 57.5 58.501s21.5 51.667 21.5 81v175c0 18.667 -6.83301 38.5 -20.5 59.5s-32.667 38.667 -57 53s-51.5 21.5 -81.5 21.5
c-35.333 0 -66.5 -9.5 -93.5 -28.5s-47.833 -45.833 -62.5 -80.5s-22 -74.334 -22 -119.001c0 -76.667 16 -136.167 48 -178.5s76 -63.5 132 -63.5c28 0 54 7.16699 78 21.5z" />
    <glyph glyph-name="Emacron" unicode="&#x112;" horiz-adv-x="427" 
d="M84 674h293v-18h-272v-291h257v-18h-257v-329h287v-18h-308v674zM133 757h205v-18h-205v18z" />
    <glyph glyph-name="emacron" unicode="&#x113;" horiz-adv-x="455" 
d="M97 58c-37.333 45.333 -56.001 109.333 -56.001 192c0 42.667 8.5 82.667 25.5 120s40.667 67.166 71 89.499s64.833 33.5 103.5 33.5c42.667 0 77 -10.667 103 -32s44.333 -47.166 55 -77.499s16 -60.5 16 -90.5c0 -19.333 -0.666992 -33.333 -2 -42h-350
c0 -74 16.167 -133.167 48.5 -177.5s78.833 -66.5 139.5 -66.5c50.667 0 95.334 9.66699 134.001 29l4 -16c-40 -20 -86.333 -30 -139 -30c-64.667 0 -115.667 22.667 -153 68zM393.999 268c0.666992 5.33301 1.00098 15.668 1.00098 31.001
c-0.666992 26.667 -5.83398 53.5 -15.501 80.5s-26 49.833 -49 68.5s-53.167 28 -90.5 28c-32 0 -61 -9.16699 -87 -27.5s-46.833 -43.333 -62.5 -75s-24.5 -66.834 -26.5 -105.501h330zM152 611.002h185v-17h-185v17z" />
    <glyph glyph-name="Ebreve" unicode="&#x114;" horiz-adv-x="427" 
d="M84 674h293v-18h-272v-291h257v-18h-257v-329h287v-18h-308v674zM159.5 742c-17 18.667 -25.834 43.667 -26.501 75h16c0.666992 -26.667 8.16699 -47.5 22.5 -62.5s36.5 -22.5 66.5 -22.5c58.667 0 88.334 28.333 89.001 85h16c-0.666992 -34 -10.167 -59.667 -28.5 -77
s-43.833 -26 -76.5 -26c-35.333 0 -61.5 9.33301 -78.5 28z" />
    <glyph glyph-name="ebreve" unicode="&#x115;" horiz-adv-x="455" 
d="M97 58c-37.333 45.333 -56.001 109.333 -56.001 192c0 42.667 8.5 82.667 25.5 120s40.667 67.166 71 89.499s64.833 33.5 103.5 33.5c42.667 0 77 -10.667 103 -32s44.333 -47.166 55 -77.499s16 -60.5 16 -90.5c0 -19.333 -0.666992 -33.333 -2 -42h-350
c0 -74 16.167 -133.167 48.5 -177.5s78.833 -66.5 139.5 -66.5c50.667 0 95.334 9.66699 134.001 29l4 -16c-40 -20 -86.333 -30 -139 -30c-64.667 0 -115.667 22.667 -153 68zM393.999 268c0.666992 5.33301 1.00098 15.668 1.00098 31.001
c-0.666992 26.667 -5.83398 53.5 -15.501 80.5s-26 49.833 -49 68.5s-53.167 28 -90.5 28c-32 0 -61 -9.16699 -87 -27.5s-46.833 -43.333 -62.5 -75s-24.5 -66.834 -26.5 -105.501h330zM172 585.502c-16.667 21.667 -25.334 48.832 -26.001 81.499h17
c0.666992 -28 7.83398 -50.833 21.501 -68.5s34.167 -26.5 61.5 -26.5c25.333 0 45.333 8.5 60 25.5s22.334 40.167 23.001 69.5h17c-0.666992 -35.333 -10 -63.166 -28 -83.499s-42 -30.5 -72 -30.5c-32.667 0 -57.334 10.833 -74.001 32.5z" />
    <glyph glyph-name="Edotaccent" unicode="&#x116;" horiz-adv-x="427" 
d="M84 674h293v-18h-272v-291h257v-18h-257v-329h287v-18h-308v674zM223.5 736c-4.33301 4.66699 -6.5 10.332 -6.5 16.999s2.16699 12.334 6.5 17.001s9.83301 7 16.5 7c7.33301 0 13 -2.16699 17 -6.5s6 -10.166 6 -17.499c0 -6.66699 -2.16699 -12.334 -6.5 -17.001
s-9.83301 -7 -16.5 -7s-12.167 2.33301 -16.5 7z" />
    <glyph glyph-name="edotaccent" unicode="&#x117;" horiz-adv-x="455" 
d="M97 58c-37.333 45.333 -56.001 109.333 -56.001 192c0 42.667 8.5 82.667 25.5 120s40.667 67.166 71 89.499s64.833 33.5 103.5 33.5c42.667 0 77 -10.667 103 -32s44.333 -47.166 55 -77.499s16 -60.5 16 -90.5c0 -19.333 -0.666992 -33.333 -2 -42h-350
c0 -74 16.167 -133.167 48.5 -177.5s78.833 -66.5 139.5 -66.5c50.667 0 95.334 9.66699 134.001 29l4 -16c-40 -20 -86.333 -30 -139 -30c-64.667 0 -115.667 22.667 -153 68zM393.999 268c0.666992 5.33301 1.00098 15.668 1.00098 31.001
c-0.666992 26.667 -5.83398 53.5 -15.501 80.5s-26 49.833 -49 68.5s-53.167 28 -90.5 28c-32 0 -61 -9.16699 -87 -27.5s-46.833 -43.333 -62.5 -75s-24.5 -66.834 -26.5 -105.501h330zM234.5 590.002c-4.33301 4.66699 -6.5 10.332 -6.5 16.999s2.16699 12.334 6.5 17.001
s9.83301 7 16.5 7c7.33301 0 13 -2.16699 17 -6.5s6 -10.166 6 -17.499c0 -6.66699 -2.16699 -12.334 -6.5 -17.001s-9.83301 -7 -16.5 -7s-12.167 2.33301 -16.5 7z" />
    <glyph glyph-name="Eogonek" unicode="&#x118;" horiz-adv-x="427" 
d="M309 -176.5c-12.667 12.333 -19.001 30.168 -19.001 53.501c0 16 4.33301 31.5 13 46.5s19.167 29.167 31.5 42.5s23.5 24.666 33.5 33.999h-284v674h293v-18h-272v-291h257v-18h-257v-329h287v-18h-6l-26 -27c-14 -14.667 -25.833 -30.5 -35.5 -47.5
s-14.5 -33.167 -14.5 -48.5c0 -16.667 4.66699 -30 14 -40s20.333 -15 33 -15c14.667 0 28.334 4.33301 41.001 13l4 -15c-13.333 -10 -28.666 -15 -45.999 -15c-18.667 0 -34.334 6.16699 -47.001 18.5z" />
    <glyph glyph-name="eogonek" unicode="&#x119;" horiz-adv-x="455" 
d="M264 -176.5c-12.667 12.333 -19.002 30.166 -19.002 53.499c0 22.667 7.5 44.167 22.5 64.5s32.833 38.833 53.5 55.5c-23.333 -4.66699 -47 -7 -71 -7c-64.667 0 -115.667 22.667 -153 68s-56 109.333 -56 192c0 42.667 8.5 82.667 25.5 120s40.667 67.166 71 89.499
s64.833 33.5 103.5 33.5c42.667 0 77 -10.667 103 -32s44.333 -47.166 55 -77.499s16 -60.5 16 -90.5c0 -19.333 -0.666992 -33.333 -2 -42h-350c0 -74 16.167 -133.167 48.5 -177.5s78.833 -66.5 139.5 -66.5c50.667 0 95.334 9.66699 134.001 29l4 -16l-17.5 -7.5
c-7 -3 -14.167 -6.5 -21.5 -10.5c-17.333 -9.33301 -35.833 -26.333 -55.5 -51s-29.5 -48.667 -29.5 -72c0 -17.333 4.5 -31.166 13.5 -41.499s20.167 -15.5 33.5 -15.5c14.667 0 28.334 4.33301 41.001 13l4 -15c-13.333 -10 -28.666 -15 -45.999 -15
c-18.667 0 -34.334 6.16699 -47.001 18.5zM393.998 268c0.666992 5.33301 1.00098 15.668 1.00098 31.001c-0.666992 26.667 -5.83398 53.5 -15.501 80.5s-26 49.833 -49 68.5s-53.167 28 -90.5 28c-32 0 -61 -9.16699 -87 -27.5s-46.833 -43.333 -62.5 -75
s-24.5 -66.834 -26.5 -105.501h330z" />
    <glyph glyph-name="Ecaron" unicode="&#x11a;" horiz-adv-x="427" 
d="M84 674h293v-18h-272v-291h257v-18h-257v-329h287v-18h-308v674zM133 821h20l86 -92h2l85 92h20l-91 -111h-29z" />
    <glyph glyph-name="ecaron" unicode="&#x11b;" horiz-adv-x="455" 
d="M97 58c-37.333 45.333 -56.001 109.333 -56.001 192c0 42.667 8.5 82.667 25.5 120s40.667 67.166 71 89.499s64.833 33.5 103.5 33.5c42.667 0 77 -10.667 103 -32s44.333 -47.166 55 -77.499s16 -60.5 16 -90.5c0 -19.333 -0.666992 -33.333 -2 -42h-350
c0 -74 16.167 -133.167 48.5 -177.5s78.833 -66.5 139.5 -66.5c50.667 0 95.334 9.66699 134.001 29l4 -16c-40 -20 -86.333 -30 -139 -30c-64.667 0 -115.667 22.667 -153 68zM393.999 268c0.666992 5.33301 1.00098 15.668 1.00098 31.001
c-0.666992 26.667 -5.83398 53.5 -15.501 80.5s-26 49.833 -49 68.5s-53.167 28 -90.5 28c-32 0 -61 -9.16699 -87 -27.5s-46.833 -43.333 -62.5 -75s-24.5 -66.834 -26.5 -105.501h330zM144 681.002h20l84 -112h2l85 112h19l-91 -131h-28z" />
    <glyph glyph-name="Gcircumflex" unicode="&#x11c;" horiz-adv-x="574" 
d="M181 34.5c-46 27.667 -81.332 67.167 -105.999 118.5s-37 111.333 -37 180c0 66 13.333 125.333 40 178s64.667 94.167 114 124.5s106.666 45.5 171.999 45.5c28 0 54.667 -2.83301 80 -8.5s45.333 -12.5 60 -20.5l-7 -17c-13.333 7.33301 -32.5 13.833 -57.5 19.5
s-50.167 8.5 -75.5 8.5c-61.333 0 -114.833 -14.167 -160.5 -42.5s-80.834 -67.333 -105.501 -117s-37 -106.167 -37 -169.5c0 -66 11.5 -123.333 34.5 -172s55.833 -86 98.5 -112s93.334 -39 152.001 -39c29.333 0 57 3.16699 83 9.5s48.333 13.833 67 22.5v256h-147v17
h167v-286c-54.667 -24.667 -111.667 -37 -171 -37c-63.333 0 -118 13.833 -164 41.5zM324.001 821h30l92 -111h-20l-86 92h-2l-85 -92h-20z" />
    <glyph glyph-name="gcircumflex" unicode="&#x11d;" horiz-adv-x="500" 
d="M142 -198c-23.333 6.66699 -42.668 16.665 -58.001 29.998l10 15c14 -12 32 -21.333 54 -28s44.333 -10 67 -10c64 0 110.667 21.833 140 65.5s44 106.834 44 189.501v26h-2c-18 -30.667 -41.333 -53.167 -70 -67.5s-60 -21.5 -94 -21.5
c-36.667 0 -69.5 9.83301 -98.5 29.5s-51.833 48.167 -68.5 85.5s-25 82 -25 134c0 48.667 8.33301 91.334 25 128.001s40 65 70 85s64 30 102 30c34 0 65.833 -10.333 95.5 -31s51.5 -46 65.5 -76h2l4 97h19c-2.66699 -48 -4 -94.333 -4 -139v-274
c0 -89.333 -16 -158 -48 -206s-84.333 -72 -157 -72c-25.333 0 -49.666 3.33301 -72.999 10zM316.998 36.498c24.667 12.333 44.499 29.6689 59.499 52.002s22.5 47.833 22.5 76.5v157c0 21.333 -7 44.166 -21 68.499s-33.167 44.666 -57.5 60.999s-50.833 24.5 -79.5 24.5
c-35.333 0 -66.5 -9.33301 -93.5 -28s-47.833 -45.167 -62.5 -79.5s-22 -73.833 -22 -118.5c0 -48 7.33301 -89.5 22 -124.5s35.167 -61.667 61.5 -80s56.5 -27.5 90.5 -27.5c28.667 0 55.334 6.16699 80.001 18.5zM234.997 681.001h28l91 -131h-20l-84 112h-2l-85 -112h-19
z" />
    <glyph glyph-name="Gbreve" unicode="&#x11e;" horiz-adv-x="574" 
d="M181 34.5c-46 27.667 -81.332 67.167 -105.999 118.5s-37 111.333 -37 180c0 66 13.333 125.333 40 178s64.667 94.167 114 124.5s106.666 45.5 171.999 45.5c28 0 54.667 -2.83301 80 -8.5s45.333 -12.5 60 -20.5l-7 -17c-13.333 7.33301 -32.5 13.833 -57.5 19.5
s-50.167 8.5 -75.5 8.5c-61.333 0 -114.833 -14.167 -160.5 -42.5s-80.834 -67.333 -105.501 -117s-37 -106.167 -37 -169.5c0 -66 11.5 -123.333 34.5 -172s55.833 -86 98.5 -112s93.334 -39 152.001 -39c29.333 0 57 3.16699 83 9.5s48.333 13.833 67 22.5v256h-147v17
h167v-286c-54.667 -24.667 -111.667 -37 -171 -37c-63.333 0 -118 13.833 -164 41.5zM261.501 742c-17 18.667 -25.834 43.667 -26.501 75h16c0.666992 -26.667 8.16699 -47.5 22.5 -62.5s36.5 -22.5 66.5 -22.5c58.667 0 88.334 28.333 89.001 85h16
c-0.666992 -34 -10.167 -59.667 -28.5 -77s-43.833 -26 -76.5 -26c-35.333 0 -61.5 9.33301 -78.5 28z" />
    <glyph glyph-name="gbreve" unicode="&#x11f;" horiz-adv-x="500" 
d="M142 -198c-23.333 6.66699 -42.668 16.665 -58.001 29.998l10 15c14 -12 32 -21.333 54 -28s44.333 -10 67 -10c64 0 110.667 21.833 140 65.5s44 106.834 44 189.501v26h-2c-18 -30.667 -41.333 -53.167 -70 -67.5s-60 -21.5 -94 -21.5
c-36.667 0 -69.5 9.83301 -98.5 29.5s-51.833 48.167 -68.5 85.5s-25 82 -25 134c0 48.667 8.33301 91.334 25 128.001s40 65 70 85s64 30 102 30c34 0 65.833 -10.333 95.5 -31s51.5 -46 65.5 -76h2l4 97h19c-2.66699 -48 -4 -94.333 -4 -139v-274
c0 -89.333 -16 -158 -48 -206s-84.333 -72 -157 -72c-25.333 0 -49.666 3.33301 -72.999 10zM316.998 36.498c24.667 12.333 44.499 29.6689 59.499 52.002s22.5 47.833 22.5 76.5v157c0 21.333 -7 44.166 -21 68.499s-33.167 44.666 -57.5 60.999s-50.833 24.5 -79.5 24.5
c-35.333 0 -66.5 -9.33301 -93.5 -28s-47.833 -45.167 -62.5 -79.5s-22 -73.833 -22 -118.5c0 -48 7.33301 -89.5 22 -124.5s35.167 -61.667 61.5 -80s56.5 -27.5 90.5 -27.5c28.667 0 55.334 6.16699 80.001 18.5zM175.997 585.501
c-16.667 21.667 -25.334 48.832 -26.001 81.499h17c0.666992 -28 7.83398 -50.833 21.501 -68.5s34.167 -26.5 61.5 -26.5c25.333 0 45.333 8.5 60 25.5s22.334 40.167 23.001 69.5h17c-0.666992 -35.333 -10 -63.166 -28 -83.499s-42 -30.5 -72 -30.5
c-32.667 0 -57.334 10.833 -74.001 32.5z" />
    <glyph glyph-name="Gdotaccent" unicode="&#x120;" horiz-adv-x="574" 
d="M181 34.5c-46 27.667 -81.332 67.167 -105.999 118.5s-37 111.333 -37 180c0 66 13.333 125.333 40 178s64.667 94.167 114 124.5s106.666 45.5 171.999 45.5c28 0 54.667 -2.83301 80 -8.5s45.333 -12.5 60 -20.5l-7 -17c-13.333 7.33301 -32.5 13.833 -57.5 19.5
s-50.167 8.5 -75.5 8.5c-61.333 0 -114.833 -14.167 -160.5 -42.5s-80.834 -67.333 -105.501 -117s-37 -106.167 -37 -169.5c0 -66 11.5 -123.333 34.5 -172s55.833 -86 98.5 -112s93.334 -39 152.001 -39c29.333 0 57 3.16699 83 9.5s48.333 13.833 67 22.5v256h-147v17
h167v-286c-54.667 -24.667 -111.667 -37 -171 -37c-63.333 0 -118 13.833 -164 41.5zM333.501 736c-4.33301 4.66699 -6.5 10.332 -6.5 16.999s2.16699 12.334 6.5 17.001s9.83301 7 16.5 7c7.33301 0 13 -2.16699 17 -6.5s6 -10.166 6 -17.499
c0 -6.66699 -2.16699 -12.334 -6.5 -17.001s-9.83301 -7 -16.5 -7s-12.167 2.33301 -16.5 7z" />
    <glyph glyph-name="gdotaccent" unicode="&#x121;" horiz-adv-x="500" 
d="M142 -198c-23.333 6.66699 -42.668 16.665 -58.001 29.998l10 15c14 -12 32 -21.333 54 -28s44.333 -10 67 -10c64 0 110.667 21.833 140 65.5s44 106.834 44 189.501v26h-2c-18 -30.667 -41.333 -53.167 -70 -67.5s-60 -21.5 -94 -21.5
c-36.667 0 -69.5 9.83301 -98.5 29.5s-51.833 48.167 -68.5 85.5s-25 82 -25 134c0 48.667 8.33301 91.334 25 128.001s40 65 70 85s64 30 102 30c34 0 65.833 -10.333 95.5 -31s51.5 -46 65.5 -76h2l4 97h19c-2.66699 -48 -4 -94.333 -4 -139v-274
c0 -89.333 -16 -158 -48 -206s-84.333 -72 -157 -72c-25.333 0 -49.666 3.33301 -72.999 10zM316.998 36.498c24.667 12.333 44.499 29.6689 59.499 52.002s22.5 47.833 22.5 76.5v157c0 21.333 -7 44.166 -21 68.499s-33.167 44.666 -57.5 60.999s-50.833 24.5 -79.5 24.5
c-35.333 0 -66.5 -9.33301 -93.5 -28s-47.833 -45.167 -62.5 -79.5s-22 -73.833 -22 -118.5c0 -48 7.33301 -89.5 22 -124.5s35.167 -61.667 61.5 -80s56.5 -27.5 90.5 -27.5c28.667 0 55.334 6.16699 80.001 18.5zM233.497 590.001
c-4.33301 4.66699 -6.5 10.332 -6.5 16.999s2.16699 12.334 6.5 17.001s9.83301 7 16.5 7c7.33301 0 13 -2.16699 17 -6.5s6 -10.166 6 -17.499c0 -6.66699 -2.16699 -12.334 -6.5 -17.001s-9.83301 -7 -16.5 -7s-12.167 2.33301 -16.5 7z" />
    <glyph glyph-name="Gcommaaccent" unicode="&#x122;" horiz-adv-x="574" 
d="M181 34.5c-46 27.667 -81.332 67.167 -105.999 118.5s-37 111.333 -37 180c0 66 13.333 125.333 40 178s64.667 94.167 114 124.5s106.666 45.5 171.999 45.5c28 0 54.667 -2.83301 80 -8.5s45.333 -12.5 60 -20.5l-7 -17c-13.333 7.33301 -32.5 13.833 -57.5 19.5
s-50.167 8.5 -75.5 8.5c-61.333 0 -114.833 -14.167 -160.5 -42.5s-80.834 -67.333 -105.501 -117s-37 -106.167 -37 -169.5c0 -66 11.5 -123.333 34.5 -172s55.833 -86 98.5 -112s93.334 -39 152.001 -39c29.333 0 57 3.16699 83 9.5s48.333 13.833 67 22.5v256h-147v17
h167v-286c-54.667 -24.667 -111.667 -37 -171 -37c-63.333 0 -118 13.833 -164 41.5zM273.001 -196c27.333 2.66699 49.833 10.001 67.5 22.001s26.5 29.667 26.5 53c0 12.667 -3.66699 24.667 -11 36s-16.333 20.666 -27 27.999l20 4c24.667 -20 37 -42.667 37 -68
c0 -27.333 -10.5 -48.333 -31.5 -63s-46.5 -23 -76.5 -25z" />
    <glyph glyph-name="gcommaaccent" unicode="&#x123;" horiz-adv-x="500" 
d="M142 -198c-23.333 6.66699 -42.668 16.665 -58.001 29.998l10 15c14 -12 32 -21.333 54 -28s44.333 -10 67 -10c64 0 110.667 21.833 140 65.5s44 106.834 44 189.501v26h-2c-18 -30.667 -41.333 -53.167 -70 -67.5s-60 -21.5 -94 -21.5
c-36.667 0 -69.5 9.83301 -98.5 29.5s-51.833 48.167 -68.5 85.5s-25 82 -25 134c0 48.667 8.33301 91.334 25 128.001s40 65 70 85s64 30 102 30c34 0 65.833 -10.333 95.5 -31s51.5 -46 65.5 -76h2l4 97h19c-2.66699 -48 -4 -94.333 -4 -139v-274
c0 -89.333 -16 -158 -48 -206s-84.333 -72 -157 -72c-25.333 0 -49.666 3.33301 -72.999 10zM316.998 36.498c24.667 12.333 44.499 29.6689 59.499 52.002s22.5 47.833 22.5 76.5v157c0 21.333 -7 44.166 -21 68.499s-33.167 44.666 -57.5 60.999s-50.833 24.5 -79.5 24.5
c-35.333 0 -66.5 -9.33301 -93.5 -28s-47.833 -45.167 -62.5 -79.5s-22 -73.833 -22 -118.5c0 -48 7.33301 -89.5 22 -124.5s35.167 -61.667 61.5 -80s56.5 -27.5 90.5 -27.5c28.667 0 55.334 6.16699 80.001 18.5zM202.997 614.001c0 27.333 10.5 48.332 31.5 62.999
s46.5 23 76.5 25l5 -13c-27.333 -2.66699 -49.833 -10 -67.5 -22s-26.5 -29.667 -26.5 -53c0 -12.667 3.66699 -24.667 11 -36s16.333 -20.666 27 -27.999l-20 -4c-24.667 20 -37 42.667 -37 68z" />
    <glyph glyph-name="Hcircumflex" unicode="&#x124;" horiz-adv-x="595" 
d="M84 674h21v-309h385v309h21v-674h-21v347h-385v-347h-21v674zM282 821h30l92 -111h-20l-86 92h-2l-85 -92h-20z" />
    <glyph glyph-name="hcircumflex" unicode="&#x125;" horiz-adv-x="496" 
d="M80 709l20.9971 0.000976562v-327h2c35.333 74 88 111 158 111c54.667 0 94.834 -18.833 120.501 -56.5s38.5 -90.834 38.5 -159.501v-277h-21v276c0 70.667 -12.833 121.667 -38.5 153s-59.5 47 -101.5 47c-37.333 0 -69.166 -12.5 -95.499 -37.5
s-44.166 -53.167 -53.499 -84.5c-4 -13.333 -6.5 -25.5 -7.5 -36.5s-1.5 -27.833 -1.5 -50.5v-267h-21v709zM75.9971 831.001h30l92 -111h-20l-86 92h-2l-85 -92h-20z" />
    <glyph glyph-name="Hbar" unicode="&#x126;" horiz-adv-x="595" 
d="M84 549h-68v17h68v108h21v-108h385v108h21v-108h68v-17h-68v-549h-21v347h-385v-347h-21v549zM490 365v184h-385v-184h385z" />
    <glyph glyph-name="hbar" unicode="&#x127;" horiz-adv-x="496" 
d="M80 592l-75.0029 0.000976562v17h75v100h21v-100h166v-17h-166v-210h2c35.333 74 88 111 158 111c54.667 0 94.834 -18.833 120.501 -56.5s38.5 -90.834 38.5 -159.501v-277h-21v276c0 70.667 -12.833 121.667 -38.5 153s-59.5 47 -101.5 47
c-37.333 0 -69.166 -12.5 -95.499 -37.5s-44.166 -53.167 -53.499 -84.5c-4 -13.333 -6.5 -25.5 -7.5 -36.5s-1.5 -27.833 -1.5 -50.5v-267h-21v592z" />
    <glyph glyph-name="Itilde" unicode="&#x128;" horiz-adv-x="189" 
d="M84 674h21v-674h-21v674zM3.5 775.5c9.66699 14.333 22.834 21.501 39.501 21.501c12 0 22.667 -2.83301 32 -8.5s20 -13.834 32 -24.501c10 -8.66699 18.167 -15 24.5 -19s13.166 -6 20.499 -6c10 0 17.5 4.16699 22.5 12.5s8.16699 24.5 9.5 48.5h16
c-0.666992 -29.333 -5.16699 -49.833 -13.5 -61.5s-19.833 -17.5 -34.5 -17.5c-10.667 0 -20.167 2.5 -28.5 7.5s-17.833 12.5 -28.5 22.5c-11.333 10 -20.5 17.167 -27.5 21.5s-15.167 6.5 -24.5 6.5c-12 0 -21.333 -5.33301 -28 -16s-9.66699 -25.667 -9 -45h-16
c-0.666992 24 3.83301 43.167 13.5 57.5z" />
    <glyph glyph-name="itilde" unicode="&#x129;" horiz-adv-x="181" 
d="M80 483h21v-483h-21v483zM-0.5 625.5c9.66699 14.333 22.834 21.501 39.501 21.501c12 0 22.667 -2.83301 32 -8.5s20 -13.834 32 -24.501c10 -8.66699 18.167 -15 24.5 -19s13.166 -6 20.499 -6c10 0 17.5 4.16699 22.5 12.5s8.16699 24.5 9.5 48.5h16
c-0.666992 -29.333 -5.16699 -49.833 -13.5 -61.5s-19.833 -17.5 -34.5 -17.5c-10.667 0 -20.167 2.5 -28.5 7.5s-17.833 12.5 -28.5 22.5c-11.333 10 -20.5 17.167 -27.5 21.5s-15.167 6.5 -24.5 6.5c-12 0 -21.333 -5.33301 -28 -16s-9.66699 -25.667 -9 -45h-16
c-0.666992 24 3.83301 43.167 13.5 57.5z" />
    <glyph glyph-name="Imacron" unicode="&#x12a;" horiz-adv-x="189" 
d="M84 674h21v-674h-21v674zM-8 757h205v-18h-205v18z" />
    <glyph glyph-name="imacron" unicode="&#x12b;" horiz-adv-x="181" 
d="M80 483h21v-483h-21v483zM-2 611h185v-17h-185v17z" />
    <glyph glyph-name="Ibreve" unicode="&#x12c;" horiz-adv-x="189" 
d="M84 674h21v-674h-21v674zM16.5 742c-17 18.667 -25.834 43.667 -26.501 75h16c0.666992 -26.667 8.16699 -47.5 22.5 -62.5s36.5 -22.5 66.5 -22.5c58.667 0 88.334 28.333 89.001 85h16c-0.666992 -34 -10.167 -59.667 -28.5 -77s-43.833 -26 -76.5 -26
c-35.333 0 -61.5 9.33301 -78.5 28z" />
    <glyph glyph-name="ibreve" unicode="&#x12d;" horiz-adv-x="181" 
d="M80 483h21v-483h-21v483zM16 585.5c-16.667 21.667 -25.334 48.832 -26.001 81.499h17c0.666992 -28 7.83398 -50.833 21.501 -68.5s34.167 -26.5 61.5 -26.5c25.333 0 45.333 8.5 60 25.5s22.334 40.167 23.001 69.5h17c-0.666992 -35.333 -10 -63.166 -28 -83.499
s-42 -30.5 -72 -30.5c-32.667 0 -57.334 10.833 -74.001 32.5z" />
    <glyph glyph-name="Iogonek" unicode="&#x12e;" horiz-adv-x="189" 
d="M50 -176.5c-12.667 12.333 -19 30.167 -19 53.5c0 24 5.16699 46.833 15.5 68.5s22.833 40.5 37.5 56.5v672h21v-674h-7c-31.333 -40 -47 -80.667 -47 -122c0 -17.333 4.5 -31 13.5 -41s20.167 -15 33.5 -15c14 0 27.667 4.33301 41 13l4 -15
c-13.333 -10 -28.666 -15 -45.999 -15c-18.667 0 -34.334 6.16699 -47.001 18.5z" />
    <glyph glyph-name="iogonek" unicode="&#x12f;" horiz-adv-x="181" 
d="M73.5 590c-4.33301 4.66699 -6.5 10.332 -6.5 16.999s2.16699 12.334 6.5 17.001s9.83301 7 16.5 7c7.33301 0 13 -2.16699 17 -6.5s6 -10.166 6 -17.499c0 -6.66699 -2.16699 -12.334 -6.5 -17.001s-9.83301 -7 -16.5 -7s-12.167 2.33301 -16.5 7zM46 -176.502
c-12.667 12.333 -19.001 30.167 -19.001 53.5c0 24 5.16699 46.833 15.5 68.5s22.833 40.5 37.5 56.5v481h21v-483h-7c-31.333 -40 -47 -80.667 -47 -122c0 -17.333 4.5 -31 13.5 -41s20.167 -15 33.5 -15c14.667 0 28.334 4.33301 41.001 13l4 -15
c-13.333 -10 -28.666 -15 -45.999 -15c-18.667 0 -34.334 6.16699 -47.001 18.5z" />
    <glyph glyph-name="Idotaccent" unicode="&#x130;" horiz-adv-x="189" 
d="M84 674h21v-674h-21v674zM77.5 736c-4.33301 4.66699 -6.5 10.332 -6.5 16.999s2.16699 12.334 6.5 17.001s9.83301 7 16.5 7c7.33301 0 13 -2.16699 17 -6.5s6 -10.166 6 -17.499c0 -6.66699 -2.16699 -12.334 -6.5 -17.001s-9.83301 -7 -16.5 -7
s-12.167 2.33301 -16.5 7z" />
    <glyph glyph-name="idotless" unicode="&#x131;" horiz-adv-x="181" 
d="M80 483h21v-483h-21v483z" />
    <glyph glyph-name="IJ" unicode="&#x132;" horiz-adv-x="500" 
d="M84 674h21v-674h-21v674zM237 -5.5c-15.333 3.66699 -28 8.16699 -38 13.5l6 17c24 -12 50 -18 78 -18c36.667 0 65.667 16 87 48s32 86.333 32 163v456h21v-457c0 -152 -46.333 -228 -139 -228c-16 0 -31.667 1.83301 -47 5.5z" />
    <glyph glyph-name="ij" unicode="&#x133;" horiz-adv-x="371" 
d="M73.5 590c-4.33301 4.66699 -6.5 10.332 -6.5 16.999s2.16699 12.334 6.5 17.001s9.83301 7 16.5 7c7.33301 0 13 -2.16699 17 -6.5s6 -10.166 6 -17.499c0 -6.66699 -2.16699 -12.334 -6.5 -17.001s-9.83301 -7 -16.5 -7s-12.167 2.33301 -16.5 7zM80 482.998h21v-483
h-21v483zM263.5 589.998c-4.33301 4.66699 -6.5 10.332 -6.5 16.999s2.16699 12.334 6.5 17.001s9.83301 7 16.5 7c7.33301 0 13 -2.16699 17 -6.5s6 -10.166 6 -17.499c0 -6.66699 -2.16699 -12.334 -6.5 -17.001s-9.83301 -7 -16.5 -7s-12.167 2.33301 -16.5 7z
M145 -190.004c19.333 2 36.833 6.99902 52.5 14.999s28.167 18 37.5 30c12 14.667 20.833 36 26.5 64s8.5 69.667 8.5 125v439h21v-444c0 -54.667 -3.33301 -97 -10 -127s-16.667 -53 -30 -69c-12 -14 -27 -25.667 -45 -35s-36.667 -14.666 -56 -15.999z" />
    <glyph glyph-name="Jcircumflex" unicode="&#x134;" horiz-adv-x="311" 
d="M48 -5.5c-15.333 3.66699 -28 8.16699 -38 13.5l6 17c24 -12 50 -18 78 -18c36.667 0 65.667 16 87 48s32 86.333 32 163v456h21v-457c0 -152 -46.333 -228 -139 -228c-16 0 -31.667 1.83301 -47 5.5zM208 821h30l92 -111h-20l-86 92h-2l-85 -92h-20z" />
    <glyph glyph-name="jcircumflex" unicode="&#x135;" horiz-adv-x="190" 
d="M-36 -190c19.333 2 36.833 6.99902 52.5 14.999s28.167 18 37.5 30c12 14.667 20.833 36 26.5 64s8.5 69.667 8.5 125v439h21v-444c0 -54.667 -3.33301 -97 -10 -127s-16.667 -53 -30 -69c-12 -14 -27 -25.667 -45 -35s-36.667 -14.666 -56 -15.999zM85 680.999h28
l91 -131h-20l-84 112h-2l-85 -112h-19z" />
    <glyph glyph-name="Kcommaaccent" unicode="&#x136;" horiz-adv-x="473" 
d="M84 674h21v-350h2l68 77l247 273h28l-259 -285l282 -389h-27l-270 374l-71 -77v-297h-21v674zM190 -186c27.333 2.66699 49.833 10.001 67.5 22.001s26.5 29.667 26.5 53c0 12.667 -3.66699 24.667 -11 36s-16.333 20.666 -27 27.999l20 4c24.667 -20 37 -42.667 37 -68
c0 -27.333 -10.5 -48.333 -31.5 -63s-46.5 -23 -76.5 -25z" />
    <glyph glyph-name="kcommaaccent" unicode="&#x137;" horiz-adv-x="398" 
d="M80 709h21v-501h2c13.333 14.667 23 25.667 29 33l65 73l150 169h28l-181 -201l212 -282h-27l-199 269l-79 -86v-183h-21v709zM158 -186c27.333 2.66699 49.833 10.001 67.5 22.001s26.5 29.667 26.5 53c0 12.667 -3.66699 24.667 -11 36s-16.333 20.666 -27 27.999l20 4
c24.667 -20 37 -42.667 37 -68c0 -27.333 -10.5 -48.333 -31.5 -63s-46.5 -23 -76.5 -25z" />
    <glyph glyph-name="kgreenlandic" unicode="&#x138;" horiz-adv-x="398" 
d="M80 483h21v-275h2c13.333 14.667 23 25.667 29 33l65 73l150 169h28l-181 -201l212 -282h-27l-199 269l-79 -86v-183h-21v483z" />
    <glyph glyph-name="Lacute" unicode="&#x139;" horiz-adv-x="403" 
d="M84 674h21v-656h280v-18h-301v674zM172 825h41l-122 -115h-18z" />
    <glyph glyph-name="lacute" unicode="&#x13a;" horiz-adv-x="181" 
d="M80 709h21v-709h-21v709zM165 855h41l-122 -115h-18z" />
    <glyph glyph-name="Lcommaaccent" unicode="&#x13b;" horiz-adv-x="403" 
d="M84 674h21v-656h280v-18h-301v674zM165 -196c27.333 2.66699 49.833 10.001 67.5 22.001s26.5 29.667 26.5 53c0 12.667 -3.66699 24.667 -11 36s-16.333 20.666 -27 27.999l20 4c24.667 -20 37 -42.667 37 -68c0 -27.333 -10.5 -48.333 -31.5 -63s-46.5 -23 -76.5 -25z
" />
    <glyph glyph-name="lcommaaccent" unicode="&#x13c;" horiz-adv-x="181" 
d="M80 709h21v-709h-21v709zM24 -196c27.333 2.66699 49.833 10.001 67.5 22.001s26.5 29.667 26.5 53c0 12.667 -3.66699 24.667 -11 36s-16.333 20.666 -27 27.999l20 4c24.667 -20 37 -42.667 37 -68c0 -27.333 -10.5 -48.333 -31.5 -63s-46.5 -23 -76.5 -25z" />
    <glyph glyph-name="Lcaron" unicode="&#x13d;" horiz-adv-x="403" 
d="M84 674h21v-656h280v-18h-301v674zM243 542c27.333 2.66699 49.833 10.001 67.5 22.001s26.5 29.667 26.5 53c0 12.667 -3.66699 24.667 -11 36s-16.333 20.666 -27 27.999l20 4c24.667 -20 37 -42.667 37 -68c0 -27.333 -10.5 -48.333 -31.5 -63s-46.5 -23 -76.5 -25z
" />
    <glyph glyph-name="lcaron" unicode="&#x13e;" horiz-adv-x="191" 
d="M80 709h21v-709h-21v709zM152 543c30.667 26.667 46.001 58.667 46.001 96c0 27.333 -11.333 50.333 -34 69l17 4c24 -20 36 -44.333 36 -73c0 -22 -5.33301 -42 -16 -60s-23.334 -32.667 -38.001 -44z" />
    <glyph glyph-name="Ldot" unicode="&#x13f;" horiz-adv-x="403" 
d="M84 674h21v-656h280v-18h-301v674zM283.5 347c-4.33301 4.66699 -6.5 10.332 -6.5 16.999s2.16699 12.334 6.5 17.001s9.83301 7 16.5 7c7.33301 0 13 -2.16699 17 -6.5s6 -10.166 6 -17.499c0 -6.66699 -2.16699 -12.334 -6.5 -17.001s-9.83301 -7 -16.5 -7
s-12.167 2.33301 -16.5 7z" />
    <glyph glyph-name="ldot" unicode="&#x140;" horiz-adv-x="191" 
d="M80 709h21v-709h-21v709zM171.5 368c-4.33301 4.66699 -6.5 10.332 -6.5 16.999s2.16699 12.334 6.5 17.001s9.83301 7 16.5 7c7.33301 0 13 -2.16699 17 -6.5s6 -10.166 6 -17.499c0 -6.66699 -2.16699 -12.334 -6.5 -17.001s-9.83301 -7 -16.5 -7
s-12.167 2.33301 -16.5 7z" />
    <glyph glyph-name="Lslash" unicode="&#x141;" horiz-adv-x="413" 
d="M94 312l-83 -61v21l83 61v341h21v-326l139 102v-21l-139 -102v-309h280v-18h-301v312z" />
    <glyph glyph-name="lslash" unicode="&#x142;" horiz-adv-x="191" 
d="M85 380l-66 -55v22l66 55v307h21v-289l75 63v-22l-75 -63v-398h-21v380z" />
    <glyph glyph-name="Nacute" unicode="&#x143;" horiz-adv-x="605" 
d="M84 674l25 -0.000976562l221 -360l170 -280h2c-1.33301 42.667 -2 106.334 -2 191.001v128v321h21v-674h-23l-219 355l-74 121l-52 86l-48 80h-2c1.33301 -70.667 2 -177.667 2 -321v-321h-21v674zM397 824.999h41l-122 -115h-18z" />
    <glyph glyph-name="nacute" unicode="&#x144;" horiz-adv-x="496" 
d="M80 312c0 60.667 -1.33594 117.668 -4.00293 171.001h19l4 -103h2c36 75.333 89.333 113 160 113c54.667 0 94.834 -18.833 120.501 -56.5s38.5 -90.834 38.5 -159.501v-277h-21v276c0 70.667 -12.833 121.667 -38.5 153s-59.5 47 -101.5 47
c-37.333 0 -69.166 -12.5 -95.499 -37.5s-44.166 -53.167 -53.499 -84.5c-4 -13.333 -6.5 -25.5 -7.5 -36.5s-1.5 -27.833 -1.5 -50.5v-267h-21v312zM310.997 686.001h36l-113 -136h-16z" />
    <glyph glyph-name="Ncommaaccent" unicode="&#x145;" horiz-adv-x="605" 
d="M84 674l25 -0.000976562l221 -360l170 -280h2c-1.33301 42.667 -2 106.334 -2 191.001v128v321h21v-674h-23l-219 355l-74 121l-52 86l-48 80h-2c1.33301 -70.667 2 -177.667 2 -321v-321h-21v674zM233 -186.001c27.333 2.66699 49.833 10.001 67.5 22.001
s26.5 29.667 26.5 53c0 12.667 -3.66699 24.667 -11 36s-16.333 20.666 -27 27.999l20 4c24.667 -20 37 -42.667 37 -68c0 -27.333 -10.5 -48.333 -31.5 -63s-46.5 -23 -76.5 -25z" />
    <glyph glyph-name="ncommaaccent" unicode="&#x146;" horiz-adv-x="496" 
d="M80 312c0 60.667 -1.33594 117.668 -4.00293 171.001h19l4 -103h2c36 75.333 89.333 113 160 113c54.667 0 94.834 -18.833 120.501 -56.5s38.5 -90.834 38.5 -159.501v-277h-21v276c0 70.667 -12.833 121.667 -38.5 153s-59.5 47 -101.5 47
c-37.333 0 -69.166 -12.5 -95.499 -37.5s-44.166 -53.167 -53.499 -84.5c-4 -13.333 -6.5 -25.5 -7.5 -36.5s-1.5 -27.833 -1.5 -50.5v-267h-21v312zM182.997 -185.999c27.333 2.66699 49.833 10.001 67.5 22.001s26.5 29.667 26.5 53c0 12.667 -3.66699 24.667 -11 36
s-16.333 20.666 -27 27.999l20 4c24.667 -20 37 -42.667 37 -68c0 -27.333 -10.5 -48.333 -31.5 -63s-46.5 -23 -76.5 -25z" />
    <glyph glyph-name="Ncaron" unicode="&#x147;" horiz-adv-x="605" 
d="M84 674l25 -0.000976562l221 -360l170 -280h2c-1.33301 42.667 -2 106.334 -2 191.001v128v321h21v-674h-23l-219 355l-74 121l-52 86l-48 80h-2c1.33301 -70.667 2 -177.667 2 -321v-321h-21v674zM211 820.999h20l86 -92h2l85 92h20l-91 -111h-29z" />
    <glyph glyph-name="ncaron" unicode="&#x148;" horiz-adv-x="496" 
d="M80 312c0 60.667 -1.33594 117.668 -4.00293 171.001h19l4 -103h2c36 75.333 89.333 113 160 113c54.667 0 94.834 -18.833 120.501 -56.5s38.5 -90.834 38.5 -159.501v-277h-21v276c0 70.667 -12.833 121.667 -38.5 153s-59.5 47 -101.5 47
c-37.333 0 -69.166 -12.5 -95.499 -37.5s-44.166 -53.167 -53.499 -84.5c-4 -13.333 -6.5 -25.5 -7.5 -36.5s-1.5 -27.833 -1.5 -50.5v-267h-21v312zM144.997 681.001h20l84 -112h2l85 112h19l-91 -131h-28z" />
    <glyph glyph-name="napostrophe" unicode="&#x149;" horiz-adv-x="496" 
d="M80 312c0 60.667 -1.33594 117.668 -4.00293 171.001h19l4 -103h2c36 75.333 89.333 113 160 113c54.667 0 94.834 -18.833 120.501 -56.5s38.5 -90.834 38.5 -159.501v-277h-21v276c0 70.667 -12.833 121.667 -38.5 153s-59.5 47 -101.5 47
c-37.333 0 -69.166 -12.5 -95.499 -37.5s-44.166 -53.167 -53.499 -84.5c-4 -13.333 -6.5 -25.5 -7.5 -36.5s-1.5 -27.833 -1.5 -50.5v-267h-21v312zM19.9971 543.001c30.667 26.667 46.001 58.667 46.001 96c0 27.333 -11.333 50.333 -34 69l17 4c24 -20 36 -44.333 36 -73
c0 -22 -5.33301 -42 -16 -60s-23.334 -32.667 -38.001 -44z" />
    <glyph glyph-name="Eng" unicode="&#x14a;" horiz-adv-x="605" 
d="M376 -185c19.333 2 36.499 6.99805 51.499 14.998s27.5 18 37.5 30c10 12.667 17.833 29.334 23.5 50.001s9.16699 50 10.5 88l-220 357l-74 121l-52 86l-48 80h-2c1.33301 -70.667 2 -177.667 2 -321v-321h-21v674h25l221 -360l170 -280h2
c-1.33301 42.667 -2 106.334 -2 191.001v128v321h21v-635c0 -54 -3.16699 -95.333 -9.5 -124s-16.5 -51.334 -30.5 -68.001c-12 -14 -27.167 -25.667 -45.5 -35s-37.166 -14.666 -56.499 -15.999z" />
    <glyph glyph-name="eng" unicode="&#x14b;" horiz-adv-x="496" 
d="M274 -134c19.333 2 36.8301 7 52.4971 15s28.167 18 37.5 30c12 14.667 20.833 36 26.5 64s8.5 69.667 8.5 125v176c0 70.667 -12.833 121.667 -38.5 153s-59.5 47 -101.5 47c-37.333 0 -69.166 -12.5 -95.499 -37.5s-44.166 -53.167 -53.499 -84.5
c-4 -13.333 -6.5 -25.5 -7.5 -36.5s-1.5 -27.833 -1.5 -50.5v-267h-21v312c0 60.667 -1.33301 117.667 -4 171h19l4 -103h2c36 75.333 89.333 113 160 113c54.667 0 94.834 -18.833 120.501 -56.5s38.5 -90.834 38.5 -159.501v-182c0 -54.667 -3.33301 -97 -10 -127
s-16.667 -53 -30 -69c-12 -14 -27 -25.667 -45 -35s-36.667 -14.666 -56 -15.999z" />
    <glyph glyph-name="Omacron" unicode="&#x14c;" horiz-adv-x="623" 
d="M170 32c-40.667 28.667 -72.833 69.001 -96.5 121.001s-35.5 111.333 -35.5 178c0 69.333 12.333 131 37 185s58.167 95.667 100.5 125s89.166 44 140.499 44c52.667 0 99.334 -14.5 140.001 -43.5s72.334 -69.333 95.001 -121s34 -110.5 34 -176.5
c0 -74.667 -12.5 -138.834 -37.5 -192.501s-58.667 -94.167 -101 -121.5s-88.833 -41 -139.5 -41s-96.334 14.333 -137.001 43zM437.001 47.001c38.667 26.667 69.166 65.334 91.499 116.001s33.5 110.667 33.5 180c0 61.333 -10.333 116.666 -31 165.999
s-49.667 88 -87 116s-80 42 -128 42s-91.333 -14.167 -130 -42.5s-69.167 -68 -91.5 -119s-33.5 -109.167 -33.5 -174.5c0 -62 10.667 -117.667 32 -167s50.833 -87.833 88.5 -115.5s79.834 -41.5 126.501 -41.5c47.333 0 90.333 13.333 129 40zM219 757.001h205v-18h-205
v18z" />
    <glyph glyph-name="omacron" unicode="&#x14d;" horiz-adv-x="487" 
d="M139 19.5c-30 20.333 -53.8311 49.334 -71.498 87.001s-26.5 81.5 -26.5 131.5c0 52.667 9.16699 98.167 27.5 136.5s43.166 67.666 74.499 87.999s65.666 30.5 102.999 30.5c38.667 0 73.167 -10.333 103.5 -31s54 -49.667 71 -87s25.5 -80.333 25.5 -129
c0 -57.333 -10 -105.333 -30 -144s-45.667 -67.167 -77 -85.5s-64.333 -27.5 -99 -27.5c-37.333 0 -71 10.167 -101 30.5zM330.002 32.501c27.333 17.667 49.833 44.667 67.5 81s26.5 80.5 26.5 132.5c0 44 -7.33301 83.5 -22 118.5s-35.5 62.333 -62.5 82
s-58.167 29.5 -93.5 29.5c-34.667 0 -65.834 -9.66699 -93.501 -29s-49.5 -47 -65.5 -83s-24 -78 -24 -126c0 -46 7.83301 -86.667 23.5 -122s37.334 -62.5 65.001 -81.5s58.5 -28.5 92.5 -28.5c30 0 58.667 8.83301 86 26.5zM160.002 611.001h185v-17h-185v17z" />
    <glyph glyph-name="Obreve" unicode="&#x14e;" horiz-adv-x="623" 
d="M170 32c-40.667 28.667 -72.833 69.001 -96.5 121.001s-35.5 111.333 -35.5 178c0 69.333 12.333 131 37 185s58.167 95.667 100.5 125s89.166 44 140.499 44c52.667 0 99.334 -14.5 140.001 -43.5s72.334 -69.333 95.001 -121s34 -110.5 34 -176.5
c0 -74.667 -12.5 -138.834 -37.5 -192.501s-58.667 -94.167 -101 -121.5s-88.833 -41 -139.5 -41s-96.334 14.333 -137.001 43zM437.001 47.001c38.667 26.667 69.166 65.334 91.499 116.001s33.5 110.667 33.5 180c0 61.333 -10.333 116.666 -31 165.999
s-49.667 88 -87 116s-80 42 -128 42s-91.333 -14.167 -130 -42.5s-69.167 -68 -91.5 -119s-33.5 -109.167 -33.5 -174.5c0 -62 10.667 -117.667 32 -167s50.833 -87.833 88.5 -115.5s79.834 -41.5 126.501 -41.5c47.333 0 90.333 13.333 129 40zM240.5 742.001
c-17 18.667 -25.834 43.667 -26.501 75h16c0.666992 -26.667 8.16699 -47.5 22.5 -62.5s36.5 -22.5 66.5 -22.5c58.667 0 88.334 28.333 89.001 85h16c-0.666992 -34 -10.167 -59.667 -28.5 -77s-43.833 -26 -76.5 -26c-35.333 0 -61.5 9.33301 -78.5 28z" />
    <glyph glyph-name="obreve" unicode="&#x14f;" horiz-adv-x="487" 
d="M139 19.5c-30 20.333 -53.8311 49.334 -71.498 87.001s-26.5 81.5 -26.5 131.5c0 52.667 9.16699 98.167 27.5 136.5s43.166 67.666 74.499 87.999s65.666 30.5 102.999 30.5c38.667 0 73.167 -10.333 103.5 -31s54 -49.667 71 -87s25.5 -80.333 25.5 -129
c0 -57.333 -10 -105.333 -30 -144s-45.667 -67.167 -77 -85.5s-64.333 -27.5 -99 -27.5c-37.333 0 -71 10.167 -101 30.5zM330.002 32.501c27.333 17.667 49.833 44.667 67.5 81s26.5 80.5 26.5 132.5c0 44 -7.33301 83.5 -22 118.5s-35.5 62.333 -62.5 82
s-58.167 29.5 -93.5 29.5c-34.667 0 -65.834 -9.66699 -93.501 -29s-49.5 -47 -65.5 -83s-24 -78 -24 -126c0 -46 7.83301 -86.667 23.5 -122s37.334 -62.5 65.001 -81.5s58.5 -28.5 92.5 -28.5c30 0 58.667 8.83301 86 26.5zM174.002 585.501
c-16.667 21.667 -25.334 48.832 -26.001 81.499h17c0.666992 -28 7.83398 -50.833 21.501 -68.5s34.167 -26.5 61.5 -26.5c25.333 0 45.333 8.5 60 25.5s22.334 40.167 23.001 69.5h17c-0.666992 -35.333 -10 -63.166 -28 -83.499s-42 -30.5 -72 -30.5
c-32.667 0 -57.334 10.833 -74.001 32.5z" />
    <glyph glyph-name="Ohungarumlaut" unicode="&#x150;" horiz-adv-x="623" 
d="M170 32c-40.667 28.667 -72.833 69.001 -96.5 121.001s-35.5 111.333 -35.5 178c0 69.333 12.333 131 37 185s58.167 95.667 100.5 125s89.166 44 140.499 44c52.667 0 99.334 -14.5 140.001 -43.5s72.334 -69.333 95.001 -121s34 -110.5 34 -176.5
c0 -74.667 -12.5 -138.834 -37.5 -192.501s-58.667 -94.167 -101 -121.5s-88.833 -41 -139.5 -41s-96.334 14.333 -137.001 43zM437.001 47.001c38.667 26.667 69.166 65.334 91.499 116.001s33.5 110.667 33.5 180c0 61.333 -10.333 116.666 -31 165.999
s-49.667 88 -87 116s-80 42 -128 42s-91.333 -14.167 -130 -42.5s-69.167 -68 -91.5 -119s-33.5 -109.167 -33.5 -174.5c0 -62 10.667 -117.667 32 -167s50.833 -87.833 88.5 -115.5s79.834 -41.5 126.501 -41.5c47.333 0 90.333 13.333 129 40zM326 825.001h39l-108 -115
h-13zM444 825.001h39l-108 -115h-13z" />
    <glyph glyph-name="ohungarumlaut" unicode="&#x151;" horiz-adv-x="487" 
d="M139 19.5c-30 20.333 -53.8311 49.334 -71.498 87.001s-26.5 81.5 -26.5 131.5c0 52.667 9.16699 98.167 27.5 136.5s43.166 67.666 74.499 87.999s65.666 30.5 102.999 30.5c38.667 0 73.167 -10.333 103.5 -31s54 -49.667 71 -87s25.5 -80.333 25.5 -129
c0 -57.333 -10 -105.333 -30 -144s-45.667 -67.167 -77 -85.5s-64.333 -27.5 -99 -27.5c-37.333 0 -71 10.167 -101 30.5zM330.002 32.501c27.333 17.667 49.833 44.667 67.5 81s26.5 80.5 26.5 132.5c0 44 -7.33301 83.5 -22 118.5s-35.5 62.333 -62.5 82
s-58.167 29.5 -93.5 29.5c-34.667 0 -65.834 -9.66699 -93.501 -29s-49.5 -47 -65.5 -83s-24 -78 -24 -126c0 -46 7.83301 -86.667 23.5 -122s37.334 -62.5 65.001 -81.5s58.5 -28.5 92.5 -28.5c30 0 58.667 8.83301 86 26.5zM253.002 686.001h38l-107 -136h-13z
M371.002 686.001h38l-107 -136h-13z" />
    <glyph glyph-name="OE" unicode="&#x152;" horiz-adv-x="807" 
d="M175.5 31.5c-43.667 28.333 -77.499 68.332 -101.499 119.999s-36 111.834 -36 180.501c0 72 12.167 134.5 36.5 187.5s59 93.833 104 122.5s97.833 43 158.5 43c14 0 37.667 -1.33301 71 -4l21 -2l54 -5h274v-18h-267v-291h251v-18h-251v-329h282v-18h-291
c-4 0 -18 -1.33301 -42 -4l-28 -3c-28.667 -2.66699 -56.334 -4 -83.001 -4c-58 0 -108.833 14.167 -152.5 42.5zM469.001 18.999v635.999c-53.333 8 -97.333 12 -132 12c-56 0 -104.833 -13.5 -146.5 -40.5s-73.667 -65.667 -96 -116s-33.5 -109.5 -33.5 -177.5
c0 -65.333 11 -122.666 33 -171.999s53.333 -87.333 94 -114s88 -40 142 -40c42.667 0 89 4 139 12z" />
    <glyph glyph-name="oe" unicode="&#x153;" horiz-adv-x="795" 
d="M137.5 19.5c-29.667 20.333 -53.165 49.333 -70.498 87s-26 81.5 -26 131.5c0 52.667 9 98.167 27 136.5s42.333 67.666 73 87.999s64.667 30.5 102 30.5c39.333 0 74.333 -13.667 105 -41s52.667 -66 66 -116h2c14 50.667 36 89.5 66 116.5s64.667 40.5 104 40.5
c42 0 75.667 -10.667 101 -32s43 -47.166 53 -77.499s15 -60.5 15 -90.5c0 -19.333 -0.666992 -33.333 -2 -42h-328c0 -55.333 8.16699 -101.333 24.5 -138s37.666 -63.667 63.999 -81s55.5 -26 87.5 -26c25.333 0 48.666 3.16699 69.999 9.5s39.333 13.5 54 21.5l5 -17
c-15.333 -8.66699 -34.333 -16 -57 -22s-46.667 -9 -72 -9c-44 0 -82.333 13.833 -115 41.5s-56 67.5 -70 119.5h-2c-14 -52 -37.167 -91.833 -69.5 -119.5s-68.166 -41.5 -107.499 -41.5c-36.667 0 -69.834 10.167 -99.501 30.5zM318.502 32.5
c25.667 17.667 46.501 44.5 62.501 80.5s24 80 24 132c0 44.667 -6.83301 84.5 -20.5 119.5s-32.834 62.333 -57.501 82s-52.667 29.5 -84 29.5c-34.667 0 -65.5 -9.66699 -92.5 -29s-48.333 -47 -64 -83s-23.5 -78 -23.5 -126c0 -46.667 7.5 -87.5 22.5 -122.5
s35.833 -62 62.5 -81s56.667 -28.5 90 -28.5c28 0 54.833 8.83301 80.5 26.5zM734.003 268c0.666992 5.33301 0.999023 15 0.999023 29c0 26.667 -4.5 53.667 -13.5 81s-24.667 50.5 -47 69.5s-52.166 28.5 -89.499 28.5c-45.333 0 -82.5 -19.167 -111.5 -57.5
s-45.167 -88.5 -48.5 -150.5h309z" />
    <glyph glyph-name="Racute" unicode="&#x154;" horiz-adv-x="476" 
d="M84 664c40 10 83.665 15 130.998 15c68 0 119.833 -14.667 155.5 -44s53.5 -71.666 53.5 -126.999c0 -42.667 -12.5 -79.5 -37.5 -110.5s-60.167 -52.833 -105.5 -65.5v-2c32.667 -7.33301 58.334 -23.5 77.001 -48.5s33.667 -61.167 45 -108.5l14 -56
c6.66699 -28.667 12.834 -53.834 18.501 -75.501s10.167 -35.5 13.5 -41.5h-23c-3.33301 8 -12 39.333 -26 94l-18 74c-10.667 42 -23 73.833 -37 95.5s-31.833 36.667 -53.5 45s-51.167 12.5 -88.5 12.5h-98v-321h-21v664zM198.998 338c64 0 114 15.667 150 47
s54 72 54 122c0 50.667 -16.167 89 -48.5 115s-78.5 39 -138.5 39c-44.667 0 -81.667 -3.66699 -111 -11v-312h94zM311.998 825h41l-122 -115h-18z" />
    <glyph glyph-name="racute" unicode="&#x155;" horiz-adv-x="257" 
d="M80 345c0 20 -0.666992 48.667 -2 86c-1.33301 24 -2 41.333 -2 52h19l4 -113h2c12 34.667 30 63.834 54 87.501s49.333 35.5 76 35.5c5.33301 0 12 -0.666992 20 -2v-20c-8 1.33301 -15 2 -21 2c-23.333 0 -45.833 -10.5 -67.5 -31.5s-38.5 -50.167 -50.5 -87.5
c-4 -13.333 -6.83301 -26.833 -8.5 -40.5s-2.5 -30.834 -2.5 -51.501v-262h-21v345zM216 686h36l-113 -136h-16z" />
    <glyph glyph-name="Rcommaaccent" unicode="&#x156;" horiz-adv-x="476" 
d="M84 664c40 10 83.665 15 130.998 15c68 0 119.833 -14.667 155.5 -44s53.5 -71.666 53.5 -126.999c0 -42.667 -12.5 -79.5 -37.5 -110.5s-60.167 -52.833 -105.5 -65.5v-2c32.667 -7.33301 58.334 -23.5 77.001 -48.5s33.667 -61.167 45 -108.5l14 -56
c6.66699 -28.667 12.834 -53.834 18.501 -75.501s10.167 -35.5 13.5 -41.5h-23c-3.33301 8 -12 39.333 -26 94l-18 74c-10.667 42 -23 73.833 -37 95.5s-31.833 36.667 -53.5 45s-51.167 12.5 -88.5 12.5h-98v-321h-21v664zM198.998 338c64 0 114 15.667 150 47
s54 72 54 122c0 50.667 -16.167 89 -48.5 115s-78.5 39 -138.5 39c-44.667 0 -81.667 -3.66699 -111 -11v-312h94zM192.998 -186c27.333 2.66699 49.833 10.001 67.5 22.001s26.5 29.667 26.5 53c0 12.667 -3.66699 24.667 -11 36s-16.333 20.666 -27 27.999l20 4
c24.667 -20 37 -42.667 37 -68c0 -27.333 -10.5 -48.333 -31.5 -63s-46.5 -23 -76.5 -25z" />
    <glyph glyph-name="rcommaaccent" unicode="&#x157;" horiz-adv-x="257" 
d="M80 345c0 20 -0.666992 48.667 -2 86c-1.33301 24 -2 41.333 -2 52h19l4 -113h2c12 34.667 30 63.834 54 87.501s49.333 35.5 76 35.5c5.33301 0 12 -0.666992 20 -2v-20c-8 1.33301 -15 2 -21 2c-23.333 0 -45.833 -10.5 -67.5 -31.5s-38.5 -50.167 -50.5 -87.5
c-4 -13.333 -6.83301 -26.833 -8.5 -40.5s-2.5 -30.834 -2.5 -51.501v-262h-21v345zM24 -196c27.333 2.66699 49.833 10.001 67.5 22.001s26.5 29.667 26.5 53c0 12.667 -3.66699 24.667 -11 36s-16.333 20.666 -27 27.999l20 4c24.667 -20 37 -42.667 37 -68
c0 -27.333 -10.5 -48.333 -31.5 -63s-46.5 -23 -76.5 -25z" />
    <glyph glyph-name="Rcaron" unicode="&#x158;" horiz-adv-x="476" 
d="M84 664c40 10 83.665 15 130.998 15c68 0 119.833 -14.667 155.5 -44s53.5 -71.666 53.5 -126.999c0 -42.667 -12.5 -79.5 -37.5 -110.5s-60.167 -52.833 -105.5 -65.5v-2c32.667 -7.33301 58.334 -23.5 77.001 -48.5s33.667 -61.167 45 -108.5l14 -56
c6.66699 -28.667 12.834 -53.834 18.501 -75.501s10.167 -35.5 13.5 -41.5h-23c-3.33301 8 -12 39.333 -26 94l-18 74c-10.667 42 -23 73.833 -37 95.5s-31.833 36.667 -53.5 45s-51.167 12.5 -88.5 12.5h-98v-321h-21v664zM198.998 338c64 0 114 15.667 150 47
s54 72 54 122c0 50.667 -16.167 89 -48.5 115s-78.5 39 -138.5 39c-44.667 0 -81.667 -3.66699 -111 -11v-312h94zM137.998 821h20l86 -92h2l85 92h20l-91 -111h-29z" />
    <glyph glyph-name="rcaron" unicode="&#x159;" horiz-adv-x="257" 
d="M80 345c0 20 -0.666992 48.667 -2 86c-1.33301 24 -2 41.333 -2 52h19l4 -113h2c12 34.667 30 63.834 54 87.501s49.333 35.5 76 35.5c5.33301 0 12 -0.666992 20 -2v-20c-8 1.33301 -15 2 -21 2c-23.333 0 -45.833 -10.5 -67.5 -31.5s-38.5 -50.167 -50.5 -87.5
c-4 -13.333 -6.83301 -26.833 -8.5 -40.5s-2.5 -30.834 -2.5 -51.501v-262h-21v345zM55 681h20l84 -112h2l85 112h19l-91 -131h-28z" />
    <glyph glyph-name="Sacute" unicode="&#x15a;" horiz-adv-x="425" 
d="M103.5 1.5c-25 7.66699 -45.5 17.1689 -61.5 28.502l7 20c13.333 -12 32.166 -21.833 56.499 -29.5s48.5 -11.5 72.5 -11.5c56 0 99.333 15.5 130 46.5s46 70.5 46 118.5c0 40 -12.667 72.333 -38 97s-61.333 48 -108 70c-49.333 23.333 -87.166 47.5 -113.499 72.5
s-39.5 58.833 -39.5 101.5c0 50.667 16.667 91.5 50 122.5s77 46.5 131 46.5c24 0 45.833 -2.83301 65.5 -8.5s35.5 -12.834 47.5 -21.501l-8 -18c-10.667 8 -25.5 15 -44.5 21s-39.167 9 -60.5 9c-48 0 -86.667 -13.833 -116 -41.5s-44 -63.5 -44 -107.5
c0 -26.667 6.5 -49.667 19.5 -69s29.5 -35.5 49.5 -48.5s46 -27.167 78 -42.5c48 -22.667 85.5 -47.834 112.5 -75.501s40.5 -63.167 40.5 -106.5c0 -34.667 -7.66699 -66 -23 -94s-38 -50.167 -68 -66.5s-66 -24.5 -108 -24.5c-24 0 -48.5 3.83301 -73.5 11.5zM282 825.002
h41l-122 -115h-18z" />
    <glyph glyph-name="sacute" unicode="&#x15b;" horiz-adv-x="331" 
d="M88 -2.5c-18 5 -33.334 12.498 -46.001 22.498l8 16c10.667 -8.66699 24.834 -15.667 42.501 -21s34.834 -8 51.501 -8c38 0 68.333 10.667 91 32s34 49.333 34 84c0 30 -7.5 53.5 -22.5 70.5s-41.167 34.167 -78.5 51.5c-38 17.333 -66.333 35.833 -85 55.5
s-28 44.5 -28 74.5c0 37.333 11.5 66.333 34.5 87s54.833 31 95.5 31c35.333 0 64.333 -8 87 -24l-7 -16c-20 15.333 -47.333 23 -82 23c-31.333 0 -57 -8.16699 -77 -24.5s-30 -41.166 -30 -74.499c0 -26.667 8.16699 -48.167 24.5 -64.5s42.166 -33.166 77.499 -50.499
c40.667 -19.333 69.5 -38.5 86.5 -57.5s25.5 -45.833 25.5 -80.5c0 -40 -13.167 -72.333 -39.5 -97s-61.833 -37 -106.5 -37c-19.333 0 -38 2.5 -56 7.5zM240.999 685.998h36l-113 -136h-16z" />
    <glyph glyph-name="Scircumflex" unicode="&#x15c;" horiz-adv-x="425" 
d="M103.5 1.5c-25 7.66699 -45.5 17.1689 -61.5 28.502l7 20c13.333 -12 32.166 -21.833 56.499 -29.5s48.5 -11.5 72.5 -11.5c56 0 99.333 15.5 130 46.5s46 70.5 46 118.5c0 40 -12.667 72.333 -38 97s-61.333 48 -108 70c-49.333 23.333 -87.166 47.5 -113.499 72.5
s-39.5 58.833 -39.5 101.5c0 50.667 16.667 91.5 50 122.5s77 46.5 131 46.5c24 0 45.833 -2.83301 65.5 -8.5s35.5 -12.834 47.5 -21.501l-8 -18c-10.667 8 -25.5 15 -44.5 21s-39.167 9 -60.5 9c-48 0 -86.667 -13.833 -116 -41.5s-44 -63.5 -44 -107.5
c0 -26.667 6.5 -49.667 19.5 -69s29.5 -35.5 49.5 -48.5s46 -27.167 78 -42.5c48 -22.667 85.5 -47.834 112.5 -75.501s40.5 -63.167 40.5 -106.5c0 -34.667 -7.66699 -66 -23 -94s-38 -50.167 -68 -66.5s-66 -24.5 -108 -24.5c-24 0 -48.5 3.83301 -73.5 11.5zM204 821.002
h30l92 -111h-20l-86 92h-2l-85 -92h-20z" />
    <glyph glyph-name="scircumflex" unicode="&#x15d;" horiz-adv-x="331" 
d="M88 -2.5c-18 5 -33.334 12.498 -46.001 22.498l8 16c10.667 -8.66699 24.834 -15.667 42.501 -21s34.834 -8 51.501 -8c38 0 68.333 10.667 91 32s34 49.333 34 84c0 30 -7.5 53.5 -22.5 70.5s-41.167 34.167 -78.5 51.5c-38 17.333 -66.333 35.833 -85 55.5
s-28 44.5 -28 74.5c0 37.333 11.5 66.333 34.5 87s54.833 31 95.5 31c35.333 0 64.333 -8 87 -24l-7 -16c-20 15.333 -47.333 23 -82 23c-31.333 0 -57 -8.16699 -77 -24.5s-30 -41.166 -30 -74.499c0 -26.667 8.16699 -48.167 24.5 -64.5s42.166 -33.166 77.499 -50.499
c40.667 -19.333 69.5 -38.5 86.5 -57.5s25.5 -45.833 25.5 -80.5c0 -40 -13.167 -72.333 -39.5 -97s-61.833 -37 -106.5 -37c-19.333 0 -38 2.5 -56 7.5zM159.999 680.998h28l91 -131h-20l-84 112h-2l-85 -112h-19z" />
    <glyph glyph-name="Scedilla" unicode="&#x15e;" horiz-adv-x="425" 
d="M162 -187c-10.667 3.33301 -19.335 7.66797 -26.002 13.001l6 16c13.333 -11.333 31 -17 53 -17c14.667 0 27.334 3.66699 38.001 11s16 19 16 35c0 18 -7.5 31.167 -22.5 39.5s-33.833 12.833 -56.5 13.5l39 68c-13.333 -1.33301 -24 -2 -32 -2
c-24 0 -48.5 3.83301 -73.5 11.5s-45.5 17.167 -61.5 28.5l7 20c13.333 -12 32.166 -21.833 56.499 -29.5s48.5 -11.5 72.5 -11.5c56 0 99.333 15.5 130 46.5s46 70.5 46 118.5c0 40 -12.667 72.333 -38 97s-61.333 48 -108 70c-49.333 23.333 -87.166 47.5 -113.499 72.5
s-39.5 58.833 -39.5 101.5c0 50.667 16.667 91.5 50 122.5s77 46.5 131 46.5c24 0 45.833 -2.83301 65.5 -8.5s35.5 -12.834 47.5 -21.501l-8 -18c-10.667 8 -25.5 15 -44.5 21s-39.167 9 -60.5 9c-48 0 -86.667 -13.833 -116 -41.5s-44 -63.5 -44 -107.5
c0 -26.667 6.5 -49.667 19.5 -69s29.5 -35.5 49.5 -48.5s46 -27.167 78 -42.5c48 -22.667 85.5 -47.834 112.5 -75.501s40.5 -63.167 40.5 -106.5c0 -45.333 -12.667 -84.333 -38 -117s-61.666 -53.667 -108.999 -63l-35 -59c20.667 -1.33301 38.167 -7.66602 52.5 -18.999
s21.5 -26.666 21.5 -45.999c0 -20.667 -7.16699 -36.334 -21.5 -47.001s-31.5 -16 -51.5 -16c-11.333 0 -22.333 1.66699 -33 5z" />
    <glyph glyph-name="scedilla" unicode="&#x15f;" horiz-adv-x="331" 
d="M112 -187c-10.667 3.33301 -19.335 7.66406 -26.002 12.9971l6 16c13.333 -11.333 31 -17 53 -17c14.667 0 27.334 3.66699 38.001 11s16 19 16 35c0 18 -7.5 31.167 -22.5 39.5s-33.833 12.833 -56.5 13.5l39 67c-3.33301 -0.666992 -8.66602 -1 -15.999 -1
c-19.333 0 -37.833 2.5 -55.5 7.5s-32.834 12.5 -45.501 22.5l8 16c10.667 -8.66699 24.834 -15.667 42.501 -21s34.834 -8 51.501 -8c38 0 68.333 10.667 91 32s34 49.333 34 84c0 30 -7.5 53.5 -22.5 70.5s-41.167 34.167 -78.5 51.5c-38 17.333 -66.333 35.833 -85 55.5
s-28 44.5 -28 74.5c0 37.333 11.5 66.333 34.5 87s54.833 31 95.5 31c35.333 0 64.333 -8 87 -24l-7 -16c-20 15.333 -47.333 23 -82 23c-31.333 0 -57 -8.16699 -77 -24.5s-30 -41.166 -30 -74.499c0 -26.667 8.16699 -48.167 24.5 -64.5s42.166 -33.166 77.499 -50.499
c40.667 -19.333 69.5 -38.5 86.5 -57.5s25.5 -45.833 25.5 -80.5s-10 -63.667 -30 -87s-47.333 -38 -82 -44l-34 -57c20.667 -1.33301 38.167 -7.66602 52.5 -18.999s21.5 -26.666 21.5 -45.999c0 -20.667 -7.16699 -36.334 -21.5 -47.001s-31.5 -16 -51.5 -16
c-11.333 0 -22.333 1.66699 -33 5z" />
    <glyph glyph-name="Scaron" unicode="&#x160;" horiz-adv-x="425" 
d="M103.5 1.5c-25 7.66699 -45.5 17.1689 -61.5 28.502l7 20c13.333 -12 32.166 -21.833 56.499 -29.5s48.5 -11.5 72.5 -11.5c56 0 99.333 15.5 130 46.5s46 70.5 46 118.5c0 40 -12.667 72.333 -38 97s-61.333 48 -108 70c-49.333 23.333 -87.166 47.5 -113.499 72.5
s-39.5 58.833 -39.5 101.5c0 50.667 16.667 91.5 50 122.5s77 46.5 131 46.5c24 0 45.833 -2.83301 65.5 -8.5s35.5 -12.834 47.5 -21.501l-8 -18c-10.667 8 -25.5 15 -44.5 21s-39.167 9 -60.5 9c-48 0 -86.667 -13.833 -116 -41.5s-44 -63.5 -44 -107.5
c0 -26.667 6.5 -49.667 19.5 -69s29.5 -35.5 49.5 -48.5s46 -27.167 78 -42.5c48 -22.667 85.5 -47.834 112.5 -75.501s40.5 -63.167 40.5 -106.5c0 -34.667 -7.66699 -66 -23 -94s-38 -50.167 -68 -66.5s-66 -24.5 -108 -24.5c-24 0 -48.5 3.83301 -73.5 11.5zM118 821.002
h20l86 -92h2l85 92h20l-91 -111h-29z" />
    <glyph glyph-name="scaron" unicode="&#x161;" horiz-adv-x="331" 
d="M88 -2.5c-18 5 -33.334 12.498 -46.001 22.498l8 16c10.667 -8.66699 24.834 -15.667 42.501 -21s34.834 -8 51.501 -8c38 0 68.333 10.667 91 32s34 49.333 34 84c0 30 -7.5 53.5 -22.5 70.5s-41.167 34.167 -78.5 51.5c-38 17.333 -66.333 35.833 -85 55.5
s-28 44.5 -28 74.5c0 37.333 11.5 66.333 34.5 87s54.833 31 95.5 31c35.333 0 64.333 -8 87 -24l-7 -16c-20 15.333 -47.333 23 -82 23c-31.333 0 -57 -8.16699 -77 -24.5s-30 -41.166 -30 -74.499c0 -26.667 8.16699 -48.167 24.5 -64.5s42.166 -33.166 77.499 -50.499
c40.667 -19.333 69.5 -38.5 86.5 -57.5s25.5 -45.833 25.5 -80.5c0 -40 -13.167 -72.333 -39.5 -97s-61.833 -37 -106.5 -37c-19.333 0 -38 2.5 -56 7.5zM73.999 680.998h20l84 -112h2l85 112h19l-91 -131h-28z" />
    <glyph glyph-name="Tcedilla" unicode="&#x162;" horiz-adv-x="419" 
d="M149 -187c-10.667 3.33301 -19.334 7.66602 -26.001 12.999l6 16c13.333 -11.333 31 -17 53 -17c14.667 0 27.334 3.66699 38.001 11s16 19 16 35c0 18 -7.5 31.167 -22.5 39.5s-33.833 12.833 -56.5 13.5l44 76h-3v656h-203v18h429v-18h-205v-656l-38 -64
c20.667 -1.33301 38.167 -7.66602 52.5 -18.999s21.5 -26.666 21.5 -45.999c0 -20.667 -7.16699 -36.334 -21.5 -47.001s-31.5 -16 -51.5 -16c-11.333 0 -22.333 1.66699 -33 5z" />
    <glyph glyph-name="tcedilla" unicode="&#x163;" horiz-adv-x="254" 
d="M102 -187c-10.667 3.33301 -19.335 7.66602 -26.002 12.999l6 16c13.333 -11.333 31 -17 53 -17c14.667 0 27.334 3.66699 38.001 11s16 19 16 35c0 18 -7.5 31.167 -22.5 39.5s-33.833 12.833 -56.5 13.5l40 70c-22.667 6 -38.5 21.167 -47.5 45.5
s-13.5 60.166 -13.5 107.499v319h-70v17h70v117l21 7v-124h119v-17h-119v-319c0 -47.333 4.83301 -82.333 14.5 -105s28.167 -34 55.5 -34c16 0 30 3.66699 42 11l5 -17c-5.33301 -3.33301 -12.666 -6.16602 -21.999 -8.49902s-18.666 -3.5 -27.999 -3.5
c-4.66699 0 -8.33398 0.333008 -11.001 1l-32 -55c20.667 -1.33301 38.167 -7.66602 52.5 -18.999s21.5 -26.666 21.5 -45.999c0 -20.667 -7.16699 -36.334 -21.5 -47.001s-31.5 -16 -51.5 -16c-11.333 0 -22.333 1.66699 -33 5z" />
    <glyph glyph-name="Tcaron" unicode="&#x164;" horiz-adv-x="419" 
d="M198 656h-203v18h429v-18h-205v-656h-21v656zM103 821h20l86 -92h2l85 92h20l-91 -111h-29z" />
    <glyph glyph-name="tcaron" unicode="&#x165;" horiz-adv-x="254" 
d="M108 27.5c-12.667 25 -19.002 64.832 -19.002 119.499v319h-70v17h70v117l21 7v-124h119v-17h-119v-319c0 -47.333 4.83301 -82.333 14.5 -105s28.167 -34 55.5 -34c16 0 30 3.66699 42 11l5 -17c-5.33301 -3.33301 -12.666 -6.16602 -21.999 -8.49902
s-18.666 -3.5 -27.999 -3.5c-33.333 0 -56.333 12.5 -69 37.5zM176.998 542.999c30.667 26.667 46.001 58.667 46.001 96c0 27.333 -11.333 50.333 -34 69l17 4c24 -20 36 -44.333 36 -73c0 -22 -5.33301 -42 -16 -60s-23.334 -32.667 -38.001 -44z" />
    <glyph glyph-name="Tbar" unicode="&#x166;" horiz-adv-x="419" 
d="M198 348h-127v17h127v291h-203v18h429v-18h-205v-291h127v-17h-127v-348h-21v348z" />
    <glyph glyph-name="tbar" unicode="&#x167;" horiz-adv-x="254" 
d="M108 27.5c-12.667 25 -19.002 64.832 -19.002 119.499v128h-55v17h55v174h-70v17h70v117l21 7v-124h119v-17h-119v-174h94v-17h-94v-128c0 -47.333 4.83301 -82.333 14.5 -105s28.167 -34 55.5 -34c16 0 30 3.66699 42 11l5 -17
c-5.33301 -3.33301 -12.666 -6.16602 -21.999 -8.49902s-18.666 -3.5 -27.999 -3.5c-33.333 0 -56.333 12.5 -69 37.5z" />
    <glyph glyph-name="Utilde" unicode="&#x168;" horiz-adv-x="587" 
d="M139 57.5c-38 45.667 -57 116.5 -57 212.5v404h21v-403c0 -90 17 -156.333 51 -199s78.333 -64 133 -64c58.667 0 106.167 22 142.5 66s54.5 111 54.5 201v399h21v-399c0 -96 -20.167 -167.667 -60.5 -215s-92.833 -71 -157.5 -71c-60.667 0 -110 22.833 -148 68.5z
M202.5 775.5c9.66699 14.333 22.834 21.501 39.501 21.501c12 0 22.667 -2.83301 32 -8.5s20 -13.834 32 -24.501c10 -8.66699 18.167 -15 24.5 -19s13.166 -6 20.499 -6c10 0 17.5 4.16699 22.5 12.5s8.16699 24.5 9.5 48.5h16
c-0.666992 -29.333 -5.16699 -49.833 -13.5 -61.5s-19.833 -17.5 -34.5 -17.5c-10.667 0 -20.167 2.5 -28.5 7.5s-17.833 12.5 -28.5 22.5c-11.333 10 -20.5 17.167 -27.5 21.5s-15.167 6.5 -24.5 6.5c-12 0 -21.333 -5.33301 -28 -16s-9.66699 -25.667 -9 -45h-16
c-0.666992 24 3.83301 43.167 13.5 57.5z" />
    <glyph glyph-name="utilde" unicode="&#x169;" horiz-adv-x="494" 
d="M114 46.5c-25.333 37.667 -38 90.833 -38 159.5v277h21v-276c0 -70.667 12.667 -121.667 38 -153s59 -47 101 -47c37.333 0 69 12.333 95 37s43.667 53 53 85c4 13.333 6.5 25.5 7.5 36.5s1.5 27.833 1.5 50.5v267h21v-312c0 -60.667 1.33301 -117.667 4 -171h-19l-4 103
h-2c-36 -75.333 -89 -113 -159 -113c-54.667 0 -94.667 18.833 -120 56.5zM160.5 625.499c9.66699 14.333 22.834 21.501 39.501 21.501c12 0 22.667 -2.83301 32 -8.5s20 -13.834 32 -24.501c10 -8.66699 18.167 -15 24.5 -19s13.166 -6 20.499 -6
c10 0 17.5 4.16699 22.5 12.5s8.16699 24.5 9.5 48.5h16c-0.666992 -29.333 -5.16699 -49.833 -13.5 -61.5s-19.833 -17.5 -34.5 -17.5c-10.667 0 -20.167 2.5 -28.5 7.5s-17.833 12.5 -28.5 22.5c-11.333 10 -20.5 17.167 -27.5 21.5s-15.167 6.5 -24.5 6.5
c-12 0 -21.333 -5.33301 -28 -16s-9.66699 -25.667 -9 -45h-16c-0.666992 24 3.83301 43.167 13.5 57.5z" />
    <glyph glyph-name="Umacron" unicode="&#x16a;" horiz-adv-x="587" 
d="M139 57.5c-38 45.667 -57 116.5 -57 212.5v404h21v-403c0 -90 17 -156.333 51 -199s78.333 -64 133 -64c58.667 0 106.167 22 142.5 66s54.5 111 54.5 201v399h21v-399c0 -96 -20.167 -167.667 -60.5 -215s-92.833 -71 -157.5 -71c-60.667 0 -110 22.833 -148 68.5z
M191 757h205v-18h-205v18z" />
    <glyph glyph-name="umacron" unicode="&#x16b;" horiz-adv-x="494" 
d="M114 46.5c-25.333 37.667 -38 90.833 -38 159.5v277h21v-276c0 -70.667 12.667 -121.667 38 -153s59 -47 101 -47c37.333 0 69 12.333 95 37s43.667 53 53 85c4 13.333 6.5 25.5 7.5 36.5s1.5 27.833 1.5 50.5v267h21v-312c0 -60.667 1.33301 -117.667 4 -171h-19l-4 103
h-2c-36 -75.333 -89 -113 -159 -113c-54.667 0 -94.667 18.833 -120 56.5zM154 610.999h185v-17h-185v17z" />
    <glyph glyph-name="Ubreve" unicode="&#x16c;" horiz-adv-x="587" 
d="M139 57.5c-38 45.667 -57 116.5 -57 212.5v404h21v-403c0 -90 17 -156.333 51 -199s78.333 -64 133 -64c58.667 0 106.167 22 142.5 66s54.5 111 54.5 201v399h21v-399c0 -96 -20.167 -167.667 -60.5 -215s-92.833 -71 -157.5 -71c-60.667 0 -110 22.833 -148 68.5z
M215.5 742c-17 18.667 -25.834 43.667 -26.501 75h16c0.666992 -26.667 8.16699 -47.5 22.5 -62.5s36.5 -22.5 66.5 -22.5c58.667 0 88.334 28.333 89.001 85h16c-0.666992 -34 -10.167 -59.667 -28.5 -77s-43.833 -26 -76.5 -26c-35.333 0 -61.5 9.33301 -78.5 28z" />
    <glyph glyph-name="ubreve" unicode="&#x16d;" horiz-adv-x="494" 
d="M114 46.5c-25.333 37.667 -38 90.833 -38 159.5v277h21v-276c0 -70.667 12.667 -121.667 38 -153s59 -47 101 -47c37.333 0 69 12.333 95 37s43.667 53 53 85c4 13.333 6.5 25.5 7.5 36.5s1.5 27.833 1.5 50.5v267h21v-312c0 -60.667 1.33301 -117.667 4 -171h-19l-4 103
h-2c-36 -75.333 -89 -113 -159 -113c-54.667 0 -94.667 18.833 -120 56.5zM173 585.499c-16.667 21.667 -25.334 48.832 -26.001 81.499h17c0.666992 -28 7.83398 -50.833 21.501 -68.5s34.167 -26.5 61.5 -26.5c25.333 0 45.333 8.5 60 25.5s22.334 40.167 23.001 69.5h17
c-0.666992 -35.333 -10 -63.166 -28 -83.499s-42 -30.5 -72 -30.5c-32.667 0 -57.334 10.833 -74.001 32.5z" />
    <glyph glyph-name="Uring" unicode="&#x16e;" horiz-adv-x="587" 
d="M139 57.5c-38 45.667 -57 116.5 -57 212.5v404h21v-403c0 -90 17 -156.333 51 -199s78.333 -64 133 -64c58.667 0 106.167 22 142.5 66s54.5 111 54.5 201v399h21v-399c0 -96 -20.167 -167.667 -60.5 -215s-92.833 -71 -157.5 -71c-60.667 0 -110 22.833 -148 68.5z
M231.5 719c-17 14.667 -25.501 33.333 -25.501 56c0 24 8.33301 43.333 25 58s38.334 22 65.001 22c24.667 0 45.167 -7.33301 61.5 -22s24.5 -33.667 24.5 -57s-8.5 -42.333 -25.5 -57s-37.5 -22 -61.5 -22c-25.333 0 -46.5 7.33301 -63.5 22zM343.499 729.999
c13 11.333 19.5 26.668 19.5 46.001s-6.33301 34.666 -19 45.999s-28.667 17 -48 17c-21.333 0 -38.5 -5.66699 -51.5 -17s-19.5 -27 -19.5 -47c0 -18.667 6.66699 -33.667 20 -45s30 -17 50 -17c19.333 0 35.5 5.66699 48.5 17z" />
    <glyph glyph-name="uring" unicode="&#x16f;" horiz-adv-x="494" 
d="M114 46.5c-25.333 37.667 -38 90.833 -38 159.5v277h21v-276c0 -70.667 12.667 -121.667 38 -153s59 -47 101 -47c37.333 0 69 12.333 95 37s43.667 53 53 85c4 13.333 6.5 25.5 7.5 36.5s1.5 27.833 1.5 50.5v267h21v-312c0 -60.667 1.33301 -117.667 4 -171h-19l-4 103
h-2c-36 -75.333 -89 -113 -159 -113c-54.667 0 -94.667 18.833 -120 56.5zM185 557.499c-16.667 15 -25 34.501 -25 58.501c0 25.333 8 45.666 24 60.999s37.667 23 65 23c24.667 0 45 -7.66699 61 -23s24 -35.333 24 -60c0 -24 -8.33301 -43.667 -25 -59s-37 -23 -61 -23
c-25.333 0 -46.333 7.5 -63 22.5zM296 569c12.667 12 18.999 28 18.999 48s-6.16699 36.167 -18.5 48.5s-28.166 18.5 -47.499 18.5c-21.333 0 -38.333 -6.16699 -51 -18.5s-19 -28.833 -19 -49.5c0 -19.333 6.5 -35 19.5 -47s29.5 -18 49.5 -18c19.333 0 35.333 6 48 18z
" />
    <glyph glyph-name="Uhungarumlaut" unicode="&#x170;" horiz-adv-x="587" 
d="M139 57.5c-38 45.667 -57 116.5 -57 212.5v404h21v-403c0 -90 17 -156.333 51 -199s78.333 -64 133 -64c58.667 0 106.167 22 142.5 66s54.5 111 54.5 201v399h21v-399c0 -96 -20.167 -167.667 -60.5 -215s-92.833 -71 -157.5 -71c-60.667 0 -110 22.833 -148 68.5z
M291 825h39l-108 -115h-13zM409 825h39l-108 -115h-13z" />
    <glyph glyph-name="uhungarumlaut" unicode="&#x171;" horiz-adv-x="494" 
d="M114 46.5c-25.333 37.667 -38 90.833 -38 159.5v277h21v-276c0 -70.667 12.667 -121.667 38 -153s59 -47 101 -47c37.333 0 69 12.333 95 37s43.667 53 53 85c4 13.333 6.5 25.5 7.5 36.5s1.5 27.833 1.5 50.5v267h21v-312c0 -60.667 1.33301 -117.667 4 -171h-19l-4 103
h-2c-36 -75.333 -89 -113 -159 -113c-54.667 0 -94.667 18.833 -120 56.5zM246 685.999h38l-107 -136h-13zM364 685.999h38l-107 -136h-13z" />
    <glyph glyph-name="Uogonek" unicode="&#x172;" horiz-adv-x="587" 
d="M284 -176.5c-12.667 12.333 -19 30.166 -19 53.499c0 20.667 6 40.334 18 59.001s27.333 37.667 46 57c-11.333 -2.66699 -25.333 -4 -42 -4c-60.667 0 -110 22.833 -148 68.5s-57 116.5 -57 212.5v404h21v-403c0 -90 17 -156.333 51 -199s78.333 -64 133 -64
c58.667 0 106.167 22 142.5 66s54.5 111 54.5 201v399h21v-399c0 -71.333 -11.5 -129.333 -34.5 -174s-54.833 -76 -95.5 -94c-9.33301 -4 -16.5 -7.5 -21.5 -10.5s-10.5 -8.16699 -16.5 -15.5c-15.333 -18 -27.833 -35.5 -37.5 -52.5s-14.5 -34.167 -14.5 -51.5
c0 -16.667 4.66699 -30 14 -40s20.333 -15 33 -15c14 0 27.667 4.33301 41 13l4 -15c-13.333 -10 -28.666 -15 -45.999 -15c-18.667 0 -34.334 6.16699 -47.001 18.5z" />
    <glyph glyph-name="uogonek" unicode="&#x173;" horiz-adv-x="494" 
d="M356 -176.5c-12.667 12.333 -19 30.166 -19 53.499c0 24 6 46.167 18 66.5s26.667 40.833 44 61.5l-4 98h-2c-36 -75.333 -89 -113 -159 -113c-54.667 0 -94.667 18.833 -120 56.5s-38 90.834 -38 159.501v277h21v-276c0 -70.667 12.667 -121.667 38 -153s59 -47 101 -47
c37.333 0 69 12.333 95 37s43.667 53 53 85c4 13.333 6.5 25.5 7.5 36.5s1.5 27.833 1.5 50.5v267h21v-312c0 -60.667 1.33301 -117.667 4 -171h-6c-36.667 -46 -55 -87 -55 -123c0 -16.667 4.66699 -30 14 -40s20.333 -15 33 -15c14 0 27.667 4.33301 41 13l4 -15
c-13.333 -10 -28.666 -15 -45.999 -15c-18.667 0 -34.334 6.16699 -47.001 18.5z" />
    <glyph glyph-name="Wcircumflex" unicode="&#x174;" horiz-adv-x="771" 
d="M15 674l22.998 -0.000976562l86 -350l10 -40c30 -121.333 50.333 -206.666 61 -255.999h2c18.667 74 44.667 168 78 282l105 364h24l91 -364c2.66699 -9.33301 4.33398 -16.333 5.00098 -21c29.333 -113.333 50.333 -200.333 63 -261h2c16.667 70 39.334 156 68.001 258
l11 39l96 349h23l-188 -674h-24l-90 363l-69 283h-2c-14 -56 -40.333 -150.333 -79 -283l-104 -363h-24zM375.998 820.999h30l92 -111h-20l-86 92h-2l-85 -92h-20z" />
    <glyph glyph-name="wcircumflex" unicode="&#x175;" horiz-adv-x="671" 
d="M22 483l22.001 -0.000976562l83 -288c20 -70 35 -125.333 45 -166h2c10 38 29.667 98.667 59 182l7 20l86 252h22l79 -252c22.667 -72 42.667 -140 60 -204h2c17.333 64 37.666 132 60.999 204l80 252h22l-155 -483h-20l-81 258l-59 197h-2l-4.5 -14l-5.5 -17
c-18.667 -59.333 -39 -120.666 -61 -183.999l-83 -240h-20zM321.001 680.999h28l91 -131h-20l-84 112h-2l-85 -112h-19z" />
    <glyph glyph-name="Ycircumflex" unicode="&#x176;" horiz-adv-x="466" 
d="M223 305l-210 369h25l107 -189l88 -161h2c12.667 24.667 33 61.667 61 111l16 27.5l13 22.5l108 189h25l-214 -369v-305h-21v305zM219 821h30l92 -111h-20l-86 92h-2l-85 -92h-20z" />
    <glyph glyph-name="ycircumflex" unicode="&#x177;" horiz-adv-x="405" 
d="M22 -202c41.333 13.333 75.666 37.168 102.999 71.501s51.333 77.833 72 130.5c2 5.33301 3 9.66602 3 12.999c0 2.66699 -1 6.33398 -3 11.001l-184 459h24l134 -337l41 -109h1l38 109l118 337h24l-124 -347c-31.333 -88.667 -57 -154.334 -77 -197.001
s-43 -76.667 -69 -102c-18.667 -17.333 -36.167 -30.5 -52.5 -39.5s-30.166 -14.833 -41.499 -17.5zM190 681.002h28l91 -131h-20l-84 112h-2l-85 -112h-19z" />
    <glyph glyph-name="Ydieresis" unicode="&#x178;" horiz-adv-x="466" 
d="M223 305l-210 369h25l107 -189l88 -161h2c12.667 24.667 33 61.667 61 111l16 27.5l13 22.5l108 189h25l-214 -369v-305h-21v305zM142 736.5c-4 4.33301 -6 9.83301 -6 16.5s2.16699 12 6.5 16s9.5 6 15.5 6c6.66699 0 12 -2 16 -6s6 -9.33301 6 -16s-2 -12.167 -6 -16.5
s-9.33301 -6.5 -16 -6.5s-12 2.16699 -16 6.5zM296 736.5c-4 4.33301 -6 9.83301 -6 16.5s2.16699 12 6.5 16s9.5 6 15.5 6c6.66699 0 12 -2 16 -6s6 -9.33301 6 -16s-2 -12.167 -6 -16.5s-9.33301 -6.5 -16 -6.5s-12 2.16699 -16 6.5z" />
    <glyph glyph-name="Zacute" unicode="&#x179;" horiz-adv-x="491" 
d="M36 13l386 641v2h-354v18h384v-13l-386 -641v-2h391v-18h-421v13zM332 825h41l-122 -115h-18z" />
    <glyph glyph-name="zacute" unicode="&#x17a;" horiz-adv-x="342" 
d="M15 11l203 325l80 128v2h-263v17h291v-12l-204 -327l-78 -125v-2h285v-17h-314v11zM246 686h36l-113 -136h-16z" />
    <glyph glyph-name="Zdotaccent" unicode="&#x17b;" horiz-adv-x="491" 
d="M36 13l386 641v2h-354v18h384v-13l-386 -641v-2h391v-18h-421v13zM248.5 736c-4.33301 4.66699 -6.5 10.332 -6.5 16.999s2.16699 12.334 6.5 17.001s9.83301 7 16.5 7c7.33301 0 13 -2.16699 17 -6.5s6 -10.166 6 -17.499c0 -6.66699 -2.16699 -12.334 -6.5 -17.001
s-9.83301 -7 -16.5 -7s-12.167 2.33301 -16.5 7z" />
    <glyph glyph-name="zdotaccent" unicode="&#x17c;" horiz-adv-x="342" 
d="M15 11l203 325l80 128v2h-263v17h291v-12l-204 -327l-78 -125v-2h285v-17h-314v11zM160.5 590c-4.33301 4.66699 -6.5 10.332 -6.5 16.999s2.16699 12.334 6.5 17.001s9.83301 7 16.5 7c7.33301 0 13 -2.16699 17 -6.5s6 -10.166 6 -17.499
c0 -6.66699 -2.16699 -12.334 -6.5 -17.001s-9.83301 -7 -16.5 -7s-12.167 2.33301 -16.5 7z" />
    <glyph glyph-name="Zcaron" unicode="&#x17d;" horiz-adv-x="491" 
d="M36 13l386 641v2h-354v18h384v-13l-386 -641v-2h391v-18h-421v13zM153 821h20l86 -92h2l85 92h20l-91 -111h-29z" />
    <glyph glyph-name="zcaron" unicode="&#x17e;" horiz-adv-x="342" 
d="M15 11l203 325l80 128v2h-263v17h291v-12l-204 -327l-78 -125v-2h285v-17h-314v11zM75 681h20l84 -112h2l85 112h19l-91 -131h-28z" />
    <glyph glyph-name="longs" unicode="&#x17f;" horiz-adv-x="218" 
d="M78 466l-66 -0.000976562v17h66v24c0 70 10 123 30 159s51.333 54 94 54c22.667 0 42 -4.33301 58 -13l-7 -17c-16 8 -33 12 -51 12c-36 0 -62.167 -16.167 -78.5 -48.5s-24.5 -81.166 -24.5 -146.499v-507h-21v466z" />
    <glyph glyph-name="Ereversed" unicode="&#x18e;" horiz-adv-x="427" 
d="M35 18h287v329h-257v18h257v291h-272v18h293v-674h-308v18z" />
    <glyph glyph-name="Fhook" unicode="&#x191;" horiz-adv-x="409" 
d="M-40 -190c19.333 2 36.499 6.99902 51.499 14.999s27.5 18 37.5 30c12 14.667 20.833 36 26.5 64s8.5 69.667 8.5 125v630h288v-18h-267v-303h246v-18h-246v-296c0 -54.667 -3.33301 -97 -10 -127s-16.667 -53 -30 -69c-12 -14 -27.167 -25.667 -45.5 -35
s-37.166 -14.666 -56.499 -15.999z" />
    <glyph glyph-name="florin" unicode="&#x192;" horiz-adv-x="444" 
d="M13 -66l5.99902 15.998c16.667 -10.667 36 -16 58 -16c36.667 0 62.167 13.667 76.5 41s24.833 68.333 31.5 123l32 275h-99v15h101l3 25l3 23c5.33301 49.333 11.333 88.833 18 118.5s18.667 54.667 36 75s42 30.5 74 30.5c21.333 0 40.333 -3.66699 57 -11l-5 -16
c-18 6.66699 -35.333 10 -52 10c-27.333 0 -48.166 -9.83301 -62.499 -29.5s-24 -41.167 -29 -64.5s-9.5 -52.666 -13.5 -87.999l-9 -73h121v-15h-122l-26 -228c-6 -53.333 -12.5 -95.166 -19.5 -125.499s-19.5 -55 -37.5 -74s-43.667 -28.5 -77 -28.5
c-26 0 -47.667 5.66699 -65 17z" />
    <glyph glyph-name="Nhookleft" unicode="&#x19d;" horiz-adv-x="605" 
d="M-40 -185c19.333 2 36.499 6.99805 51.499 14.998s27.5 18 37.5 30c12 14.667 20.833 36 26.5 64s8.5 69.333 8.5 124v626h25l221 -360l170 -280h2c-1.33301 42.667 -2 106.334 -2 191.001v128v321h21v-674h-23l-219 355l-74 121l-52 86l-48 80h-2
c1.33301 -70.667 2 -177.667 2 -321v-278c0 -54.667 -3.33301 -97 -10 -127s-16.667 -53 -30 -69c-12 -14 -27.167 -25.667 -45.5 -35s-37.166 -14.666 -56.499 -15.999z" />
    <glyph glyph-name="Ohorn" unicode="&#x1a0;" horiz-adv-x="623" 
d="M170 32c-40.667 28.667 -72.8301 69 -96.4971 121s-35.5 111.333 -35.5 178c0 69.333 12.333 131 37 185s58.167 95.667 100.5 125s89.166 44 140.499 44c24 0 46.167 -3 66.5 -9s41.166 -14.667 62.499 -26c20.667 -10.667 42.667 -16 66 -16s39.833 5.16699 49.5 15.5
s14.5 22.166 14.5 35.499c0 8.66699 -1.66699 18.334 -5 29.001s-8 20.334 -14 29.001l18 4c14 -24 21 -44.667 21 -62c0 -20.667 -7.5 -37 -22.5 -49s-35.167 -18 -60.5 -18c-8.66699 0 -18 1 -28 3v-2c31.333 -30.667 56 -69.667 74 -117s27 -100 27 -158
c0 -74.667 -12.5 -138.834 -37.5 -192.501s-58.667 -94.167 -101 -121.5s-88.833 -41 -139.5 -41s-96.334 14.333 -137.001 43zM437.004 47c38.667 26.667 69.166 65.333 91.499 116s33.5 110.667 33.5 180c0 62 -10.333 117.5 -31 166.5s-49.667 87.5 -87 115.5
s-80 42 -128 42s-91.333 -14.167 -130 -42.5s-69.167 -68 -91.5 -119s-33.5 -109.167 -33.5 -174.5c0 -62 10.667 -117.667 32 -167s50.833 -87.833 88.5 -115.5s79.834 -41.5 126.501 -41.5c47.333 0 90.333 13.333 129 40z" />
    <glyph glyph-name="ohorn" unicode="&#x1a1;" horiz-adv-x="487" 
d="M139 19.5c-30 20.333 -53.832 49.333 -71.499 87s-26.5 81.5 -26.5 131.5c0 52.667 9.16699 98.167 27.5 136.5s43.166 67.666 74.499 87.999s65.666 30.5 102.999 30.5c28.667 0 54.334 -5.33301 77.001 -16l14.5 -7.5c7 -3.66699 14.167 -6.5 21.5 -8.5
s14.666 -3 21.999 -3c23.333 0 39.833 5.16699 49.5 15.5s14.5 22.166 14.5 35.499c0 8.66699 -1.66699 18.334 -5 29.001s-8 20.334 -14 29.001l18 4c14 -24 21 -44.667 21 -62c0 -22.667 -7.5 -39.667 -22.5 -51s-37.833 -16 -68.5 -14v-2
c22.667 -22 40.334 -49.667 53.001 -83s19 -71 19 -113c0 -57.333 -10 -105.333 -30 -144s-45.667 -67.167 -77 -85.5s-64.333 -27.5 -99 -27.5c-37.333 0 -71 10.167 -101 30.5zM330.001 32.5c27.333 17.667 49.833 44.667 67.5 81s26.5 80.5 26.5 132.5
c0 44 -7.33301 83.5 -22 118.5s-35.5 62.333 -62.5 82s-58.167 29.5 -93.5 29.5c-34.667 0 -65.834 -9.66699 -93.501 -29s-49.5 -47 -65.5 -83s-24 -78 -24 -126c0 -46 7.83301 -86.667 23.5 -122s37.334 -62.5 65.001 -81.5s58.5 -28.5 92.5 -28.5
c30 0 58.667 8.83301 86 26.5z" />
    <glyph glyph-name="Tonetwo" unicode="&#x1a7;" horiz-adv-x="425" 
d="M95 40c-33.333 33.333 -50.001 75.332 -50.001 125.999c0 47.333 13.5 84.833 40.5 112.5s64.833 53.167 113.5 76.5c36 17.333 64.333 32.333 85 45s38 28.834 52 48.501s21 43.5 21 71.5c0 43.333 -13.667 78.5 -41 105.5s-65.333 40.5 -114 40.5
c-21.333 0 -41.666 -3 -60.999 -9s-34.333 -13 -45 -21l-7 18c11.333 8 27.166 15 47.499 21s42.5 9 66.5 9c52.667 0 95 -14.833 127 -44.5s48 -69.167 48 -118.5c0 -33.333 -8 -61.333 -24 -84s-34.667 -40.5 -56 -53.5s-52.666 -29.5 -93.999 -49.5
c-44 -21.333 -77.833 -44 -101.5 -68s-35.5 -56 -35.5 -96c0 -46.667 14.333 -85.167 43 -115.5s71 -45.5 127 -45.5c23.333 0 47.166 3.83301 71.499 11.5s43.833 17.5 58.5 29.5l7 -20c-16.667 -11.333 -37.667 -20.833 -63 -28.5s-50 -11.5 -74 -11.5
c-61.333 0 -108.666 16.667 -141.999 50z" />
    <glyph glyph-name="tonetwo" unicode="&#x1a8;" horiz-adv-x="331" 
d="M75 25.5c-25.333 23.667 -37.999 55.168 -37.999 94.501c0 35.333 9 62.833 27 82.5s48 39.5 90 59.5c37.333 17.333 64.333 34.666 81 51.999s25 40.333 25 69c0 31.333 -9.5 54.666 -28.5 69.999s-43.833 23 -74.5 23c-35.333 0 -63 -7.66699 -83 -23l-7 16
c24 16 53.333 24 88 24c39.333 0 70.166 -9.66699 92.499 -29s33.5 -47 33.5 -83c0 -32 -9.5 -58.167 -28.5 -78.5s-48.5 -39.5 -88.5 -57.5c-38.667 -18 -66 -35.667 -82 -53s-24 -41.666 -24 -72.999c0 -33.333 10.5 -60.333 31.5 -81s50.833 -31 89.5 -31
c16.667 0 34 2.66699 52 8s32.333 12.333 43 21l8 -16c-13.333 -10 -29 -17.5 -47 -22.5s-36.667 -7.5 -56 -7.5c-44 0 -78.667 11.833 -104 35.5z" />
    <glyph glyph-name="Uhorn" unicode="&#x1af;" horiz-adv-x="587" 
d="M139 57.5c-38 45.667 -57 116.498 -57 212.498v404h21v-403c0 -90 17 -156.333 51 -199s78.333 -64 133 -64c58.667 0 106.167 22 142.5 66s54.5 111 54.5 201v399h23c46.667 0 70 17 70 51c0 8.66699 -1.66699 18.334 -5 29.001s-8 20.334 -14 29.001l18 4
c14 -24 21 -44.667 21 -62c0 -22.667 -7.33301 -39.5 -22 -50.5s-38 -16.5 -70 -16.5v-383c0 -96 -20.167 -167.667 -60.5 -215s-92.833 -71 -157.5 -71c-60.667 0 -110 22.833 -148 68.5z" />
    <glyph glyph-name="uhorn" unicode="&#x1b0;" horiz-adv-x="494" 
d="M114 46.5c-25.333 37.667 -38 90.8311 -38 159.498v277h21v-276c0 -70.667 12.667 -121.667 38 -153s59 -47 101 -47c37.333 0 69 12.333 95 37s43.667 53 53 85c4 13.333 6.5 25.5 7.5 36.5s1.5 27.833 1.5 50.5v267h23c46.667 0 70 17 70 51
c0 8.66699 -1.66699 18.334 -5 29.001s-8 20.334 -14 29.001l18 4c14 -24 21 -44.667 21 -62c0 -44.667 -29.333 -67 -88 -67h-4v-296c0 -60.667 1.33301 -117.667 4 -171h-19l-4 103h-2c-36 -75.333 -89 -113 -159 -113c-54.667 0 -94.667 18.833 -120 56.5z" />
    <glyph glyph-name="Zstroke" unicode="&#x1b5;" horiz-adv-x="491" 
d="M36 13l202 335h-128v17h138l174 289v2h-354v18h384v-13l-178 -296h122v-17h-132l-198 -328v-2h391v-18h-421v13z" />
    <glyph glyph-name="zstroke" unicode="&#x1b6;" horiz-adv-x="342" 
d="M15 11l146 233h-97v17h107l47 75l80 128v2h-263v17h291v-12l-131 -210h95v-17h-105l-63 -100l-78 -125v-2h285v-17h-314v11z" />
    <glyph glyph-name="clickdental" unicode="&#x1c0;" horiz-adv-x="207" 
d="M93 674h21v-674h-21v674z" />
    <glyph glyph-name="clicklateral" unicode="&#x1c1;" horiz-adv-x="291" 
d="M93 674h21v-674h-21v674zM177 674h21v-674h-21v674z" />
    <glyph glyph-name="clickalveolar" unicode="&#x1c2;" horiz-adv-x="207" 
d="M93 314h-72v19h72v107h-72v19h72v215h21v-215h72v-19h-72v-107h72v-19h-72v-314h-21v314z" />
    <glyph glyph-name="clickretroflex" unicode="&#x1c3;" horiz-adv-x="174" 
d="M72 674h29l-7 -497h-15zM69.5 1c-4.33301 4.66699 -6.50195 10.667 -6.50195 18s2.33301 13.5 7 18.5s10.334 7.5 17.001 7.5c7.33301 0 13.166 -2.5 17.499 -7.5s6.5 -11.167 6.5 -18.5s-2.16699 -13.333 -6.5 -18s-10.166 -7 -17.499 -7s-13.166 2.33301 -17.499 7z
" />
    <glyph glyph-name="DZcaron" unicode="&#x1c4;" horiz-adv-x="1092" 
d="M84 2v661.999c62.667 10 112.334 15 149.001 15c101.333 0 181.5 -27.167 240.5 -81.5s88.5 -135.5 88.5 -243.5c0 -117.333 -30.833 -206.666 -92.5 -267.999s-148.834 -92 -261.501 -92c-50 0 -91.333 2.66699 -124 8zM453.5 98.999c57 58 85.501 142.667 85.501 254
c0 101.333 -27.333 178 -82 230s-129.334 78 -224.001 78c-43.333 0 -86 -4 -128 -12v-632c24 -3.33301 59 -5 105 -5c105.333 0 186.5 29 243.5 87zM637.001 12.999l386 641v2h-354v18h384v-13l-386 -641v-2h391v-18h-421v13zM754.001 820.999h20l86 -92h2l85 92h20
l-91 -111h-29z" />
    <glyph glyph-name="Dzcaron" unicode="&#x1c5;" horiz-adv-x="943" 
d="M84 2v661.999c62.667 10 112.334 15 149.001 15c101.333 0 181.5 -27.167 240.5 -81.5s88.5 -135.5 88.5 -243.5c0 -117.333 -30.833 -206.666 -92.5 -267.999s-148.834 -92 -261.501 -92c-50 0 -91.333 2.66699 -124 8zM453.5 98.999c57 58 85.501 142.667 85.501 254
c0 101.333 -27.333 178 -82 230s-129.334 78 -224.001 78c-43.333 0 -86 -4 -128 -12v-632c24 -3.33301 59 -5 105 -5c105.333 0 186.5 29 243.5 87zM616.001 10.999l203 325l80 128v2h-263v17h291v-12l-204 -327l-78 -125v-2h285v-17h-314v11zM676.001 680.999h20l84 -112
h2l85 112h19l-91 -131h-28z" />
    <glyph glyph-name="dzcaron" unicode="&#x1c6;" horiz-adv-x="843" 
d="M94.5 57c-35.667 45.333 -53.499 109 -53.499 191c0 48.667 8.33301 91.5 25 128.5s40 65.667 70 86s64 30.5 102 30.5c35.333 0 67 -8.33301 95 -25s49.667 -37.667 65 -63h2v304h21v-570c0 -44.667 1.33301 -91 4 -139h-19l-4 94h-2c-16 -36 -38.5 -62.5 -67.5 -79.5
s-60.167 -25.5 -93.5 -25.5c-60.667 0 -108.834 22.667 -144.501 68zM321.001 27.5c24 14.333 43.167 33.834 57.5 58.501s21.5 51.667 21.5 81v175c0 18.667 -6.83301 38.5 -20.5 59.5s-32.667 38.667 -57 53s-51.5 21.5 -81.5 21.5c-35.333 0 -66.5 -9.5 -93.5 -28.5
s-47.833 -45.833 -62.5 -80.5s-22 -74.334 -22 -119.001c0 -76.667 16 -136.167 48 -178.5s76 -63.5 132 -63.5c28 0 54 7.16699 78 21.5zM516.001 11.001l203 325l80 128v2h-263v17h291v-12l-204 -327l-78 -125v-2h285v-17h-314v11zM576.001 681.001h20l84 -112h2l85 112
h19l-91 -131h-28z" />
    <glyph glyph-name="LJ" unicode="&#x1c7;" horiz-adv-x="714" 
d="M84 674h21v-656h280v-18h-301v674zM451 -5.5c-15.333 3.66699 -28 8.16699 -38 13.5l6 17c24 -12 50 -18 78 -18c36.667 0 65.667 16 87 48s32 86.333 32 163v456h21v-457c0 -152 -46.333 -228 -139 -228c-16 0 -31.667 1.83301 -47 5.5z" />
    <glyph glyph-name="Lj" unicode="&#x1c8;" horiz-adv-x="593" 
d="M84 674h21v-656h280v-18h-301v674zM485.5 590c-4.33301 4.66699 -6.5 10.332 -6.5 16.999s2.16699 12.334 6.5 17.001s9.83301 7 16.5 7c7.33301 0 13 -2.16699 17 -6.5s6 -10.166 6 -17.499c0 -6.66699 -2.16699 -12.334 -6.5 -17.001s-9.83301 -7 -16.5 -7
s-12.167 2.33301 -16.5 7zM367 -190.002c19.333 2 36.833 6.99902 52.5 14.999s28.167 18 37.5 30c12 14.667 20.833 36 26.5 64s8.5 69.667 8.5 125v439h21v-444c0 -54.667 -3.33301 -97 -10 -127s-16.667 -53 -30 -69c-12 -14 -27 -25.667 -45 -35
s-36.667 -14.666 -56 -15.999z" />
    <glyph glyph-name="lj" unicode="&#x1c9;" horiz-adv-x="371" 
d="M80 709h21v-709h-21v709zM263.5 590c-4.33301 4.66699 -6.5 10.332 -6.5 16.999s2.16699 12.334 6.5 17.001s9.83301 7 16.5 7c7.33301 0 13 -2.16699 17 -6.5s6 -10.166 6 -17.499c0 -6.66699 -2.16699 -12.334 -6.5 -17.001s-9.83301 -7 -16.5 -7
s-12.167 2.33301 -16.5 7zM145 -190.002c19.333 2 36.833 6.99902 52.5 14.999s28.167 18 37.5 30c12 14.667 20.833 36 26.5 64s8.5 69.667 8.5 125v439h21v-444c0 -54.667 -3.33301 -97 -10 -127s-16.667 -53 -30 -69c-12 -14 -27 -25.667 -45 -35
s-36.667 -14.666 -56 -15.999z" />
    <glyph glyph-name="NJ" unicode="&#x1ca;" horiz-adv-x="916" 
d="M84 674l25 -0.000976562l221 -360l170 -280h2c-1.33301 42.667 -2 106.334 -2 191.001v128v321h21v-674h-23l-219 355l-74 121l-52 86l-48 80h-2c1.33301 -70.667 2 -177.667 2 -321v-321h-21v674zM653 -5.50098c-15.333 3.66699 -28 8.16699 -38 13.5l6 17
c24 -12 50 -18 78 -18c36.667 0 65.667 16 87 48s32 86.333 32 163v456h21v-457c0 -152 -46.333 -228 -139 -228c-16 0 -31.667 1.83301 -47 5.5z" />
    <glyph glyph-name="Nj" unicode="&#x1cb;" horiz-adv-x="795" 
d="M84 674l25 -0.000976562l221 -360l170 -280h2c-1.33301 42.667 -2 106.334 -2 191.001v128v321h21v-674h-23l-219 355l-74 121l-52 86l-48 80h-2c1.33301 -70.667 2 -177.667 2 -321v-321h-21v674zM687.5 589.999c-4.33301 4.66699 -6.5 10.332 -6.5 16.999
s2.16699 12.334 6.5 17.001s9.83301 7 16.5 7c7.33301 0 13 -2.16699 17 -6.5s6 -10.166 6 -17.499c0 -6.66699 -2.16699 -12.334 -6.5 -17.001s-9.83301 -7 -16.5 -7s-12.167 2.33301 -16.5 7zM569 -190.003c19.333 2 36.833 6.99902 52.5 14.999s28.167 18 37.5 30
c12 14.667 20.833 36 26.5 64s8.5 69.667 8.5 125v439h21v-444c0 -54.667 -3.33301 -97 -10 -127s-16.667 -53 -30 -69c-12 -14 -27 -25.667 -45 -35s-36.667 -14.666 -56 -15.999z" />
    <glyph glyph-name="nj" unicode="&#x1cc;" horiz-adv-x="686" 
d="M80 312c0 60.667 -1.33594 117.668 -4.00293 171.001h19l4 -103h2c36 75.333 89.333 113 160 113c54.667 0 94.834 -18.833 120.501 -56.5s38.5 -90.834 38.5 -159.501v-277h-21v276c0 70.667 -12.833 121.667 -38.5 153s-59.5 47 -101.5 47
c-37.333 0 -69.166 -12.5 -95.499 -37.5s-44.166 -53.167 -53.499 -84.5c-4 -13.333 -6.5 -25.5 -7.5 -36.5s-1.5 -27.833 -1.5 -50.5v-267h-21v312zM578.497 590.001c-4.33301 4.66699 -6.5 10.332 -6.5 16.999s2.16699 12.334 6.5 17.001s9.83301 7 16.5 7
c7.33301 0 13 -2.16699 17 -6.5s6 -10.166 6 -17.499c0 -6.66699 -2.16699 -12.334 -6.5 -17.001s-9.83301 -7 -16.5 -7s-12.167 2.33301 -16.5 7zM459.997 -190.001c19.333 2 36.833 6.99902 52.5 14.999s28.167 18 37.5 30c12 14.667 20.833 36 26.5 64
s8.5 69.667 8.5 125v439h21v-444c0 -54.667 -3.33301 -97 -10 -127s-16.667 -53 -30 -69c-12 -14 -27 -25.667 -45 -35s-36.667 -14.666 -56 -15.999z" />
    <glyph glyph-name="Acaron" unicode="&#x1cd;" horiz-adv-x="551" 
d="M264 674h26l231 -674h-23l-81 239h-281l-81 -239h-22zM410 257l-75.001 223c-4 10.667 -6.66699 18.667 -8 24l-49 146h-2c-7.33301 -24 -14.166 -45 -20.499 -63l-15.5 -45l-21 -62l-76 -223h267zM170.999 821h20l86 -92h2l85 92h20l-91 -111h-29z" />
    <glyph glyph-name="acaron" unicode="&#x1ce;" horiz-adv-x="423" 
d="M71.5 24.5c-25 24.333 -37.5 54.835 -37.5 91.502c0 53.333 25.5 94.666 76.5 123.999s122.5 44 214.5 44v13c0 118.667 -42.333 178 -127 178c-20 0 -40.5 -3.33301 -61.5 -10s-38.833 -15.667 -53.5 -27l-7 17c15.333 11.333 34.333 20.333 57 27s44.667 10 66 10
c55.333 0 93.5 -18.333 114.5 -55s31.5 -84 31.5 -142v-137c0 -30 0.666992 -61.833 2 -95.5s3 -54.834 5 -63.501h-20c-2.66699 19.333 -4 47.333 -4 84h-3c-38 -63.333 -89.333 -95 -154 -95c-41.333 0 -74.5 12.167 -99.5 36.5zM306 83.002
c8 11.333 13.167 23.833 15.5 37.5s3.5 32.167 3.5 55.5v91c-84.667 0 -150.667 -12.833 -198 -38.5s-71 -62.5 -71 -110.5c0 -34.667 11 -62.167 33 -82.5s50 -30.5 84 -30.5c52.667 0 97 26 133 78zM103 681.002h20l84 -112h2l85 112h19l-91 -131h-28z" />
    <glyph glyph-name="Icaron" unicode="&#x1cf;" horiz-adv-x="189" 
d="M84 674h21v-674h-21v674zM-12 821h20l86 -92h2l85 92h20l-91 -111h-29z" />
    <glyph glyph-name="icaron" unicode="&#x1d0;" horiz-adv-x="181" 
d="M80 483h21v-483h-21v483zM-15 681h20l84 -112h2l85 112h19l-91 -131h-28z" />
    <glyph glyph-name="Ocaron" unicode="&#x1d1;" horiz-adv-x="623" 
d="M170 32c-40.667 28.667 -72.833 69.001 -96.5 121.001s-35.5 111.333 -35.5 178c0 69.333 12.333 131 37 185s58.167 95.667 100.5 125s89.166 44 140.499 44c52.667 0 99.334 -14.5 140.001 -43.5s72.334 -69.333 95.001 -121s34 -110.5 34 -176.5
c0 -74.667 -12.5 -138.834 -37.5 -192.501s-58.667 -94.167 -101 -121.5s-88.833 -41 -139.5 -41s-96.334 14.333 -137.001 43zM437.001 47.001c38.667 26.667 69.166 65.334 91.499 116.001s33.5 110.667 33.5 180c0 61.333 -10.333 116.666 -31 165.999
s-49.667 88 -87 116s-80 42 -128 42s-91.333 -14.167 -130 -42.5s-69.167 -68 -91.5 -119s-33.5 -109.167 -33.5 -174.5c0 -62 10.667 -117.667 32 -167s50.833 -87.833 88.5 -115.5s79.834 -41.5 126.501 -41.5c47.333 0 90.333 13.333 129 40zM218 821.001h20l86 -92h2
l85 92h20l-91 -111h-29z" />
    <glyph glyph-name="ocaron" unicode="&#x1d2;" horiz-adv-x="487" 
d="M139 19.5c-30 20.333 -53.8311 49.334 -71.498 87.001s-26.5 81.5 -26.5 131.5c0 52.667 9.16699 98.167 27.5 136.5s43.166 67.666 74.499 87.999s65.666 30.5 102.999 30.5c38.667 0 73.167 -10.333 103.5 -31s54 -49.667 71 -87s25.5 -80.333 25.5 -129
c0 -57.333 -10 -105.333 -30 -144s-45.667 -67.167 -77 -85.5s-64.333 -27.5 -99 -27.5c-37.333 0 -71 10.167 -101 30.5zM330.002 32.501c27.333 17.667 49.833 44.667 67.5 81s26.5 80.5 26.5 132.5c0 44 -7.33301 83.5 -22 118.5s-35.5 62.333 -62.5 82
s-58.167 29.5 -93.5 29.5c-34.667 0 -65.834 -9.66699 -93.501 -29s-49.5 -47 -65.5 -83s-24 -78 -24 -126c0 -46 7.83301 -86.667 23.5 -122s37.334 -62.5 65.001 -81.5s58.5 -28.5 92.5 -28.5c30 0 58.667 8.83301 86 26.5zM147.002 681.001h20l84 -112h2l85 112h19
l-91 -131h-28z" />
    <glyph glyph-name="Ucaron" unicode="&#x1d3;" horiz-adv-x="587" 
d="M139 57.5c-38 45.667 -57 116.5 -57 212.5v404h21v-403c0 -90 17 -156.333 51 -199s78.333 -64 133 -64c58.667 0 106.167 22 142.5 66s54.5 111 54.5 201v399h21v-399c0 -96 -20.167 -167.667 -60.5 -215s-92.833 -71 -157.5 -71c-60.667 0 -110 22.833 -148 68.5z
M187 821h20l86 -92h2l85 92h20l-91 -111h-29z" />
    <glyph glyph-name="ucaron" unicode="&#x1d4;" horiz-adv-x="494" 
d="M114 46.5c-25.333 37.667 -38 90.833 -38 159.5v277h21v-276c0 -70.667 12.667 -121.667 38 -153s59 -47 101 -47c37.333 0 69 12.333 95 37s43.667 53 53 85c4 13.333 6.5 25.5 7.5 36.5s1.5 27.833 1.5 50.5v267h21v-312c0 -60.667 1.33301 -117.667 4 -171h-19l-4 103
h-2c-36 -75.333 -89 -113 -159 -113c-54.667 0 -94.667 18.833 -120 56.5zM145 680.999h20l84 -112h2l85 112h19l-91 -131h-28z" />
    <glyph glyph-name="Udieresismacron" unicode="&#x1d5;" horiz-adv-x="587" 
d="M139 57.5c-38 45.667 -57 116.5 -57 212.5v404h21v-403c0 -90 17 -156.333 51 -199s78.333 -64 133 -64c58.667 0 106.167 22 142.5 66s54.5 111 54.5 201v399h21v-399c0 -96 -20.167 -167.667 -60.5 -215s-92.833 -71 -157.5 -71c-60.667 0 -110 22.833 -148 68.5z
M192 847h205v-18h-205v18zM201 736.5c-4 4.33301 -6 9.83301 -6 16.5s2.16699 12 6.5 16s9.5 6 15.5 6c6.66699 0 12 -2 16 -6s6 -9.33301 6 -16s-2 -12.167 -6 -16.5s-9.33301 -6.5 -16 -6.5s-12 2.16699 -16 6.5zM355 736.5c-4 4.33301 -6 9.83301 -6 16.5
s2.16699 12 6.5 16s9.5 6 15.5 6c6.66699 0 12 -2 16 -6s6 -9.33301 6 -16s-2 -12.167 -6 -16.5s-9.33301 -6.5 -16 -6.5s-12 2.16699 -16 6.5z" />
    <glyph glyph-name="udieresismacron" unicode="&#x1d6;" horiz-adv-x="494" 
d="M114 46.5c-25.333 37.667 -38 90.833 -38 159.5v277h21v-276c0 -70.667 12.667 -121.667 38 -153s59 -47 101 -47c37.333 0 69 12.333 95 37s43.667 53 53 85c4 13.333 6.5 25.5 7.5 36.5s1.5 27.833 1.5 50.5v267h21v-312c0 -60.667 1.33301 -117.667 4 -171h-19l-4 103
h-2c-36 -75.333 -89 -113 -159 -113c-54.667 0 -94.667 18.833 -120 56.5zM162 670.999h185v-17h-185v17zM161.5 560.999c-4.33301 4.66699 -6.5 10 -6.5 16c0 6.66699 2.16699 12.167 6.5 16.5s9.5 6.5 15.5 6.5c6.66699 0 12 -2.16699 16 -6.5s6 -9.83301 6 -16.5
c0 -6 -2.16699 -11.333 -6.5 -16s-9.5 -7 -15.5 -7s-11.167 2.33301 -15.5 7zM314.5 560.999c-4.33301 4.66699 -6.5 10 -6.5 16c0 6.66699 2.16699 12.167 6.5 16.5s9.5 6.5 15.5 6.5c6.66699 0 12 -2.16699 16 -6.5s6 -9.83301 6 -16.5c0 -6 -2.16699 -11.333 -6.5 -16
s-9.5 -7 -15.5 -7s-11.167 2.33301 -15.5 7z" />
    <glyph glyph-name="Udieresisacute" unicode="&#x1d7;" horiz-adv-x="587" 
d="M139 57.5c-38 45.667 -57 116.5 -57 212.5v404h21v-403c0 -90 17 -156.333 51 -199s78.333 -64 133 -64c58.667 0 106.167 22 142.5 66s54.5 111 54.5 201v399h21v-399c0 -96 -20.167 -167.667 -60.5 -215s-92.833 -71 -157.5 -71c-60.667 0 -110 22.833 -148 68.5z
M341 905h40l-112 -105h-15zM201 736.5c-4 4.33301 -6 9.83301 -6 16.5s2.16699 12 6.5 16s9.5 6 15.5 6c6.66699 0 12 -2 16 -6s6 -9.33301 6 -16s-2 -12.167 -6 -16.5s-9.33301 -6.5 -16 -6.5s-12 2.16699 -16 6.5zM355 736.5c-4 4.33301 -6 9.83301 -6 16.5
s2.16699 12 6.5 16s9.5 6 15.5 6c6.66699 0 12 -2 16 -6s6 -9.33301 6 -16s-2 -12.167 -6 -16.5s-9.33301 -6.5 -16 -6.5s-12 2.16699 -16 6.5z" />
    <glyph glyph-name="udieresisacute" unicode="&#x1d8;" horiz-adv-x="494" 
d="M114 46.5c-25.333 37.667 -38 90.833 -38 159.5v277h21v-276c0 -70.667 12.667 -121.667 38 -153s59 -47 101 -47c37.333 0 69 12.333 95 37s43.667 53 53 85c4 13.333 6.5 25.5 7.5 36.5s1.5 27.833 1.5 50.5v267h21v-312c0 -60.667 1.33301 -117.667 4 -171h-19l-4 103
h-2c-36 -75.333 -89 -113 -159 -113c-54.667 0 -94.667 18.833 -120 56.5zM312 765.999h36l-113 -136h-16zM161.5 560.999c-4.33301 4.66699 -6.5 10 -6.5 16c0 6.66699 2.16699 12.167 6.5 16.5s9.5 6.5 15.5 6.5c6.66699 0 12 -2.16699 16 -6.5s6 -9.83301 6 -16.5
c0 -6 -2.16699 -11.333 -6.5 -16s-9.5 -7 -15.5 -7s-11.167 2.33301 -15.5 7zM314.5 560.999c-4.33301 4.66699 -6.5 10 -6.5 16c0 6.66699 2.16699 12.167 6.5 16.5s9.5 6.5 15.5 6.5c6.66699 0 12 -2.16699 16 -6.5s6 -9.83301 6 -16.5c0 -6 -2.16699 -11.333 -6.5 -16
s-9.5 -7 -15.5 -7s-11.167 2.33301 -15.5 7z" />
    <glyph glyph-name="Udieresiscaron" unicode="&#x1d9;" horiz-adv-x="587" 
d="M139 57.5c-38 45.667 -57 116.5 -57 212.5v404h21v-403c0 -90 17 -156.333 51 -199s78.333 -64 133 -64c58.667 0 106.167 22 142.5 66s54.5 111 54.5 201v399h21v-399c0 -96 -20.167 -167.667 -60.5 -215s-92.833 -71 -157.5 -71c-60.667 0 -110 22.833 -148 68.5z
M187 905h20l86 -92h2l85 92h20l-91 -111h-29zM201 736.5c-4 4.33301 -6 9.83301 -6 16.5s2.16699 12 6.5 16s9.5 6 15.5 6c6.66699 0 12 -2 16 -6s6 -9.33301 6 -16s-2 -12.167 -6 -16.5s-9.33301 -6.5 -16 -6.5s-12 2.16699 -16 6.5zM355 736.5
c-4 4.33301 -6 9.83301 -6 16.5s2.16699 12 6.5 16s9.5 6 15.5 6c6.66699 0 12 -2 16 -6s6 -9.33301 6 -16s-2 -12.167 -6 -16.5s-9.33301 -6.5 -16 -6.5s-12 2.16699 -16 6.5z" />
    <glyph glyph-name="udieresiscaron" unicode="&#x1da;" horiz-adv-x="494" 
d="M114 46.5c-25.333 37.667 -38 90.833 -38 159.5v277h21v-276c0 -70.667 12.667 -121.667 38 -153s59 -47 101 -47c37.333 0 69 12.333 95 37s43.667 53 53 85c4 13.333 6.5 25.5 7.5 36.5s1.5 27.833 1.5 50.5v267h21v-312c0 -60.667 1.33301 -117.667 4 -171h-19l-4 103
h-2c-36 -75.333 -89 -113 -159 -113c-54.667 0 -94.667 18.833 -120 56.5zM149 765.999h20l84 -112h2l85 112h19l-91 -131h-28zM161.5 560.999c-4.33301 4.66699 -6.5 10 -6.5 16c0 6.66699 2.16699 12.167 6.5 16.5s9.5 6.5 15.5 6.5c6.66699 0 12 -2.16699 16 -6.5
s6 -9.83301 6 -16.5c0 -6 -2.16699 -11.333 -6.5 -16s-9.5 -7 -15.5 -7s-11.167 2.33301 -15.5 7zM314.5 560.999c-4.33301 4.66699 -6.5 10 -6.5 16c0 6.66699 2.16699 12.167 6.5 16.5s9.5 6.5 15.5 6.5c6.66699 0 12 -2.16699 16 -6.5s6 -9.83301 6 -16.5
c0 -6 -2.16699 -11.333 -6.5 -16s-9.5 -7 -15.5 -7s-11.167 2.33301 -15.5 7z" />
    <glyph glyph-name="Udieresisgrave" unicode="&#x1db;" horiz-adv-x="587" 
d="M139 57.5c-38 45.667 -57 116.5 -57 212.5v404h21v-403c0 -90 17 -156.333 51 -199s78.333 -64 133 -64c58.667 0 106.167 22 142.5 66s54.5 111 54.5 201v399h21v-399c0 -96 -20.167 -167.667 -60.5 -215s-92.833 -71 -157.5 -71c-60.667 0 -110 22.833 -148 68.5z
M207 905h40l87 -105h-15zM201 736.5c-4 4.33301 -6 9.83301 -6 16.5s2.16699 12 6.5 16s9.5 6 15.5 6c6.66699 0 12 -2 16 -6s6 -9.33301 6 -16s-2 -12.167 -6 -16.5s-9.33301 -6.5 -16 -6.5s-12 2.16699 -16 6.5zM355 736.5c-4 4.33301 -6 9.83301 -6 16.5
s2.16699 12 6.5 16s9.5 6 15.5 6c6.66699 0 12 -2 16 -6s6 -9.33301 6 -16s-2 -12.167 -6 -16.5s-9.33301 -6.5 -16 -6.5s-12 2.16699 -16 6.5z" />
    <glyph glyph-name="udieresisgrave" unicode="&#x1dc;" horiz-adv-x="494" 
d="M114 46.5c-25.333 37.667 -38 90.833 -38 159.5v277h21v-276c0 -70.667 12.667 -121.667 38 -153s59 -47 101 -47c37.333 0 69 12.333 95 37s43.667 53 53 85c4 13.333 6.5 25.5 7.5 36.5s1.5 27.833 1.5 50.5v267h21v-312c0 -60.667 1.33301 -117.667 4 -171h-19l-4 103
h-2c-36 -75.333 -89 -113 -159 -113c-54.667 0 -94.667 18.833 -120 56.5zM160 765.999h36l93 -136h-16zM161.5 560.999c-4.33301 4.66699 -6.5 10 -6.5 16c0 6.66699 2.16699 12.167 6.5 16.5s9.5 6.5 15.5 6.5c6.66699 0 12 -2.16699 16 -6.5s6 -9.83301 6 -16.5
c0 -6 -2.16699 -11.333 -6.5 -16s-9.5 -7 -15.5 -7s-11.167 2.33301 -15.5 7zM314.5 560.999c-4.33301 4.66699 -6.5 10 -6.5 16c0 6.66699 2.16699 12.167 6.5 16.5s9.5 6.5 15.5 6.5c6.66699 0 12 -2.16699 16 -6.5s6 -9.83301 6 -16.5c0 -6 -2.16699 -11.333 -6.5 -16
s-9.5 -7 -15.5 -7s-11.167 2.33301 -15.5 7z" />
    <glyph glyph-name="eturned" unicode="&#x1dd;" horiz-adv-x="455" 
d="M111 22c-26 21.333 -44.332 47.166 -54.999 77.499s-16 60.5 -16 90.5c0 19.333 0.666992 33.333 2 42h350c0 74 -16.167 133.167 -48.5 177.5s-78.833 66.5 -139.5 66.5c-50.667 0 -95.334 -9.66699 -134.001 -29l-4 16c40 20 86.333 30 139 30
c64.667 0 115.667 -22.667 153 -68s56 -109.333 56 -192c0 -42.667 -8.5 -82.667 -25.5 -120s-40.667 -67.166 -71 -89.499s-64.833 -33.5 -103.5 -33.5c-42.667 0 -77 10.667 -103 32zM302.001 34.5c26 18.333 46.832 43.3311 62.499 74.998s24.5 66.834 26.5 105.501h-330
c-0.666992 -5.33301 -1 -15.666 -1 -30.999c0.666992 -26.667 5.83398 -53.5 15.501 -80.5s26 -49.833 49 -68.5s53.167 -28 90.5 -28c32 0 61 9.16699 87 27.5z" />
    <glyph glyph-name="Adieresismacron" unicode="&#x1de;" horiz-adv-x="551" 
d="M264 674h26l231 -674h-23l-81 239h-281l-81 -239h-22zM410 257l-75.001 223c-4 10.667 -6.66699 18.667 -8 24l-49 146h-2c-7.33301 -24 -14.166 -45 -20.499 -63l-15.5 -45l-21 -62l-76 -223h267zM174.999 847h205v-18h-205v18zM183.999 736.5
c-4 4.33301 -6 9.83301 -6 16.5s2.16699 12 6.5 16s9.5 6 15.5 6c6.66699 0 12 -2 16 -6s6 -9.33301 6 -16s-2 -12.167 -6 -16.5s-9.33301 -6.5 -16 -6.5s-12 2.16699 -16 6.5zM337.999 736.5c-4 4.33301 -6 9.83301 -6 16.5s2.16699 12 6.5 16s9.5 6 15.5 6
c6.66699 0 12 -2 16 -6s6 -9.33301 6 -16s-2 -12.167 -6 -16.5s-9.33301 -6.5 -16 -6.5s-12 2.16699 -16 6.5z" />
    <glyph glyph-name="adieresismacron" unicode="&#x1df;" horiz-adv-x="423" 
d="M71.5 24.5c-25 24.333 -37.5 54.835 -37.5 91.502c0 53.333 25.5 94.666 76.5 123.999s122.5 44 214.5 44v13c0 118.667 -42.333 178 -127 178c-20 0 -40.5 -3.33301 -61.5 -10s-38.833 -15.667 -53.5 -27l-7 17c15.333 11.333 34.333 20.333 57 27s44.667 10 66 10
c55.333 0 93.5 -18.333 114.5 -55s31.5 -84 31.5 -142v-137c0 -30 0.666992 -61.833 2 -95.5s3 -54.834 5 -63.501h-20c-2.66699 19.333 -4 47.333 -4 84h-3c-38 -63.333 -89.333 -95 -154 -95c-41.333 0 -74.5 12.167 -99.5 36.5zM306 83.002
c8 11.333 13.167 23.833 15.5 37.5s3.5 32.167 3.5 55.5v91c-84.667 0 -150.667 -12.833 -198 -38.5s-71 -62.5 -71 -110.5c0 -34.667 11 -62.167 33 -82.5s50 -30.5 84 -30.5c52.667 0 97 26 133 78zM116 671.002h185v-17h-185v17zM115.5 561.002
c-4.33301 4.66699 -6.5 10 -6.5 16c0 6.66699 2.16699 12.167 6.5 16.5s9.5 6.5 15.5 6.5c6.66699 0 12 -2.16699 16 -6.5s6 -9.83301 6 -16.5c0 -6 -2.16699 -11.333 -6.5 -16s-9.5 -7 -15.5 -7s-11.167 2.33301 -15.5 7zM268.5 561.002c-4.33301 4.66699 -6.5 10 -6.5 16
c0 6.66699 2.16699 12.167 6.5 16.5s9.5 6.5 15.5 6.5c6.66699 0 12 -2.16699 16 -6.5s6 -9.83301 6 -16.5c0 -6 -2.16699 -11.333 -6.5 -16s-9.5 -7 -15.5 -7s-11.167 2.33301 -15.5 7z" />
    <glyph glyph-name="Adotmacron" unicode="&#x1e0;" horiz-adv-x="551" 
d="M264 674h26l231 -674h-23l-81 239h-281l-81 -239h-22zM410 257l-75.001 223c-4 10.667 -6.66699 18.667 -8 24l-49 146h-2c-7.33301 -24 -14.166 -45 -20.499 -63l-15.5 -45l-21 -62l-76 -223h267zM174.999 847h205v-18h-205v18zM260.999 736.5
c-4 4.33301 -6 9.83301 -6 16.5s2.16699 12 6.5 16s9.5 6 15.5 6c6.66699 0 12 -2 16 -6s6 -9.33301 6 -16s-2 -12.167 -6 -16.5s-9.33301 -6.5 -16 -6.5s-12 2.16699 -16 6.5z" />
    </font>
</defs>
</svg>
